M48
;Layer_Color=9474304
;FILE_FORMAT=2:5
INCH,LZ
;TYPE=PLATED
T01F00S00C0.01300
T02F00S00C0.03150
T04F00S00C0.03543
T05F00S00C0.03937
T07F00S00C0.04000
T08F00S00C0.04016
T09F00S00C0.04331
%
T01
X0043Y0049
X0053Y005
X0081Y0011
X0083Y0007
X0092Y0005
X0097Y0004
X0164Y0049
X0199Y0029
X0262Y004
Y0045
X0382Y0165
X0355Y0166
X0356Y011
X0323Y0199
X0326Y0204
X0301Y0208
X0297Y0211
X0286Y0204
X0262Y0183
X0258Y0179
X0246Y0168
X0248Y0163
X0241Y016
X0239Y0165
X0208Y0144
X0167Y0132
X01567Y01416
X0153Y0098
Y0092
X0149Y0101
X0144
X0141Y0105
X0138Y0077
X0124
X016Y0074
X0164Y0076
X016925
X0178Y0084
X0173Y0096
X017Y0101
X0177
X018Y0106
X0177Y0112
X0181Y0115
X0187Y0062
X0184Y018
X0186Y0184
X0188Y0195
X0185Y0199
X0202Y021
X0059
X0072Y0171
X0104Y014
Y0135
X0052Y0138
X0056Y0147
X0052Y0151
X005Y0156
X0046Y016
X0048Y0169
X0047Y0174
X0039Y0152
X0034
X0056Y0071
Y0066
X0049Y0235
X0052Y0239
X005Y0251
X0045Y0252
X001Y02601
X006Y0243
X0062Y0238
X0057Y0239
X0068Y0249
X0057Y0215
X0124Y0235
X0127Y0238
X014Y0237
X0144Y0239
X0163Y0221
X0114Y0248
Y0253
X0206Y0256
X0207Y0307
X0201Y0308
X0208Y0332
X0213Y0331
X0236Y0348
X0268Y0342
X0267Y0337
X0278Y0336
X0279Y0341
X0274Y0359
X0301Y035
X031Y03354
X0288Y0325
Y032
X0283Y0318
Y030375
X0289Y0303
X0287Y0292
X0283Y0296
X0275Y0303
X0269Y0302
X0267Y0296
X0262Y0292
X0289Y0265
X0286Y0218
X0228Y0243
X0364Y0224
X0338Y0307
Y0314
X0333Y0315
Y03036
X0382Y0353
X0104Y0392
T02
X0308623Y0357875
X0314921
X032122
X0318072Y0362614
X0311772
T04
X0370795Y007
X0345205
T05
X0016Y023111
Y024489
T07
X0014Y0011
X0024
X0034
X0044
X0109Y0012
X0119
X0129
X0139
X0234Y0008
X0244
X0254
X0264
X0335Y0016
X0345
X0355
X0365
X0366Y0034
X0356
X0346
X0336
X0051Y0093
Y0103
Y0113
Y0123
X0008Y0131
Y0141
Y0151
Y0161
X0024Y0177
Y0187
Y0197
Y0207
X0021Y0338
X0031
X0041
X0011
X0082Y0318
Y0308
Y0298
Y0288
X011Y0292
Y0282
Y0272
Y0262
Y0313
X012
X013
X014
X0141Y0335
X0131
X0121
X0111
X016
X017
X018
X019
X0176Y0351
Y0361
X0257Y036
Y035
X0298Y032
X0308
X0318
X0328
X0346Y0321
X0356
X0366
X0376
Y0382
X0366
X0356
X0346
X0257Y038
Y037
X0176Y0371
Y0381
T08
X0208Y0035
Y0045
X0132Y022
Y023
T09
X0065Y0015
Y0025
Y0035
Y0045
Y0055
X0095
Y0045
Y0035
Y0025
Y0015
X0285
Y0025
Y0035
Y0045
Y0055
X0315
Y0045
Y0035
Y0025
Y0015
Y0065
Y0075
Y0085
Y0101
Y0111
Y0121
Y0131
Y0141
Y0151
Y0161
Y0171
Y0181
Y0191
X0285
Y0181
Y0171
Y0161
Y0151
Y0141
Y0131
Y0121
Y0111
Y0101
Y0085
Y0075
Y0065
X0095
Y0085
Y0095
Y0105
Y0115
Y0125
Y0135
Y0145
Y0155
X0065
Y0145
Y0135
Y0125
Y0115
Y0105
Y0095
Y0085
Y0065
X0062Y0187
X0052
X0042
X0045Y026
X0035
X0025
X0123Y0358
Y0368
X0301Y0239
X0311
Y0229
Y0219
X0301
Y0229
X0123Y0378
M30
