M48
;Layer_Color=9474304
;FILE_FORMAT=2:5
INCH,LZ
;TYPE=PLATED
T03F00S00C0.03150
T06F00S00C0.03937
T10F00S00C0.04724
%
G90
G05
T03
G00X0300355Y0359259
M15
G01Y036359
M16
G00X0329645Y0359259
M15
G01Y036359
M16
G00X0329645Y037796
M15
G01Y0382291
M16
G00X0300355Y037796
M15
G01Y0382291
M16
T06
G00X0044827Y0285693
M15
G01X0050732
M16
G00X0043827Y0361693
M15
G01X0049732
M16
T10
G00X0034Y0307543
M15
G01Y0300457
M16
G00X0057622Y0307543
M15
G01Y0300457
M16
G00X0056622Y0383543
M15
G01Y0376457
M16
G00X0033Y0383543
M15
G01Y0376457
M16
M17
M30
