G04*
G04 #@! TF.GenerationSoftware,Altium Limited,Altium Designer,23.8.1 (32)*
G04*
G04 Layer_Physical_Order=3*
G04 Layer_Color=16440176*
%FSLAX25Y25*%
%MOIN*%
G70*
G04*
G04 #@! TF.SameCoordinates,CF8B6EB2-DAF4-4016-BDB3-9DCBFEF17629*
G04*
G04*
G04 #@! TF.FilePolarity,Positive*
G04*
G01*
G75*
%ADD70C,0.07000*%
%ADD71O,0.12992X0.07087*%
%ADD72O,0.07874X0.14961*%
%ADD73C,0.07874*%
%ADD74C,0.06496*%
%ADD75C,0.06378*%
%ADD76C,0.06000*%
%ADD77O,0.04724X0.09449*%
%ADD78C,0.04724*%
%ADD79C,0.06299*%
%ADD80C,0.02800*%
%ADD81C,0.02500*%
G36*
X387961Y2039D02*
X2039D01*
Y397961D01*
X387961D01*
Y2039D01*
D02*
G37*
%LPC*%
G36*
X376592Y386500D02*
X376500D01*
Y382500D01*
X380500D01*
Y382592D01*
X380193Y383737D01*
X379601Y384763D01*
X378763Y385601D01*
X377737Y386193D01*
X376592Y386500D01*
D02*
G37*
G36*
X375500D02*
X375408D01*
X374263Y386193D01*
X373237Y385601D01*
X372399Y384763D01*
X371807Y383737D01*
X371500Y382592D01*
Y382500D01*
X375500D01*
Y386500D01*
D02*
G37*
G36*
X366592D02*
X366500D01*
Y382500D01*
X370500D01*
Y382592D01*
X370193Y383737D01*
X369601Y384763D01*
X368763Y385601D01*
X367737Y386193D01*
X366592Y386500D01*
D02*
G37*
G36*
X365500D02*
X365408D01*
X364263Y386193D01*
X363237Y385601D01*
X362399Y384763D01*
X361807Y383737D01*
X361500Y382592D01*
Y382500D01*
X365500D01*
Y386500D01*
D02*
G37*
G36*
X356592D02*
X356500D01*
Y382500D01*
X360500D01*
Y382592D01*
X360193Y383737D01*
X359601Y384763D01*
X358763Y385601D01*
X357737Y386193D01*
X356592Y386500D01*
D02*
G37*
G36*
X355500D02*
X355408D01*
X354263Y386193D01*
X353237Y385601D01*
X352399Y384763D01*
X351807Y383737D01*
X351500Y382592D01*
Y382500D01*
X355500D01*
Y386500D01*
D02*
G37*
G36*
X176592Y385500D02*
X176500D01*
Y381500D01*
X180500D01*
Y381592D01*
X180193Y382737D01*
X179601Y383763D01*
X178763Y384601D01*
X177737Y385193D01*
X176592Y385500D01*
D02*
G37*
G36*
X175500D02*
X175408D01*
X174263Y385193D01*
X173237Y384601D01*
X172399Y383763D01*
X171807Y382737D01*
X171500Y381592D01*
Y381500D01*
X175500D01*
Y385500D01*
D02*
G37*
G36*
X300854Y385813D02*
Y380625D01*
X303746D01*
Y382488D01*
X303630Y383365D01*
X303291Y384183D01*
X302752Y384886D01*
X302050Y385424D01*
X301232Y385763D01*
X300854Y385813D01*
D02*
G37*
G36*
X299854Y385813D02*
X299477Y385763D01*
X298659Y385424D01*
X297957Y384886D01*
X297418Y384183D01*
X297079Y383365D01*
X296963Y382488D01*
Y380625D01*
X299854D01*
Y385813D01*
D02*
G37*
G36*
X330146D02*
Y380625D01*
X333037D01*
Y382488D01*
X332921Y383365D01*
X332582Y384183D01*
X332043Y384886D01*
X331341Y385424D01*
X330523Y385763D01*
X330146Y385813D01*
D02*
G37*
G36*
X329146Y385813D02*
X328768Y385763D01*
X327950Y385424D01*
X327248Y384886D01*
X326709Y384183D01*
X326370Y383365D01*
X326254Y382488D01*
Y380625D01*
X329146D01*
Y385813D01*
D02*
G37*
G36*
X33500Y388457D02*
Y380500D01*
X37980D01*
Y383543D01*
X37810Y384832D01*
X37312Y386033D01*
X36521Y387064D01*
X35490Y387856D01*
X34289Y388353D01*
X33500Y388457D01*
D02*
G37*
G36*
X32500D02*
X31711Y388353D01*
X30510Y387856D01*
X29479Y387064D01*
X28688Y386033D01*
X28190Y384832D01*
X28020Y383543D01*
Y380500D01*
X32500D01*
Y388457D01*
D02*
G37*
G36*
X380500Y381500D02*
X376500D01*
Y377500D01*
X376592D01*
X377737Y377807D01*
X378763Y378399D01*
X379601Y379237D01*
X380193Y380263D01*
X380500Y381408D01*
Y381500D01*
D02*
G37*
G36*
X375500D02*
X371500D01*
Y381408D01*
X371807Y380263D01*
X372399Y379237D01*
X373237Y378399D01*
X374263Y377807D01*
X375408Y377500D01*
X375500D01*
Y381500D01*
D02*
G37*
G36*
X370500D02*
X366500D01*
Y377500D01*
X366592D01*
X367737Y377807D01*
X368763Y378399D01*
X369601Y379237D01*
X370193Y380263D01*
X370500Y381408D01*
Y381500D01*
D02*
G37*
G36*
X365500D02*
X361500D01*
Y381408D01*
X361807Y380263D01*
X362399Y379237D01*
X363237Y378399D01*
X364263Y377807D01*
X365408Y377500D01*
X365500D01*
Y381500D01*
D02*
G37*
G36*
X360500D02*
X356500D01*
Y377500D01*
X356592D01*
X357737Y377807D01*
X358763Y378399D01*
X359601Y379237D01*
X360193Y380263D01*
X360500Y381408D01*
Y381500D01*
D02*
G37*
G36*
X355500D02*
X351500D01*
Y381408D01*
X351807Y380263D01*
X352399Y379237D01*
X353237Y378399D01*
X354263Y377807D01*
X355408Y377500D01*
X355500D01*
Y381500D01*
D02*
G37*
G36*
X346592Y386500D02*
X345408D01*
X344263Y386193D01*
X343237Y385601D01*
X342399Y384763D01*
X341807Y383737D01*
X341500Y382592D01*
Y381408D01*
X341807Y380263D01*
X342399Y379237D01*
X343237Y378399D01*
X344263Y377807D01*
X345408Y377500D01*
X346592D01*
X347737Y377807D01*
X348763Y378399D01*
X349601Y379237D01*
X350193Y380263D01*
X350500Y381408D01*
Y382592D01*
X350193Y383737D01*
X349601Y384763D01*
X348763Y385601D01*
X347737Y386193D01*
X346592Y386500D01*
D02*
G37*
G36*
X180500Y380500D02*
X176500D01*
Y376500D01*
X176592D01*
X177737Y376807D01*
X178763Y377399D01*
X179601Y378237D01*
X180193Y379263D01*
X180500Y380408D01*
Y380500D01*
D02*
G37*
G36*
X175500D02*
X171500D01*
Y380408D01*
X171807Y379263D01*
X172399Y378237D01*
X173237Y377399D01*
X174263Y376807D01*
X175408Y376500D01*
X175500D01*
Y380500D01*
D02*
G37*
G36*
X257592Y384500D02*
X256408D01*
X255263Y384193D01*
X254237Y383601D01*
X253399Y382763D01*
X252807Y381737D01*
X252500Y380592D01*
Y379408D01*
X252807Y378263D01*
X253399Y377237D01*
X254237Y376399D01*
X255263Y375807D01*
X256408Y375500D01*
X257592D01*
X258737Y375807D01*
X259763Y376399D01*
X260601Y377237D01*
X261193Y378263D01*
X261500Y379408D01*
Y380592D01*
X261193Y381737D01*
X260601Y382763D01*
X259763Y383601D01*
X258737Y384193D01*
X257592Y384500D01*
D02*
G37*
G36*
X333037Y379625D02*
X330146D01*
Y374438D01*
X330523Y374487D01*
X331341Y374826D01*
X332043Y375365D01*
X332582Y376068D01*
X332921Y376886D01*
X333037Y377763D01*
Y379625D01*
D02*
G37*
G36*
X299854Y379625D02*
X296963D01*
Y377763D01*
X297079Y376886D01*
X297418Y376068D01*
X297957Y375365D01*
X298659Y374826D01*
X299477Y374487D01*
X299854Y374438D01*
Y379625D01*
D02*
G37*
G36*
X303746D02*
X300854D01*
Y374438D01*
X301232Y374487D01*
X302050Y374826D01*
X302752Y375365D01*
X303291Y376068D01*
X303630Y376886D01*
X303746Y377763D01*
Y379625D01*
D02*
G37*
G36*
X329146Y379625D02*
X326254D01*
Y377763D01*
X326370Y376886D01*
X326709Y376068D01*
X327248Y375365D01*
X327950Y374826D01*
X328768Y374487D01*
X329146Y374438D01*
Y379625D01*
D02*
G37*
G36*
X123559Y382248D02*
X122441D01*
X121360Y381959D01*
X120392Y381399D01*
X119601Y380608D01*
X119042Y379640D01*
X118752Y378559D01*
Y377441D01*
X119042Y376360D01*
X119601Y375392D01*
X120392Y374601D01*
X121360Y374042D01*
X122441Y373752D01*
X123559D01*
X124640Y374042D01*
X125608Y374601D01*
X126399Y375392D01*
X126959Y376360D01*
X127248Y377441D01*
Y378559D01*
X126959Y379640D01*
X126399Y380608D01*
X125608Y381399D01*
X124640Y381959D01*
X123559Y382248D01*
D02*
G37*
G36*
X37980Y379500D02*
X33500D01*
Y371543D01*
X34289Y371647D01*
X35490Y372144D01*
X36521Y372936D01*
X37312Y373967D01*
X37810Y375168D01*
X37980Y376457D01*
Y379500D01*
D02*
G37*
G36*
X32500D02*
X28020D01*
Y376457D01*
X28190Y375168D01*
X28688Y373967D01*
X29479Y372936D01*
X30510Y372144D01*
X31711Y371647D01*
X32500Y371543D01*
Y379500D01*
D02*
G37*
G36*
X176592Y375500D02*
X176500D01*
Y371500D01*
X180500D01*
Y371592D01*
X180193Y372737D01*
X179601Y373763D01*
X178763Y374601D01*
X177737Y375193D01*
X176592Y375500D01*
D02*
G37*
G36*
X175500D02*
X175408D01*
X174263Y375193D01*
X173237Y374601D01*
X172399Y373763D01*
X171807Y372737D01*
X171500Y371592D01*
Y371500D01*
X175500D01*
Y375500D01*
D02*
G37*
G36*
X56622Y388523D02*
X55333Y388353D01*
X54132Y387856D01*
X53101Y387064D01*
X52310Y386033D01*
X51812Y384832D01*
X51642Y383543D01*
Y376457D01*
X51812Y375168D01*
X52310Y373967D01*
X53101Y372936D01*
X54132Y372144D01*
X55333Y371647D01*
X56622Y371477D01*
X57911Y371647D01*
X59112Y372144D01*
X60143Y372936D01*
X60935Y373967D01*
X61432Y375168D01*
X61602Y376457D01*
Y383543D01*
X61432Y384832D01*
X60935Y386033D01*
X60143Y387064D01*
X59112Y387856D01*
X57911Y388353D01*
X56622Y388523D01*
D02*
G37*
G36*
X257592Y374500D02*
X257500D01*
Y370500D01*
X261500D01*
Y370592D01*
X261193Y371737D01*
X260601Y372763D01*
X259763Y373601D01*
X258737Y374193D01*
X257592Y374500D01*
D02*
G37*
G36*
X256500D02*
X256408D01*
X255263Y374193D01*
X254237Y373601D01*
X253399Y372763D01*
X252807Y371737D01*
X252500Y370592D01*
Y370500D01*
X256500D01*
Y374500D01*
D02*
G37*
G36*
X180500Y370500D02*
X176500D01*
Y366500D01*
X176592D01*
X177737Y366807D01*
X178763Y367399D01*
X179601Y368237D01*
X180193Y369263D01*
X180500Y370408D01*
Y370500D01*
D02*
G37*
G36*
X175500D02*
X171500D01*
Y370408D01*
X171807Y369263D01*
X172399Y368237D01*
X173237Y367399D01*
X174263Y366807D01*
X175408Y366500D01*
X175500D01*
Y370500D01*
D02*
G37*
G36*
X261500Y369500D02*
X257500D01*
Y365500D01*
X257592D01*
X258737Y365807D01*
X259763Y366399D01*
X260601Y367237D01*
X261193Y368263D01*
X261500Y369408D01*
Y369500D01*
D02*
G37*
G36*
X256500D02*
X252500D01*
Y369408D01*
X252807Y368263D01*
X253399Y367237D01*
X254237Y366399D01*
X255263Y365807D01*
X256408Y365500D01*
X256500D01*
Y369500D01*
D02*
G37*
G36*
X318514Y365976D02*
X317629D01*
X316774Y365747D01*
X316007Y365304D01*
X315381Y364678D01*
X315211Y364383D01*
X314633D01*
X314463Y364678D01*
X313837Y365304D01*
X313070Y365747D01*
X312215Y365976D01*
X311330D01*
X310475Y365747D01*
X309708Y365304D01*
X309082Y364678D01*
X308639Y363911D01*
X308410Y363056D01*
Y362171D01*
X308527Y361737D01*
X308180Y361237D01*
X307325Y361008D01*
X306558Y360565D01*
X305932Y359939D01*
X305489Y359172D01*
X305276Y358375D01*
X308623D01*
Y357875D01*
X309122D01*
Y354528D01*
X309920Y354742D01*
X310687Y355184D01*
X311313Y355810D01*
X311483Y356105D01*
X312061D01*
X312231Y355810D01*
X312857Y355184D01*
X313624Y354742D01*
X314479Y354512D01*
X315364D01*
X316219Y354742D01*
X316986Y355184D01*
X317612Y355810D01*
X317782Y356105D01*
X318360D01*
X318530Y355810D01*
X319156Y355184D01*
X319923Y354742D01*
X320778Y354512D01*
X321663D01*
X322518Y354742D01*
X323285Y355184D01*
X323911Y355810D01*
X324354Y356577D01*
X324583Y357432D01*
Y358317D01*
X324354Y359172D01*
X323911Y359939D01*
X323285Y360565D01*
X322518Y361008D01*
X321663Y361237D01*
X321317Y361737D01*
X321434Y362171D01*
Y363056D01*
X321205Y363911D01*
X320762Y364678D01*
X320136Y365304D01*
X319369Y365747D01*
X318514Y365976D01*
D02*
G37*
G36*
X123559Y372248D02*
X122441D01*
X121360Y371958D01*
X120392Y371399D01*
X119601Y370608D01*
X119042Y369640D01*
X118752Y368559D01*
Y367441D01*
X119042Y366360D01*
X119601Y365392D01*
X120392Y364601D01*
X121360Y364041D01*
X122441Y363752D01*
X123559D01*
X124640Y364041D01*
X125608Y364601D01*
X126399Y365392D01*
X126959Y366360D01*
X127248Y367441D01*
Y368559D01*
X126959Y369640D01*
X126399Y370608D01*
X125608Y371399D01*
X124640Y371958D01*
X123559Y372248D01*
D02*
G37*
G36*
X49732Y366275D02*
X47280D01*
Y362193D01*
X54249D01*
X54159Y362879D01*
X53701Y363984D01*
X52973Y364933D01*
X52024Y365662D01*
X50918Y366119D01*
X49732Y366275D01*
D02*
G37*
G36*
X46279D02*
X43827D01*
X42641Y366119D01*
X41535Y365662D01*
X40587Y364933D01*
X39858Y363984D01*
X39400Y362879D01*
X39310Y362193D01*
X46279D01*
Y366275D01*
D02*
G37*
G36*
X300854Y367112D02*
Y361925D01*
X303746D01*
Y363787D01*
X303630Y364665D01*
X303291Y365482D01*
X302752Y366185D01*
X302050Y366724D01*
X301232Y367062D01*
X300854Y367112D01*
D02*
G37*
G36*
X299854Y367112D02*
X299477Y367062D01*
X298659Y366724D01*
X297957Y366185D01*
X297418Y365482D01*
X297079Y364665D01*
X296963Y363787D01*
Y361925D01*
X299854D01*
Y367112D01*
D02*
G37*
G36*
X330146D02*
Y361925D01*
X333037D01*
Y363787D01*
X332921Y364665D01*
X332582Y365482D01*
X332043Y366185D01*
X331341Y366724D01*
X330523Y367062D01*
X330146Y367112D01*
D02*
G37*
G36*
X329146Y367112D02*
X328768Y367062D01*
X327950Y366724D01*
X327248Y366185D01*
X326709Y365482D01*
X326370Y364665D01*
X326254Y363787D01*
Y361925D01*
X329146D01*
Y367112D01*
D02*
G37*
G36*
X176592Y365500D02*
X176500D01*
Y361500D01*
X180500D01*
Y361592D01*
X180193Y362737D01*
X179601Y363763D01*
X178763Y364601D01*
X177737Y365193D01*
X176592Y365500D01*
D02*
G37*
G36*
X175500D02*
X175408D01*
X174263Y365193D01*
X173237Y364601D01*
X172399Y363763D01*
X171807Y362737D01*
X171500Y361592D01*
Y361500D01*
X175500D01*
Y365500D01*
D02*
G37*
G36*
X257592Y364500D02*
X257500D01*
Y360500D01*
X261500D01*
Y360592D01*
X261193Y361737D01*
X260601Y362763D01*
X259763Y363601D01*
X258737Y364193D01*
X257592Y364500D01*
D02*
G37*
G36*
X256500D02*
X256408D01*
X255263Y364193D01*
X254237Y363601D01*
X253399Y362763D01*
X252807Y361737D01*
X252500Y360592D01*
Y360500D01*
X256500D01*
Y364500D01*
D02*
G37*
G36*
X54249Y361193D02*
X47280D01*
Y357110D01*
X49732D01*
X50918Y357267D01*
X52024Y357724D01*
X52973Y358453D01*
X53701Y359402D01*
X54159Y360507D01*
X54249Y361193D01*
D02*
G37*
G36*
X46279D02*
X39310D01*
X39400Y360507D01*
X39858Y359402D01*
X40587Y358453D01*
X41535Y357724D01*
X42641Y357267D01*
X43827Y357110D01*
X46279D01*
Y361193D01*
D02*
G37*
G36*
X180500Y360500D02*
X176500D01*
Y356500D01*
X176592D01*
X177737Y356807D01*
X178763Y357399D01*
X179601Y358237D01*
X180193Y359263D01*
X180500Y360408D01*
Y360500D01*
D02*
G37*
G36*
X175500D02*
X171500D01*
Y360408D01*
X171807Y359263D01*
X172399Y358237D01*
X173237Y357399D01*
X174263Y356807D01*
X175408Y356500D01*
X175500D01*
Y360500D01*
D02*
G37*
G36*
X333037Y360925D02*
X330146D01*
Y355737D01*
X330523Y355787D01*
X331341Y356125D01*
X332043Y356664D01*
X332582Y357367D01*
X332921Y358185D01*
X333037Y359062D01*
Y360925D01*
D02*
G37*
G36*
X299854Y360925D02*
X296963D01*
Y359062D01*
X297079Y358185D01*
X297418Y357367D01*
X297957Y356664D01*
X298659Y356125D01*
X299477Y355787D01*
X299854Y355737D01*
Y360925D01*
D02*
G37*
G36*
X303746D02*
X300854D01*
Y355737D01*
X301232Y355787D01*
X302050Y356125D01*
X302752Y356664D01*
X303291Y357367D01*
X303630Y358185D01*
X303746Y359062D01*
Y360925D01*
D02*
G37*
G36*
X329146Y360925D02*
X326254D01*
Y359062D01*
X326370Y358185D01*
X326709Y357367D01*
X327248Y356664D01*
X327950Y356125D01*
X328768Y355787D01*
X329146Y355737D01*
Y360925D01*
D02*
G37*
G36*
X261500Y359500D02*
X257500D01*
Y355500D01*
X257592D01*
X258737Y355807D01*
X259763Y356399D01*
X260601Y357237D01*
X261193Y358263D01*
X261500Y359408D01*
Y359500D01*
D02*
G37*
G36*
X256500D02*
X252500D01*
Y359408D01*
X252807Y358263D01*
X253399Y357237D01*
X254237Y356399D01*
X255263Y355807D01*
X256408Y355500D01*
X256500D01*
Y359500D01*
D02*
G37*
G36*
X308122Y357375D02*
X305276D01*
X305489Y356577D01*
X305932Y355810D01*
X306558Y355184D01*
X307325Y354742D01*
X308122Y354528D01*
Y357375D01*
D02*
G37*
G36*
X123559Y362248D02*
X122441D01*
X121360Y361959D01*
X120392Y361399D01*
X119601Y360608D01*
X119042Y359640D01*
X118752Y358559D01*
Y357441D01*
X119042Y356360D01*
X119601Y355392D01*
X120392Y354601D01*
X121360Y354042D01*
X122441Y353752D01*
X123559D01*
X124640Y354042D01*
X125608Y354601D01*
X126399Y355392D01*
X126959Y356360D01*
X127248Y357441D01*
Y358559D01*
X126959Y359640D01*
X126399Y360608D01*
X125608Y361399D01*
X124640Y361959D01*
X123559Y362248D01*
D02*
G37*
G36*
X257592Y354500D02*
X257500D01*
Y350500D01*
X261500D01*
Y350592D01*
X261193Y351737D01*
X260601Y352763D01*
X259763Y353601D01*
X258737Y354193D01*
X257592Y354500D01*
D02*
G37*
G36*
X256500D02*
X256408D01*
X255263Y354193D01*
X254237Y353601D01*
X253399Y352763D01*
X252807Y351737D01*
X252500Y350592D01*
Y350500D01*
X256500D01*
Y354500D01*
D02*
G37*
G36*
X176592Y355500D02*
X175408D01*
X174263Y355193D01*
X173237Y354601D01*
X172399Y353763D01*
X171807Y352737D01*
X171500Y351592D01*
Y350408D01*
X171807Y349263D01*
X172399Y348237D01*
X173237Y347399D01*
X174263Y346807D01*
X175408Y346500D01*
X176592D01*
X177737Y346807D01*
X178763Y347399D01*
X179601Y348237D01*
X180193Y349263D01*
X180500Y350408D01*
Y351592D01*
X180193Y352737D01*
X179601Y353763D01*
X178763Y354601D01*
X177737Y355193D01*
X176592Y355500D01*
D02*
G37*
G36*
X261500Y349500D02*
X257500D01*
Y345500D01*
X257592D01*
X258737Y345807D01*
X259763Y346399D01*
X260601Y347237D01*
X261193Y348263D01*
X261500Y349408D01*
Y349500D01*
D02*
G37*
G36*
X256500D02*
X252500D01*
Y349408D01*
X252807Y348263D01*
X253399Y347237D01*
X254237Y346399D01*
X255263Y345807D01*
X256408Y345500D01*
X256500D01*
Y349500D01*
D02*
G37*
G36*
X268448Y344250D02*
X267552D01*
X266725Y343907D01*
X266092Y343274D01*
X265750Y342448D01*
Y341552D01*
X266092Y340725D01*
X266725Y340092D01*
X267552Y339750D01*
X268448D01*
X269274Y340092D01*
X269907Y340725D01*
X270250Y341552D01*
Y342448D01*
X269907Y343274D01*
X269274Y343907D01*
X268448Y344250D01*
D02*
G37*
G36*
X279448Y343250D02*
X278552D01*
X277726Y342908D01*
X277093Y342274D01*
X276750Y341448D01*
Y340552D01*
X277093Y339725D01*
X277726Y339092D01*
X278552Y338750D01*
X279448D01*
X280275Y339092D01*
X280908Y339725D01*
X281250Y340552D01*
Y341448D01*
X280908Y342274D01*
X280275Y342908D01*
X279448Y343250D01*
D02*
G37*
G36*
X31592Y342500D02*
X31500D01*
Y338500D01*
X35500D01*
Y338592D01*
X35193Y339737D01*
X34601Y340763D01*
X33763Y341601D01*
X32737Y342193D01*
X31592Y342500D01*
D02*
G37*
G36*
X21592D02*
X21500D01*
Y338500D01*
X25500D01*
Y338592D01*
X25193Y339737D01*
X24601Y340763D01*
X23763Y341601D01*
X22737Y342193D01*
X21592Y342500D01*
D02*
G37*
G36*
X11592D02*
X11500D01*
Y338500D01*
X15500D01*
Y338592D01*
X15193Y339737D01*
X14601Y340763D01*
X13763Y341601D01*
X12737Y342193D01*
X11592Y342500D01*
D02*
G37*
G36*
X10500D02*
X10408D01*
X9263Y342193D01*
X8237Y341601D01*
X7399Y340763D01*
X6807Y339737D01*
X6500Y338592D01*
Y338500D01*
X10500D01*
Y342500D01*
D02*
G37*
G36*
X30500D02*
X30408D01*
X29263Y342193D01*
X28237Y341601D01*
X27399Y340763D01*
X26807Y339737D01*
X26500Y338592D01*
Y338500D01*
X30500D01*
Y342500D01*
D02*
G37*
G36*
X20500D02*
X20408D01*
X19263Y342193D01*
X18237Y341601D01*
X17399Y340763D01*
X16807Y339737D01*
X16500Y338592D01*
Y338500D01*
X20500D01*
Y342500D01*
D02*
G37*
G36*
X190592Y339500D02*
X190500D01*
Y335500D01*
X194500D01*
Y335592D01*
X194193Y336737D01*
X193601Y337763D01*
X192763Y338601D01*
X191737Y339193D01*
X190592Y339500D01*
D02*
G37*
G36*
X189500D02*
X189408D01*
X188263Y339193D01*
X187237Y338601D01*
X186399Y337763D01*
X185807Y336737D01*
X185500Y335592D01*
Y335500D01*
X189500D01*
Y339500D01*
D02*
G37*
G36*
X180592D02*
X180500D01*
Y335500D01*
X184500D01*
Y335592D01*
X184193Y336737D01*
X183601Y337763D01*
X182763Y338601D01*
X181737Y339193D01*
X180592Y339500D01*
D02*
G37*
G36*
X179500D02*
X179408D01*
X178263Y339193D01*
X177237Y338601D01*
X176399Y337763D01*
X175807Y336737D01*
X175500Y335592D01*
Y335500D01*
X179500D01*
Y339500D01*
D02*
G37*
G36*
X170592D02*
X170500D01*
Y335500D01*
X174500D01*
Y335592D01*
X174193Y336737D01*
X173601Y337763D01*
X172763Y338601D01*
X171737Y339193D01*
X170592Y339500D01*
D02*
G37*
G36*
X169500D02*
X169408D01*
X168263Y339193D01*
X167237Y338601D01*
X166399Y337763D01*
X165807Y336737D01*
X165500Y335592D01*
Y335500D01*
X169500D01*
Y339500D01*
D02*
G37*
G36*
X141592D02*
X141500D01*
Y335500D01*
X145500D01*
Y335592D01*
X145193Y336737D01*
X144601Y337763D01*
X143763Y338601D01*
X142737Y339193D01*
X141592Y339500D01*
D02*
G37*
G36*
X140500D02*
X140408D01*
X139263Y339193D01*
X138237Y338601D01*
X137399Y337763D01*
X136807Y336737D01*
X136500Y335592D01*
Y335500D01*
X140500D01*
Y339500D01*
D02*
G37*
G36*
X131592D02*
X131500D01*
Y335500D01*
X135500D01*
Y335592D01*
X135193Y336737D01*
X134601Y337763D01*
X133763Y338601D01*
X132737Y339193D01*
X131592Y339500D01*
D02*
G37*
G36*
X130500D02*
X130408D01*
X129263Y339193D01*
X128237Y338601D01*
X127399Y337763D01*
X126807Y336737D01*
X126500Y335592D01*
Y335500D01*
X130500D01*
Y339500D01*
D02*
G37*
G36*
X121592D02*
X121500D01*
Y335500D01*
X125500D01*
Y335592D01*
X125193Y336737D01*
X124601Y337763D01*
X123763Y338601D01*
X122737Y339193D01*
X121592Y339500D01*
D02*
G37*
G36*
X120500D02*
X120408D01*
X119263Y339193D01*
X118237Y338601D01*
X117399Y337763D01*
X116807Y336737D01*
X116500Y335592D01*
Y335500D01*
X120500D01*
Y339500D01*
D02*
G37*
G36*
X41592Y342500D02*
X40408D01*
X39263Y342193D01*
X38237Y341601D01*
X37399Y340763D01*
X36807Y339737D01*
X36500Y338592D01*
Y337408D01*
X36807Y336263D01*
X37399Y335237D01*
X38237Y334399D01*
X39263Y333807D01*
X40408Y333500D01*
X41592D01*
X42737Y333807D01*
X43763Y334399D01*
X44601Y335237D01*
X45193Y336263D01*
X45500Y337408D01*
Y338592D01*
X45193Y339737D01*
X44601Y340763D01*
X43763Y341601D01*
X42737Y342193D01*
X41592Y342500D01*
D02*
G37*
G36*
X35500Y337500D02*
X31500D01*
Y333500D01*
X31592D01*
X32737Y333807D01*
X33763Y334399D01*
X34601Y335237D01*
X35193Y336263D01*
X35500Y337408D01*
Y337500D01*
D02*
G37*
G36*
X30500D02*
X26500D01*
Y337408D01*
X26807Y336263D01*
X27399Y335237D01*
X28237Y334399D01*
X29263Y333807D01*
X30408Y333500D01*
X30500D01*
Y337500D01*
D02*
G37*
G36*
X25500D02*
X21500D01*
Y333500D01*
X21592D01*
X22737Y333807D01*
X23763Y334399D01*
X24601Y335237D01*
X25193Y336263D01*
X25500Y337408D01*
Y337500D01*
D02*
G37*
G36*
X20500D02*
X16500D01*
Y337408D01*
X16807Y336263D01*
X17399Y335237D01*
X18237Y334399D01*
X19263Y333807D01*
X20408Y333500D01*
X20500D01*
Y337500D01*
D02*
G37*
G36*
X15500D02*
X11500D01*
Y333500D01*
X11592D01*
X12737Y333807D01*
X13763Y334399D01*
X14601Y335237D01*
X15193Y336263D01*
X15500Y337408D01*
Y337500D01*
D02*
G37*
G36*
X10500D02*
X6500D01*
Y337408D01*
X6807Y336263D01*
X7399Y335237D01*
X8237Y334399D01*
X9263Y333807D01*
X10408Y333500D01*
X10500D01*
Y337500D01*
D02*
G37*
G36*
X194500Y334500D02*
X190500D01*
Y330500D01*
X190592D01*
X191737Y330807D01*
X192763Y331399D01*
X193601Y332237D01*
X194193Y333263D01*
X194500Y334408D01*
Y334500D01*
D02*
G37*
G36*
X189500D02*
X185500D01*
Y334408D01*
X185807Y333263D01*
X186399Y332237D01*
X187237Y331399D01*
X188263Y330807D01*
X189408Y330500D01*
X189500D01*
Y334500D01*
D02*
G37*
G36*
X184500D02*
X180500D01*
Y330500D01*
X180592D01*
X181737Y330807D01*
X182763Y331399D01*
X183601Y332237D01*
X184193Y333263D01*
X184500Y334408D01*
Y334500D01*
D02*
G37*
G36*
X179500D02*
X175500D01*
Y334408D01*
X175807Y333263D01*
X176399Y332237D01*
X177237Y331399D01*
X178263Y330807D01*
X179408Y330500D01*
X179500D01*
Y334500D01*
D02*
G37*
G36*
X174500D02*
X170500D01*
Y330500D01*
X170592D01*
X171737Y330807D01*
X172763Y331399D01*
X173601Y332237D01*
X174193Y333263D01*
X174500Y334408D01*
Y334500D01*
D02*
G37*
G36*
X169500D02*
X165500D01*
Y334408D01*
X165807Y333263D01*
X166399Y332237D01*
X167237Y331399D01*
X168263Y330807D01*
X169408Y330500D01*
X169500D01*
Y334500D01*
D02*
G37*
G36*
X160592Y339500D02*
X159408D01*
X158263Y339193D01*
X157237Y338601D01*
X156399Y337763D01*
X155807Y336737D01*
X155500Y335592D01*
Y334408D01*
X155807Y333263D01*
X156399Y332237D01*
X157237Y331399D01*
X158263Y330807D01*
X159408Y330500D01*
X160592D01*
X161737Y330807D01*
X162763Y331399D01*
X163601Y332237D01*
X164193Y333263D01*
X164500Y334408D01*
Y335592D01*
X164193Y336737D01*
X163601Y337763D01*
X162763Y338601D01*
X161737Y339193D01*
X160592Y339500D01*
D02*
G37*
G36*
X145500Y334500D02*
X141500D01*
Y330500D01*
X141592D01*
X142737Y330807D01*
X143763Y331399D01*
X144601Y332237D01*
X145193Y333263D01*
X145500Y334408D01*
Y334500D01*
D02*
G37*
G36*
X140500D02*
X136500D01*
Y334408D01*
X136807Y333263D01*
X137399Y332237D01*
X138237Y331399D01*
X139263Y330807D01*
X140408Y330500D01*
X140500D01*
Y334500D01*
D02*
G37*
G36*
X135500D02*
X131500D01*
Y330500D01*
X131592D01*
X132737Y330807D01*
X133763Y331399D01*
X134601Y332237D01*
X135193Y333263D01*
X135500Y334408D01*
Y334500D01*
D02*
G37*
G36*
X130500D02*
X126500D01*
Y334408D01*
X126807Y333263D01*
X127399Y332237D01*
X128237Y331399D01*
X129263Y330807D01*
X130408Y330500D01*
X130500D01*
Y334500D01*
D02*
G37*
G36*
X125500D02*
X121500D01*
Y330500D01*
X121592D01*
X122737Y330807D01*
X123763Y331399D01*
X124601Y332237D01*
X125193Y333263D01*
X125500Y334408D01*
Y334500D01*
D02*
G37*
G36*
X120500D02*
X116500D01*
Y334408D01*
X116807Y333263D01*
X117399Y332237D01*
X118237Y331399D01*
X119263Y330807D01*
X120408Y330500D01*
X120500D01*
Y334500D01*
D02*
G37*
G36*
X111592Y339500D02*
X110408D01*
X109263Y339193D01*
X108237Y338601D01*
X107399Y337763D01*
X106807Y336737D01*
X106500Y335592D01*
Y334408D01*
X106807Y333263D01*
X107399Y332237D01*
X108237Y331399D01*
X109263Y330807D01*
X110408Y330500D01*
X111592D01*
X112737Y330807D01*
X113763Y331399D01*
X114601Y332237D01*
X115193Y333263D01*
X115500Y334408D01*
Y335592D01*
X115193Y336737D01*
X114601Y337763D01*
X113763Y338601D01*
X112737Y339193D01*
X111592Y339500D01*
D02*
G37*
G36*
X208448Y334250D02*
X207552D01*
X206726Y333908D01*
X206093Y333275D01*
X205750Y332448D01*
Y331552D01*
X206093Y330726D01*
X206726Y330093D01*
X207552Y329750D01*
X208448D01*
X209275Y330093D01*
X209908Y330726D01*
X210250Y331552D01*
Y332448D01*
X209908Y333275D01*
X209275Y333908D01*
X208448Y334250D01*
D02*
G37*
G36*
X288448Y327250D02*
X287552D01*
X286725Y326907D01*
X286092Y326274D01*
X285750Y325448D01*
Y324552D01*
X286092Y323726D01*
X286725Y323093D01*
X287552Y322750D01*
X288448D01*
X289275Y323093D01*
X289908Y323726D01*
X290250Y324552D01*
Y325448D01*
X289908Y326274D01*
X289275Y326907D01*
X288448Y327250D01*
D02*
G37*
G36*
X376592Y325500D02*
X376500D01*
Y321500D01*
X380500D01*
Y321592D01*
X380193Y322737D01*
X379601Y323763D01*
X378763Y324601D01*
X377737Y325193D01*
X376592Y325500D01*
D02*
G37*
G36*
X375500D02*
X375408D01*
X374263Y325193D01*
X373237Y324601D01*
X372399Y323763D01*
X371807Y322737D01*
X371500Y321592D01*
Y321500D01*
X375500D01*
Y325500D01*
D02*
G37*
G36*
X366592D02*
X366500D01*
Y321500D01*
X370500D01*
Y321592D01*
X370193Y322737D01*
X369601Y323763D01*
X368763Y324601D01*
X367737Y325193D01*
X366592Y325500D01*
D02*
G37*
G36*
X365500D02*
X365408D01*
X364263Y325193D01*
X363237Y324601D01*
X362399Y323763D01*
X361807Y322737D01*
X361500Y321592D01*
Y321500D01*
X365500D01*
Y325500D01*
D02*
G37*
G36*
X356592D02*
X356500D01*
Y321500D01*
X360500D01*
Y321592D01*
X360193Y322737D01*
X359601Y323763D01*
X358763Y324601D01*
X357737Y325193D01*
X356592Y325500D01*
D02*
G37*
G36*
X355500D02*
X355408D01*
X354263Y325193D01*
X353237Y324601D01*
X352399Y323763D01*
X351807Y322737D01*
X351500Y321592D01*
Y321500D01*
X355500D01*
Y325500D01*
D02*
G37*
G36*
X328592Y324500D02*
X328500D01*
Y320500D01*
X332500D01*
Y320592D01*
X332193Y321737D01*
X331601Y322763D01*
X330763Y323601D01*
X329737Y324193D01*
X328592Y324500D01*
D02*
G37*
G36*
X327500D02*
X327408D01*
X326263Y324193D01*
X325237Y323601D01*
X324399Y322763D01*
X323807Y321737D01*
X323500Y320592D01*
Y320500D01*
X327500D01*
Y324500D01*
D02*
G37*
G36*
X318592D02*
X318500D01*
Y320500D01*
X322500D01*
Y320592D01*
X322193Y321737D01*
X321601Y322763D01*
X320763Y323601D01*
X319737Y324193D01*
X318592Y324500D01*
D02*
G37*
G36*
X317500D02*
X317408D01*
X316263Y324193D01*
X315237Y323601D01*
X314399Y322763D01*
X313807Y321737D01*
X313500Y320592D01*
Y320500D01*
X317500D01*
Y324500D01*
D02*
G37*
G36*
X308592D02*
X308500D01*
Y320500D01*
X312500D01*
Y320592D01*
X312193Y321737D01*
X311601Y322763D01*
X310763Y323601D01*
X309737Y324193D01*
X308592Y324500D01*
D02*
G37*
G36*
X307500D02*
X307408D01*
X306263Y324193D01*
X305237Y323601D01*
X304399Y322763D01*
X303807Y321737D01*
X303500Y320592D01*
Y320500D01*
X307500D01*
Y324500D01*
D02*
G37*
G36*
X380500Y320500D02*
X376500D01*
Y316500D01*
X376592D01*
X377737Y316807D01*
X378763Y317399D01*
X379601Y318237D01*
X380193Y319263D01*
X380500Y320408D01*
Y320500D01*
D02*
G37*
G36*
X375500D02*
X371500D01*
Y320408D01*
X371807Y319263D01*
X372399Y318237D01*
X373237Y317399D01*
X374263Y316807D01*
X375408Y316500D01*
X375500D01*
Y320500D01*
D02*
G37*
G36*
X370500D02*
X366500D01*
Y316500D01*
X366592D01*
X367737Y316807D01*
X368763Y317399D01*
X369601Y318237D01*
X370193Y319263D01*
X370500Y320408D01*
Y320500D01*
D02*
G37*
G36*
X365500D02*
X361500D01*
Y320408D01*
X361807Y319263D01*
X362399Y318237D01*
X363237Y317399D01*
X364263Y316807D01*
X365408Y316500D01*
X365500D01*
Y320500D01*
D02*
G37*
G36*
X360500D02*
X356500D01*
Y316500D01*
X356592D01*
X357737Y316807D01*
X358763Y317399D01*
X359601Y318237D01*
X360193Y319263D01*
X360500Y320408D01*
Y320500D01*
D02*
G37*
G36*
X355500D02*
X351500D01*
Y320408D01*
X351807Y319263D01*
X352399Y318237D01*
X353237Y317399D01*
X354263Y316807D01*
X355408Y316500D01*
X355500D01*
Y320500D01*
D02*
G37*
G36*
X346592Y325500D02*
X345408D01*
X344263Y325193D01*
X343237Y324601D01*
X342399Y323763D01*
X341807Y322737D01*
X341500Y321592D01*
Y320408D01*
X341807Y319263D01*
X342399Y318237D01*
X343237Y317399D01*
X344263Y316807D01*
X345408Y316500D01*
X346592D01*
X347737Y316807D01*
X348763Y317399D01*
X349601Y318237D01*
X350193Y319263D01*
X350500Y320408D01*
Y321592D01*
X350193Y322737D01*
X349601Y323763D01*
X348763Y324601D01*
X347737Y325193D01*
X346592Y325500D01*
D02*
G37*
G36*
X283448Y320250D02*
X282552D01*
X281726Y319907D01*
X281093Y319274D01*
X280750Y318448D01*
Y317552D01*
X281093Y316725D01*
X281726Y316092D01*
X282552Y315750D01*
X283448D01*
X284275Y316092D01*
X284908Y316725D01*
X285250Y317552D01*
Y318448D01*
X284908Y319274D01*
X284275Y319907D01*
X283448Y320250D01*
D02*
G37*
G36*
X332500Y319500D02*
X328500D01*
Y315500D01*
X328592D01*
X329737Y315807D01*
X330763Y316399D01*
X331601Y317237D01*
X332193Y318263D01*
X332500Y319408D01*
Y319500D01*
D02*
G37*
G36*
X327500D02*
X323500D01*
Y319408D01*
X323807Y318263D01*
X324399Y317237D01*
X325237Y316399D01*
X326263Y315807D01*
X327408Y315500D01*
X327500D01*
Y319500D01*
D02*
G37*
G36*
X322500D02*
X318500D01*
Y315500D01*
X318592D01*
X319737Y315807D01*
X320763Y316399D01*
X321601Y317237D01*
X322193Y318263D01*
X322500Y319408D01*
Y319500D01*
D02*
G37*
G36*
X317500D02*
X313500D01*
Y319408D01*
X313807Y318263D01*
X314399Y317237D01*
X315237Y316399D01*
X316263Y315807D01*
X317408Y315500D01*
X317500D01*
Y319500D01*
D02*
G37*
G36*
X312500D02*
X308500D01*
Y315500D01*
X308592D01*
X309737Y315807D01*
X310763Y316399D01*
X311601Y317237D01*
X312193Y318263D01*
X312500Y319408D01*
Y319500D01*
D02*
G37*
G36*
X307500D02*
X303500D01*
Y319408D01*
X303807Y318263D01*
X304399Y317237D01*
X305237Y316399D01*
X306263Y315807D01*
X307408Y315500D01*
X307500D01*
Y319500D01*
D02*
G37*
G36*
X298592Y324500D02*
X297408D01*
X296263Y324193D01*
X295237Y323601D01*
X294399Y322763D01*
X293807Y321737D01*
X293500Y320592D01*
Y319408D01*
X293807Y318263D01*
X294399Y317237D01*
X295237Y316399D01*
X296263Y315807D01*
X297408Y315500D01*
X298592D01*
X299737Y315807D01*
X300763Y316399D01*
X301601Y317237D01*
X302193Y318263D01*
X302500Y319408D01*
Y320592D01*
X302193Y321737D01*
X301601Y322763D01*
X300763Y323601D01*
X299737Y324193D01*
X298592Y324500D01*
D02*
G37*
G36*
X140592Y317500D02*
X140500D01*
Y313500D01*
X144500D01*
Y313592D01*
X144193Y314737D01*
X143601Y315763D01*
X142763Y316601D01*
X141737Y317193D01*
X140592Y317500D01*
D02*
G37*
G36*
X139500D02*
X139408D01*
X138263Y317193D01*
X137237Y316601D01*
X136399Y315763D01*
X135807Y314737D01*
X135500Y313592D01*
Y313500D01*
X139500D01*
Y317500D01*
D02*
G37*
G36*
X130592D02*
X130500D01*
Y313500D01*
X134500D01*
Y313592D01*
X134193Y314737D01*
X133601Y315763D01*
X132763Y316601D01*
X131737Y317193D01*
X130592Y317500D01*
D02*
G37*
G36*
X129500D02*
X129408D01*
X128263Y317193D01*
X127237Y316601D01*
X126399Y315763D01*
X125807Y314737D01*
X125500Y313592D01*
Y313500D01*
X129500D01*
Y317500D01*
D02*
G37*
G36*
X120592D02*
X120500D01*
Y313500D01*
X124500D01*
Y313592D01*
X124193Y314737D01*
X123601Y315763D01*
X122763Y316601D01*
X121737Y317193D01*
X120592Y317500D01*
D02*
G37*
G36*
X119500D02*
X119408D01*
X118263Y317193D01*
X117237Y316601D01*
X116399Y315763D01*
X115807Y314737D01*
X115500Y313592D01*
Y313500D01*
X119500D01*
Y317500D01*
D02*
G37*
G36*
X82592Y322500D02*
X81408D01*
X80263Y322193D01*
X79237Y321601D01*
X78399Y320763D01*
X77807Y319737D01*
X77500Y318592D01*
Y317408D01*
X77807Y316263D01*
X78399Y315237D01*
X79237Y314399D01*
X80263Y313807D01*
X81408Y313500D01*
X82592D01*
X83737Y313807D01*
X84763Y314399D01*
X85601Y315237D01*
X86193Y316263D01*
X86500Y317408D01*
Y318592D01*
X86193Y319737D01*
X85601Y320763D01*
X84763Y321601D01*
X83737Y322193D01*
X82592Y322500D01*
D02*
G37*
G36*
X338448Y316250D02*
X337552D01*
X336725Y315908D01*
X336092Y315275D01*
X335750Y314448D01*
Y313552D01*
X336092Y312725D01*
X336725Y312092D01*
X337552Y311750D01*
X338448D01*
X339275Y312092D01*
X339908Y312725D01*
X340250Y313552D01*
Y314448D01*
X339908Y315275D01*
X339275Y315908D01*
X338448Y316250D01*
D02*
G37*
G36*
X82592Y312500D02*
X82500D01*
Y308500D01*
X86500D01*
Y308592D01*
X86193Y309737D01*
X85601Y310763D01*
X84763Y311601D01*
X83737Y312193D01*
X82592Y312500D01*
D02*
G37*
G36*
X144500D02*
X140500D01*
Y308500D01*
X140592D01*
X141737Y308807D01*
X142763Y309399D01*
X143601Y310237D01*
X144193Y311263D01*
X144500Y312408D01*
Y312500D01*
D02*
G37*
G36*
X139500D02*
X135500D01*
Y312408D01*
X135807Y311263D01*
X136399Y310237D01*
X137237Y309399D01*
X138263Y308807D01*
X139408Y308500D01*
X139500D01*
Y312500D01*
D02*
G37*
G36*
X134500D02*
X130500D01*
Y308500D01*
X130592D01*
X131737Y308807D01*
X132763Y309399D01*
X133601Y310237D01*
X134193Y311263D01*
X134500Y312408D01*
Y312500D01*
D02*
G37*
G36*
X129500D02*
X125500D01*
Y312408D01*
X125807Y311263D01*
X126399Y310237D01*
X127237Y309399D01*
X128263Y308807D01*
X129408Y308500D01*
X129500D01*
Y312500D01*
D02*
G37*
G36*
X124500D02*
X120500D01*
Y308500D01*
X120592D01*
X121737Y308807D01*
X122763Y309399D01*
X123601Y310237D01*
X124193Y311263D01*
X124500Y312408D01*
Y312500D01*
D02*
G37*
G36*
X119500D02*
X115500D01*
Y312408D01*
X115807Y311263D01*
X116399Y310237D01*
X117237Y309399D01*
X118263Y308807D01*
X119408Y308500D01*
X119500D01*
Y312500D01*
D02*
G37*
G36*
X110592Y317500D02*
X109408D01*
X108263Y317193D01*
X107237Y316601D01*
X106399Y315763D01*
X105807Y314737D01*
X105500Y313592D01*
Y312408D01*
X105807Y311263D01*
X106399Y310237D01*
X107237Y309399D01*
X108263Y308807D01*
X109408Y308500D01*
X110592D01*
X111737Y308807D01*
X112763Y309399D01*
X113601Y310237D01*
X114193Y311263D01*
X114500Y312408D01*
Y313592D01*
X114193Y314737D01*
X113601Y315763D01*
X112763Y316601D01*
X111737Y317193D01*
X110592Y317500D01*
D02*
G37*
G36*
X81500Y312500D02*
X81408D01*
X80263Y312193D01*
X79237Y311601D01*
X78399Y310763D01*
X77807Y309737D01*
X77500Y308592D01*
Y308500D01*
X81500D01*
Y312500D01*
D02*
G37*
G36*
X338448Y309250D02*
X337552D01*
X336725Y308908D01*
X336092Y308275D01*
X335750Y307448D01*
Y306552D01*
X336092Y305726D01*
X336725Y305093D01*
X337552Y304750D01*
X338448D01*
X339275Y305093D01*
X339908Y305726D01*
X340250Y306552D01*
Y307448D01*
X339908Y308275D01*
X339275Y308908D01*
X338448Y309250D01*
D02*
G37*
G36*
X207448D02*
X206552D01*
X205726Y308908D01*
X205093Y308275D01*
X204750Y307448D01*
Y306552D01*
X205093Y305726D01*
X205726Y305093D01*
X206552Y304750D01*
X207448D01*
X208275Y305093D01*
X208908Y305726D01*
X209250Y306552D01*
Y307448D01*
X208908Y308275D01*
X208275Y308908D01*
X207448Y309250D01*
D02*
G37*
G36*
X34500Y312457D02*
Y304500D01*
X38980D01*
Y307543D01*
X38810Y308832D01*
X38313Y310033D01*
X37521Y311064D01*
X36490Y311856D01*
X35289Y312353D01*
X34500Y312457D01*
D02*
G37*
G36*
X33500D02*
X32711Y312353D01*
X31510Y311856D01*
X30479Y311064D01*
X29688Y310033D01*
X29190Y308832D01*
X29020Y307543D01*
Y304500D01*
X33500D01*
Y312457D01*
D02*
G37*
G36*
X86500Y307500D02*
X82500D01*
Y303500D01*
X82592D01*
X83737Y303807D01*
X84763Y304399D01*
X85601Y305237D01*
X86193Y306263D01*
X86500Y307408D01*
Y307500D01*
D02*
G37*
G36*
X81500D02*
X77500D01*
Y307408D01*
X77807Y306263D01*
X78399Y305237D01*
X79237Y304399D01*
X80263Y303807D01*
X81408Y303500D01*
X81500D01*
Y307500D01*
D02*
G37*
G36*
X283448Y306000D02*
X282552D01*
X281726Y305658D01*
X281093Y305025D01*
X280750Y304198D01*
Y303302D01*
X281093Y302476D01*
X281726Y301842D01*
X282552Y301500D01*
X283448D01*
X284275Y301842D01*
X284908Y302476D01*
X285250Y303302D01*
Y304198D01*
X284908Y305025D01*
X284275Y305658D01*
X283448Y306000D01*
D02*
G37*
G36*
X269448Y304250D02*
X268552D01*
X267725Y303907D01*
X267092Y303274D01*
X266750Y302448D01*
Y301552D01*
X267092Y300726D01*
X267725Y300093D01*
X268552Y299750D01*
X269448D01*
X270274Y300093D01*
X270907Y300726D01*
X271250Y301552D01*
Y302448D01*
X270907Y303274D01*
X270274Y303907D01*
X269448Y304250D01*
D02*
G37*
G36*
X82592Y302500D02*
X82500D01*
Y298500D01*
X86500D01*
Y298592D01*
X86193Y299737D01*
X85601Y300763D01*
X84763Y301601D01*
X83737Y302193D01*
X82592Y302500D01*
D02*
G37*
G36*
X81500D02*
X81408D01*
X80263Y302193D01*
X79237Y301601D01*
X78399Y300763D01*
X77807Y299737D01*
X77500Y298592D01*
Y298500D01*
X81500D01*
Y302500D01*
D02*
G37*
G36*
X38980Y303500D02*
X34500D01*
Y295543D01*
X35289Y295647D01*
X36490Y296144D01*
X37521Y296936D01*
X38313Y297967D01*
X38810Y299168D01*
X38980Y300457D01*
Y303500D01*
D02*
G37*
G36*
X33500D02*
X29020D01*
Y300457D01*
X29190Y299168D01*
X29688Y297967D01*
X30479Y296936D01*
X31510Y296144D01*
X32711Y295647D01*
X33500Y295543D01*
Y303500D01*
D02*
G37*
G36*
X57622Y312523D02*
X56333Y312353D01*
X55132Y311856D01*
X54101Y311064D01*
X53310Y310033D01*
X52812Y308832D01*
X52642Y307543D01*
Y300457D01*
X52812Y299168D01*
X53310Y297967D01*
X54101Y296936D01*
X55132Y296144D01*
X56333Y295647D01*
X57622Y295477D01*
X58911Y295647D01*
X60112Y296144D01*
X61143Y296936D01*
X61935Y297967D01*
X62432Y299168D01*
X62602Y300457D01*
Y307543D01*
X62432Y308832D01*
X61935Y310033D01*
X61143Y311064D01*
X60112Y311856D01*
X58911Y312353D01*
X57622Y312523D01*
D02*
G37*
G36*
X283448Y298250D02*
X282552D01*
X281726Y297907D01*
X281093Y297274D01*
X280750Y296448D01*
Y295552D01*
X281093Y294725D01*
X281726Y294092D01*
X282552Y293750D01*
X283448D01*
X284275Y294092D01*
X284908Y294725D01*
X285250Y295552D01*
Y296448D01*
X284908Y297274D01*
X284275Y297907D01*
X283448Y298250D01*
D02*
G37*
G36*
X267448D02*
X266552D01*
X265725Y297907D01*
X265092Y297274D01*
X264750Y296448D01*
Y295552D01*
X265092Y294725D01*
X265725Y294092D01*
X266552Y293750D01*
X267448D01*
X268274Y294092D01*
X268907Y294725D01*
X269250Y295552D01*
Y296448D01*
X268907Y297274D01*
X268274Y297907D01*
X267448Y298250D01*
D02*
G37*
G36*
X86500Y297500D02*
X82500D01*
Y293500D01*
X82592D01*
X83737Y293807D01*
X84763Y294399D01*
X85601Y295237D01*
X86193Y296263D01*
X86500Y297408D01*
Y297500D01*
D02*
G37*
G36*
X81500D02*
X77500D01*
Y297408D01*
X77807Y296263D01*
X78399Y295237D01*
X79237Y294399D01*
X80263Y293807D01*
X81408Y293500D01*
X81500D01*
Y297500D01*
D02*
G37*
G36*
X82592Y292500D02*
X82500D01*
Y288500D01*
X86500D01*
Y288592D01*
X86193Y289737D01*
X85601Y290763D01*
X84763Y291601D01*
X83737Y292193D01*
X82592Y292500D01*
D02*
G37*
G36*
X81500D02*
X81408D01*
X80263Y292193D01*
X79237Y291601D01*
X78399Y290763D01*
X77807Y289737D01*
X77500Y288592D01*
Y288500D01*
X81500D01*
Y292500D01*
D02*
G37*
G36*
X110592Y296500D02*
X109408D01*
X108263Y296193D01*
X107237Y295601D01*
X106399Y294763D01*
X105807Y293737D01*
X105500Y292592D01*
Y291408D01*
X105807Y290263D01*
X106399Y289237D01*
X107237Y288399D01*
X108263Y287807D01*
X109408Y287500D01*
X110592D01*
X111737Y287807D01*
X112763Y288399D01*
X113601Y289237D01*
X114193Y290263D01*
X114500Y291408D01*
Y292592D01*
X114193Y293737D01*
X113601Y294763D01*
X112763Y295601D01*
X111737Y296193D01*
X110592Y296500D01*
D02*
G37*
G36*
X50732Y290275D02*
X48280D01*
Y286193D01*
X55249D01*
X55159Y286879D01*
X54701Y287984D01*
X53973Y288933D01*
X53023Y289662D01*
X51918Y290119D01*
X50732Y290275D01*
D02*
G37*
G36*
X47280D02*
X44827D01*
X43641Y290119D01*
X42535Y289662D01*
X41587Y288933D01*
X40858Y287984D01*
X40400Y286879D01*
X40310Y286193D01*
X47280D01*
Y290275D01*
D02*
G37*
G36*
X86500Y287500D02*
X82500D01*
Y283500D01*
X82592D01*
X83737Y283807D01*
X84763Y284399D01*
X85601Y285237D01*
X86193Y286263D01*
X86500Y287408D01*
Y287500D01*
D02*
G37*
G36*
X81500D02*
X77500D01*
Y287408D01*
X77807Y286263D01*
X78399Y285237D01*
X79237Y284399D01*
X80263Y283807D01*
X81408Y283500D01*
X81500D01*
Y287500D01*
D02*
G37*
G36*
X110592Y286500D02*
X110500D01*
Y282500D01*
X114500D01*
Y282592D01*
X114193Y283737D01*
X113601Y284763D01*
X112763Y285601D01*
X111737Y286193D01*
X110592Y286500D01*
D02*
G37*
G36*
X109500D02*
X109408D01*
X108263Y286193D01*
X107237Y285601D01*
X106399Y284763D01*
X105807Y283737D01*
X105500Y282592D01*
Y282500D01*
X109500D01*
Y286500D01*
D02*
G37*
G36*
X55249Y285193D02*
X48280D01*
Y281110D01*
X50732D01*
X51918Y281267D01*
X53023Y281724D01*
X53973Y282453D01*
X54701Y283402D01*
X55159Y284507D01*
X55249Y285193D01*
D02*
G37*
G36*
X47280D02*
X40310D01*
X40400Y284507D01*
X40858Y283402D01*
X41587Y282453D01*
X42535Y281724D01*
X43641Y281267D01*
X44827Y281110D01*
X47280D01*
Y285193D01*
D02*
G37*
G36*
X114500Y281500D02*
X110500D01*
Y277500D01*
X110592D01*
X111737Y277807D01*
X112763Y278399D01*
X113601Y279237D01*
X114193Y280263D01*
X114500Y281408D01*
Y281500D01*
D02*
G37*
G36*
X109500D02*
X105500D01*
Y281408D01*
X105807Y280263D01*
X106399Y279237D01*
X107237Y278399D01*
X108263Y277807D01*
X109408Y277500D01*
X109500D01*
Y281500D01*
D02*
G37*
G36*
X110592Y276500D02*
X110500D01*
Y272500D01*
X114500D01*
Y272592D01*
X114193Y273737D01*
X113601Y274763D01*
X112763Y275601D01*
X111737Y276193D01*
X110592Y276500D01*
D02*
G37*
G36*
X109500D02*
X109408D01*
X108263Y276193D01*
X107237Y275601D01*
X106399Y274763D01*
X105807Y273737D01*
X105500Y272592D01*
Y272500D01*
X109500D01*
Y276500D01*
D02*
G37*
G36*
X114500Y271500D02*
X110500D01*
Y267500D01*
X110592D01*
X111737Y267807D01*
X112763Y268399D01*
X113601Y269237D01*
X114193Y270263D01*
X114500Y271408D01*
Y271500D01*
D02*
G37*
G36*
X109500D02*
X105500D01*
Y271408D01*
X105807Y270263D01*
X106399Y269237D01*
X107237Y268399D01*
X108263Y267807D01*
X109408Y267500D01*
X109500D01*
Y271500D01*
D02*
G37*
G36*
X110592Y266500D02*
X110500D01*
Y262500D01*
X114500D01*
Y262592D01*
X114193Y263737D01*
X113601Y264763D01*
X112763Y265601D01*
X111737Y266193D01*
X110592Y266500D01*
D02*
G37*
G36*
X109500D02*
X109408D01*
X108263Y266193D01*
X107237Y265601D01*
X106399Y264763D01*
X105807Y263737D01*
X105500Y262592D01*
Y262500D01*
X109500D01*
Y266500D01*
D02*
G37*
G36*
X114500Y261500D02*
X110500D01*
Y257500D01*
X110592D01*
X111737Y257807D01*
X112763Y258399D01*
X113601Y259237D01*
X114193Y260263D01*
X114500Y261408D01*
Y261500D01*
D02*
G37*
G36*
X109500D02*
X105500D01*
Y261408D01*
X105807Y260263D01*
X106399Y259237D01*
X107237Y258399D01*
X108263Y257807D01*
X109408Y257500D01*
X109500D01*
Y261500D01*
D02*
G37*
G36*
X45559Y264248D02*
X44441D01*
X43360Y263959D01*
X42392Y263399D01*
X41601Y262608D01*
X41041Y261640D01*
X40752Y260559D01*
Y259441D01*
X41041Y258360D01*
X41601Y257392D01*
X42392Y256601D01*
X43360Y256042D01*
X44441Y255752D01*
X45559D01*
X46640Y256042D01*
X47608Y256601D01*
X48399Y257392D01*
X48959Y258360D01*
X49248Y259441D01*
Y260559D01*
X48959Y261640D01*
X48399Y262608D01*
X47608Y263399D01*
X46640Y263959D01*
X45559Y264248D01*
D02*
G37*
G36*
X35559D02*
X34441D01*
X33360Y263959D01*
X32392Y263399D01*
X31601Y262608D01*
X31041Y261640D01*
X30752Y260559D01*
Y259441D01*
X31041Y258360D01*
X31601Y257392D01*
X32392Y256601D01*
X33360Y256042D01*
X34441Y255752D01*
X35559D01*
X36640Y256042D01*
X37608Y256601D01*
X38399Y257392D01*
X38958Y258360D01*
X39248Y259441D01*
Y260559D01*
X38958Y261640D01*
X38399Y262608D01*
X37608Y263399D01*
X36640Y263959D01*
X35559Y264248D01*
D02*
G37*
G36*
X25559D02*
X24441D01*
X23360Y263959D01*
X22392Y263399D01*
X21601Y262608D01*
X21042Y261640D01*
X20752Y260559D01*
Y259441D01*
X21042Y258360D01*
X21601Y257392D01*
X22392Y256601D01*
X23360Y256042D01*
X24441Y255752D01*
X25559D01*
X26640Y256042D01*
X27608Y256601D01*
X28399Y257392D01*
X28958Y258360D01*
X29248Y259441D01*
Y260559D01*
X28958Y261640D01*
X28399Y262608D01*
X27608Y263399D01*
X26640Y263959D01*
X25559Y264248D01*
D02*
G37*
G36*
X45448Y254250D02*
X44552D01*
X43725Y253907D01*
X43093Y253274D01*
X42750Y252448D01*
Y251552D01*
X43093Y250726D01*
X43725Y250093D01*
X44552Y249750D01*
X45448D01*
X46275Y250093D01*
X46907Y250726D01*
X47250Y251552D01*
Y252448D01*
X46907Y253274D01*
X46275Y253907D01*
X45448Y254250D01*
D02*
G37*
G36*
X114448Y250250D02*
X113552D01*
X112725Y249907D01*
X112092Y249274D01*
X111750Y248448D01*
Y247552D01*
X112092Y246726D01*
X112725Y246093D01*
X113552Y245750D01*
X114448D01*
X115275Y246093D01*
X115908Y246726D01*
X116250Y247552D01*
Y248448D01*
X115908Y249274D01*
X115275Y249907D01*
X114448Y250250D01*
D02*
G37*
G36*
X16650Y249827D02*
X15350D01*
X14094Y249490D01*
X12969Y248840D01*
X12049Y247921D01*
X11400Y246795D01*
X11063Y245540D01*
Y244240D01*
X11400Y242984D01*
X12049Y241858D01*
X12969Y240939D01*
X14094Y240289D01*
X15350Y239953D01*
X16650D01*
X17906Y240289D01*
X19031Y240939D01*
X19951Y241858D01*
X20601Y242984D01*
X20937Y244240D01*
Y245540D01*
X20601Y246795D01*
X19951Y247921D01*
X19031Y248840D01*
X17906Y249490D01*
X16650Y249827D01*
D02*
G37*
G36*
X57448Y241250D02*
X56552D01*
X55726Y240908D01*
X55093Y240275D01*
X54750Y239448D01*
Y238552D01*
X55093Y237725D01*
X55726Y237092D01*
X56552Y236750D01*
X57448D01*
X58275Y237092D01*
X58908Y237725D01*
X59250Y238552D01*
Y239448D01*
X58908Y240275D01*
X58275Y240908D01*
X57448Y241250D01*
D02*
G37*
G36*
X127448Y240250D02*
X126552D01*
X125725Y239908D01*
X125092Y239275D01*
X124750Y238448D01*
Y237552D01*
X125092Y236725D01*
X125725Y236092D01*
X126552Y235750D01*
X127448D01*
X128275Y236092D01*
X128908Y236725D01*
X129250Y237552D01*
Y238448D01*
X128908Y239275D01*
X128275Y239908D01*
X127448Y240250D01*
D02*
G37*
G36*
X62448D02*
X61552D01*
X60725Y239908D01*
X60093Y239275D01*
X59750Y238448D01*
Y237552D01*
X60093Y236725D01*
X60725Y236092D01*
X61552Y235750D01*
X62448D01*
X63275Y236092D01*
X63907Y236725D01*
X64250Y237552D01*
Y238448D01*
X63907Y239275D01*
X63275Y239908D01*
X62448Y240250D01*
D02*
G37*
G36*
X140448Y239250D02*
X139552D01*
X138725Y238908D01*
X138093Y238275D01*
X137750Y237448D01*
Y236552D01*
X138093Y235725D01*
X138725Y235092D01*
X139552Y234750D01*
X140448D01*
X141274Y235092D01*
X141908Y235725D01*
X142250Y236552D01*
Y237448D01*
X141908Y238275D01*
X141274Y238908D01*
X140448Y239250D01*
D02*
G37*
G36*
X311592Y243500D02*
X310408D01*
X309263Y243193D01*
X308237Y242601D01*
X307399Y241763D01*
X306807Y240737D01*
X306500Y239592D01*
Y238408D01*
X306807Y237263D01*
X307399Y236237D01*
X308237Y235399D01*
X309263Y234807D01*
X310408Y234500D01*
X311592D01*
X312737Y234807D01*
X313763Y235399D01*
X314601Y236237D01*
X315193Y237263D01*
X315500Y238408D01*
Y239592D01*
X315193Y240737D01*
X314601Y241763D01*
X313763Y242601D01*
X312737Y243193D01*
X311592Y243500D01*
D02*
G37*
G36*
X301592D02*
X300408D01*
X299263Y243193D01*
X298237Y242601D01*
X297399Y241763D01*
X296807Y240737D01*
X296500Y239592D01*
Y238408D01*
X296807Y237263D01*
X297399Y236237D01*
X298237Y235399D01*
X299263Y234807D01*
X300408Y234500D01*
X301592D01*
X302737Y234807D01*
X303763Y235399D01*
X304601Y236237D01*
X305193Y237263D01*
X305500Y238408D01*
Y239592D01*
X305193Y240737D01*
X304601Y241763D01*
X303763Y242601D01*
X302737Y243193D01*
X301592Y243500D01*
D02*
G37*
G36*
X49448Y237250D02*
X48552D01*
X47725Y236908D01*
X47093Y236275D01*
X46750Y235448D01*
Y234552D01*
X47093Y233726D01*
X47725Y233092D01*
X48552Y232750D01*
X49448D01*
X50274Y233092D01*
X50907Y233726D01*
X51250Y234552D01*
Y235448D01*
X50907Y236275D01*
X50274Y236908D01*
X49448Y237250D01*
D02*
G37*
G36*
X16650Y236047D02*
X16500D01*
Y231610D01*
X20937D01*
Y231760D01*
X20601Y233016D01*
X19951Y234142D01*
X19031Y235061D01*
X17906Y235711D01*
X16650Y236047D01*
D02*
G37*
G36*
X15500D02*
X15350D01*
X14094Y235711D01*
X12969Y235061D01*
X12049Y234142D01*
X11400Y233016D01*
X11063Y231760D01*
Y231610D01*
X15500D01*
Y236047D01*
D02*
G37*
G36*
X20937Y230610D02*
X16500D01*
Y226173D01*
X16650D01*
X17906Y226510D01*
X19031Y227160D01*
X19951Y228079D01*
X20601Y229205D01*
X20937Y230460D01*
Y230610D01*
D02*
G37*
G36*
X15500D02*
X11063D01*
Y230460D01*
X11400Y229205D01*
X12049Y228079D01*
X12969Y227160D01*
X14094Y226510D01*
X15350Y226173D01*
X15500D01*
Y230610D01*
D02*
G37*
G36*
X132552Y234189D02*
X131448D01*
X130383Y233904D01*
X129428Y233352D01*
X128648Y232572D01*
X128096Y231617D01*
X127811Y230552D01*
Y229449D01*
X128096Y228383D01*
X128648Y227428D01*
X129428Y226648D01*
X130383Y226097D01*
X131448Y225811D01*
X132552D01*
X133617Y226097D01*
X134572Y226648D01*
X135352Y227428D01*
X135904Y228383D01*
X136189Y229449D01*
Y230552D01*
X135904Y231617D01*
X135352Y232572D01*
X134572Y233352D01*
X133617Y233904D01*
X132552Y234189D01*
D02*
G37*
G36*
X311592Y233500D02*
X310408D01*
X309263Y233193D01*
X308237Y232601D01*
X307399Y231763D01*
X306807Y230737D01*
X306500Y229592D01*
Y228408D01*
X306807Y227263D01*
X307399Y226237D01*
X308237Y225399D01*
X309263Y224807D01*
X310408Y224500D01*
X311592D01*
X312737Y224807D01*
X313763Y225399D01*
X314601Y226237D01*
X315193Y227263D01*
X315500Y228408D01*
Y229592D01*
X315193Y230737D01*
X314601Y231763D01*
X313763Y232601D01*
X312737Y233193D01*
X311592Y233500D01*
D02*
G37*
G36*
X301592D02*
X300408D01*
X299263Y233193D01*
X298237Y232601D01*
X297399Y231763D01*
X296807Y230737D01*
X296500Y229592D01*
Y228408D01*
X296807Y227263D01*
X297399Y226237D01*
X298237Y225399D01*
X299263Y224807D01*
X300408Y224500D01*
X301592D01*
X302737Y224807D01*
X303763Y225399D01*
X304601Y226237D01*
X305193Y227263D01*
X305500Y228408D01*
Y229592D01*
X305193Y230737D01*
X304601Y231763D01*
X303763Y232601D01*
X302737Y233193D01*
X301592Y233500D01*
D02*
G37*
G36*
X311592Y223500D02*
X311500D01*
Y219500D01*
X315500D01*
Y219592D01*
X315193Y220737D01*
X314601Y221763D01*
X313763Y222601D01*
X312737Y223193D01*
X311592Y223500D01*
D02*
G37*
G36*
X310500D02*
X310408D01*
X309263Y223193D01*
X308237Y222601D01*
X307399Y221763D01*
X306807Y220737D01*
X306500Y219592D01*
Y219500D01*
X310500D01*
Y223500D01*
D02*
G37*
G36*
X132552Y224189D02*
X131448D01*
X130383Y223903D01*
X129428Y223352D01*
X128648Y222572D01*
X128096Y221617D01*
X127811Y220551D01*
Y219448D01*
X128096Y218383D01*
X128648Y217428D01*
X129428Y216648D01*
X130383Y216096D01*
X131448Y215811D01*
X132552D01*
X133617Y216096D01*
X134572Y216648D01*
X135352Y217428D01*
X135904Y218383D01*
X136189Y219448D01*
Y220551D01*
X135904Y221617D01*
X135352Y222572D01*
X134572Y223352D01*
X133617Y223903D01*
X132552Y224189D01*
D02*
G37*
G36*
X315500Y218500D02*
X311500D01*
Y214500D01*
X311592D01*
X312737Y214807D01*
X313763Y215399D01*
X314601Y216237D01*
X315193Y217263D01*
X315500Y218408D01*
Y218500D01*
D02*
G37*
G36*
X310500D02*
X306500D01*
Y218408D01*
X306807Y217263D01*
X307399Y216237D01*
X308237Y215399D01*
X309263Y214807D01*
X310408Y214500D01*
X310500D01*
Y218500D01*
D02*
G37*
G36*
X301592Y223500D02*
X300408D01*
X299263Y223193D01*
X298237Y222601D01*
X297399Y221763D01*
X296807Y220737D01*
X296500Y219592D01*
Y218408D01*
X296807Y217263D01*
X297399Y216237D01*
X298237Y215399D01*
X299263Y214807D01*
X300408Y214500D01*
X301592D01*
X302737Y214807D01*
X303763Y215399D01*
X304601Y216237D01*
X305193Y217263D01*
X305500Y218408D01*
Y219592D01*
X305193Y220737D01*
X304601Y221763D01*
X303763Y222601D01*
X302737Y223193D01*
X301592Y223500D01*
D02*
G37*
G36*
X57448Y217250D02*
X56552D01*
X55726Y216908D01*
X55093Y216274D01*
X54750Y215448D01*
Y214552D01*
X55093Y213725D01*
X55726Y213092D01*
X56552Y212750D01*
X57448D01*
X58275Y213092D01*
X58908Y213725D01*
X59250Y214552D01*
Y215448D01*
X58908Y216274D01*
X58275Y216908D01*
X57448Y217250D01*
D02*
G37*
G36*
X24592Y211500D02*
X24500D01*
Y207500D01*
X28500D01*
Y207592D01*
X28193Y208737D01*
X27601Y209763D01*
X26763Y210601D01*
X25737Y211193D01*
X24592Y211500D01*
D02*
G37*
G36*
X23500D02*
X23408D01*
X22263Y211193D01*
X21237Y210601D01*
X20399Y209763D01*
X19807Y208737D01*
X19500Y207592D01*
Y207500D01*
X23500D01*
Y211500D01*
D02*
G37*
G36*
X301448Y210250D02*
X300552D01*
X299726Y209908D01*
X299093Y209275D01*
X298750Y208448D01*
Y207552D01*
X299093Y206726D01*
X299726Y206093D01*
X300552Y205750D01*
X301448D01*
X302274Y206093D01*
X302907Y206726D01*
X303250Y207552D01*
Y208448D01*
X302907Y209275D01*
X302274Y209908D01*
X301448Y210250D01*
D02*
G37*
G36*
X28500Y206500D02*
X24500D01*
Y202500D01*
X24592D01*
X25737Y202807D01*
X26763Y203399D01*
X27601Y204237D01*
X28193Y205263D01*
X28500Y206408D01*
Y206500D01*
D02*
G37*
G36*
X23500D02*
X19500D01*
Y206408D01*
X19807Y205263D01*
X20399Y204237D01*
X21237Y203399D01*
X22263Y202807D01*
X23408Y202500D01*
X23500D01*
Y206500D01*
D02*
G37*
G36*
X286448Y206250D02*
X285552D01*
X284725Y205908D01*
X284092Y205275D01*
X283750Y204448D01*
Y203552D01*
X284092Y202726D01*
X284725Y202093D01*
X285552Y201750D01*
X286448D01*
X287275Y202093D01*
X287908Y202726D01*
X288250Y203552D01*
Y204448D01*
X287908Y205275D01*
X287275Y205908D01*
X286448Y206250D01*
D02*
G37*
G36*
X24592Y201500D02*
X24500D01*
Y197500D01*
X28500D01*
Y197592D01*
X28193Y198737D01*
X27601Y199763D01*
X26763Y200601D01*
X25737Y201193D01*
X24592Y201500D01*
D02*
G37*
G36*
X23500D02*
X23408D01*
X22263Y201193D01*
X21237Y200601D01*
X20399Y199763D01*
X19807Y198737D01*
X19500Y197592D01*
Y197500D01*
X23500D01*
Y201500D01*
D02*
G37*
G36*
X323448Y201250D02*
X322552D01*
X321726Y200907D01*
X321093Y200274D01*
X320750Y199448D01*
Y198552D01*
X321093Y197725D01*
X321726Y197092D01*
X322552Y196750D01*
X323448D01*
X324274Y197092D01*
X324907Y197725D01*
X325250Y198552D01*
Y199448D01*
X324907Y200274D01*
X324274Y200907D01*
X323448Y201250D01*
D02*
G37*
G36*
X185448D02*
X184552D01*
X183726Y200907D01*
X183092Y200274D01*
X182750Y199448D01*
Y198552D01*
X183092Y197725D01*
X183726Y197092D01*
X184552Y196750D01*
X185448D01*
X186275Y197092D01*
X186907Y197725D01*
X187250Y198552D01*
Y199448D01*
X186907Y200274D01*
X186275Y200907D01*
X185448Y201250D01*
D02*
G37*
G36*
X28500Y196500D02*
X24500D01*
Y192500D01*
X24592D01*
X25737Y192807D01*
X26763Y193399D01*
X27601Y194237D01*
X28193Y195263D01*
X28500Y196408D01*
Y196500D01*
D02*
G37*
G36*
X23500D02*
X19500D01*
Y196408D01*
X19807Y195263D01*
X20399Y194237D01*
X21237Y193399D01*
X22263Y192807D01*
X23408Y192500D01*
X23500D01*
Y196500D01*
D02*
G37*
G36*
X315527Y195000D02*
X315500D01*
Y191500D01*
X319000D01*
Y191527D01*
X318727Y192544D01*
X318201Y193456D01*
X317456Y194201D01*
X316544Y194727D01*
X315527Y195000D01*
D02*
G37*
G36*
X314500D02*
X314473D01*
X313456Y194727D01*
X312544Y194201D01*
X311799Y193456D01*
X311273Y192544D01*
X311000Y191527D01*
Y191500D01*
X314500D01*
Y195000D01*
D02*
G37*
G36*
X24592Y191500D02*
X24500D01*
Y187500D01*
X28500D01*
Y187592D01*
X28193Y188737D01*
X27601Y189763D01*
X26763Y190601D01*
X25737Y191193D01*
X24592Y191500D01*
D02*
G37*
G36*
X23500D02*
X23408D01*
X22263Y191193D01*
X21237Y190601D01*
X20399Y189763D01*
X19807Y188737D01*
X19500Y187592D01*
Y187500D01*
X23500D01*
Y191500D01*
D02*
G37*
G36*
X319000Y190500D02*
X315500D01*
Y187000D01*
X315527D01*
X316544Y187273D01*
X317456Y187799D01*
X318201Y188544D01*
X318727Y189456D01*
X319000Y190473D01*
Y190500D01*
D02*
G37*
G36*
X314500D02*
X311000D01*
Y190473D01*
X311273Y189456D01*
X311799Y188544D01*
X312544Y187799D01*
X313456Y187273D01*
X314473Y187000D01*
X314500D01*
Y190500D01*
D02*
G37*
G36*
X285527Y195000D02*
X284473D01*
X283456Y194727D01*
X282544Y194201D01*
X281799Y193456D01*
X281273Y192544D01*
X281000Y191527D01*
Y190473D01*
X281273Y189456D01*
X281799Y188544D01*
X282544Y187799D01*
X283456Y187273D01*
X284473Y187000D01*
X285527D01*
X286544Y187273D01*
X287456Y187799D01*
X288201Y188544D01*
X288727Y189456D01*
X289000Y190473D01*
Y191527D01*
X288727Y192544D01*
X288201Y193456D01*
X287456Y194201D01*
X286544Y194727D01*
X285527Y195000D01*
D02*
G37*
G36*
X62559Y191248D02*
X61441D01*
X60360Y190958D01*
X59392Y190399D01*
X58601Y189608D01*
X58042Y188640D01*
X57752Y187559D01*
Y186441D01*
X58042Y185360D01*
X58601Y184392D01*
X59392Y183601D01*
X60360Y183042D01*
X61441Y182752D01*
X62559D01*
X63640Y183042D01*
X64608Y183601D01*
X65399Y184392D01*
X65958Y185360D01*
X66248Y186441D01*
Y187559D01*
X65958Y188640D01*
X65399Y189608D01*
X64608Y190399D01*
X63640Y190958D01*
X62559Y191248D01*
D02*
G37*
G36*
X52559D02*
X51441D01*
X50360Y190958D01*
X49392Y190399D01*
X48601Y189608D01*
X48041Y188640D01*
X47752Y187559D01*
Y186441D01*
X48041Y185360D01*
X48601Y184392D01*
X49392Y183601D01*
X50360Y183042D01*
X51441Y182752D01*
X52559D01*
X53640Y183042D01*
X54608Y183601D01*
X55399Y184392D01*
X55958Y185360D01*
X56248Y186441D01*
Y187559D01*
X55958Y188640D01*
X55399Y189608D01*
X54608Y190399D01*
X53640Y190958D01*
X52559Y191248D01*
D02*
G37*
G36*
X42559D02*
X41441D01*
X40360Y190958D01*
X39392Y190399D01*
X38601Y189608D01*
X38041Y188640D01*
X37752Y187559D01*
Y186441D01*
X38041Y185360D01*
X38601Y184392D01*
X39392Y183601D01*
X40360Y183042D01*
X41441Y182752D01*
X42559D01*
X43640Y183042D01*
X44608Y183601D01*
X45399Y184392D01*
X45959Y185360D01*
X46248Y186441D01*
Y187559D01*
X45959Y188640D01*
X45399Y189608D01*
X44608Y190399D01*
X43640Y190958D01*
X42559Y191248D01*
D02*
G37*
G36*
X28500Y186500D02*
X24500D01*
Y182500D01*
X24592D01*
X25737Y182807D01*
X26763Y183399D01*
X27601Y184237D01*
X28193Y185263D01*
X28500Y186408D01*
Y186500D01*
D02*
G37*
G36*
X23500D02*
X19500D01*
Y186408D01*
X19807Y185263D01*
X20399Y184237D01*
X21237Y183399D01*
X22263Y182807D01*
X23408Y182500D01*
X23500D01*
Y186500D01*
D02*
G37*
G36*
X186448Y186250D02*
X185552D01*
X184725Y185907D01*
X184092Y185275D01*
X183750Y184448D01*
Y183552D01*
X184092Y182726D01*
X184725Y182092D01*
X185552Y181750D01*
X186448D01*
X187275Y182092D01*
X187908Y182726D01*
X188250Y183552D01*
Y184448D01*
X187908Y185275D01*
X187275Y185907D01*
X186448Y186250D01*
D02*
G37*
G36*
X315527Y185000D02*
X315500D01*
Y181500D01*
X319000D01*
Y181527D01*
X318727Y182544D01*
X318201Y183456D01*
X317456Y184201D01*
X316544Y184727D01*
X315527Y185000D01*
D02*
G37*
G36*
X314500D02*
X314473D01*
X313456Y184727D01*
X312544Y184201D01*
X311799Y183456D01*
X311273Y182544D01*
X311000Y181527D01*
Y181500D01*
X314500D01*
Y185000D01*
D02*
G37*
G36*
X262448Y185250D02*
X261552D01*
X260725Y184907D01*
X260092Y184274D01*
X259750Y183448D01*
Y182552D01*
X260092Y181726D01*
X260725Y181093D01*
X261552Y180750D01*
X262448D01*
X263275Y181093D01*
X263908Y181726D01*
X264250Y182552D01*
Y183448D01*
X263908Y184274D01*
X263275Y184907D01*
X262448Y185250D01*
D02*
G37*
G36*
X319000Y180500D02*
X315500D01*
Y177000D01*
X315527D01*
X316544Y177273D01*
X317456Y177799D01*
X318201Y178544D01*
X318727Y179456D01*
X319000Y180473D01*
Y180500D01*
D02*
G37*
G36*
X314500D02*
X311000D01*
Y180473D01*
X311273Y179456D01*
X311799Y178544D01*
X312544Y177799D01*
X313456Y177273D01*
X314473Y177000D01*
X314500D01*
Y180500D01*
D02*
G37*
G36*
X285527Y185000D02*
X284473D01*
X283456Y184727D01*
X282544Y184201D01*
X281799Y183456D01*
X281273Y182544D01*
X281000Y181527D01*
Y180473D01*
X281273Y179456D01*
X281799Y178544D01*
X282544Y177799D01*
X283456Y177273D01*
X284473Y177000D01*
X285527D01*
X286544Y177273D01*
X287456Y177799D01*
X288201Y178544D01*
X288727Y179456D01*
X289000Y180473D01*
Y181527D01*
X288727Y182544D01*
X288201Y183456D01*
X287456Y184201D01*
X286544Y184727D01*
X285527Y185000D01*
D02*
G37*
G36*
X24592Y181500D02*
X23408D01*
X22263Y181193D01*
X21237Y180601D01*
X20399Y179763D01*
X19807Y178737D01*
X19500Y177592D01*
Y176408D01*
X19807Y175263D01*
X20399Y174237D01*
X21237Y173399D01*
X22263Y172807D01*
X23408Y172500D01*
X24592D01*
X25737Y172807D01*
X26763Y173399D01*
X27601Y174237D01*
X28193Y175263D01*
X28500Y176408D01*
Y177592D01*
X28193Y178737D01*
X27601Y179763D01*
X26763Y180601D01*
X25737Y181193D01*
X24592Y181500D01*
D02*
G37*
G36*
X315527Y175000D02*
X315500D01*
Y171500D01*
X319000D01*
Y171527D01*
X318727Y172544D01*
X318201Y173456D01*
X317456Y174201D01*
X316544Y174727D01*
X315527Y175000D01*
D02*
G37*
G36*
X314500D02*
X314473D01*
X313456Y174727D01*
X312544Y174201D01*
X311799Y173456D01*
X311273Y172544D01*
X311000Y171527D01*
Y171500D01*
X314500D01*
Y175000D01*
D02*
G37*
G36*
X319000Y170500D02*
X315500D01*
Y167000D01*
X315527D01*
X316544Y167273D01*
X317456Y167799D01*
X318201Y168544D01*
X318727Y169456D01*
X319000Y170473D01*
Y170500D01*
D02*
G37*
G36*
X314500D02*
X311000D01*
Y170473D01*
X311273Y169456D01*
X311799Y168544D01*
X312544Y167799D01*
X313456Y167273D01*
X314473Y167000D01*
X314500D01*
Y170500D01*
D02*
G37*
G36*
X285527Y175000D02*
X284473D01*
X283456Y174727D01*
X282544Y174201D01*
X281799Y173456D01*
X281273Y172544D01*
X281000Y171527D01*
Y170473D01*
X281273Y169456D01*
X281799Y168544D01*
X282544Y167799D01*
X283456Y167273D01*
X284473Y167000D01*
X285527D01*
X286544Y167273D01*
X287456Y167799D01*
X288201Y168544D01*
X288727Y169456D01*
X289000Y170473D01*
Y171527D01*
X288727Y172544D01*
X288201Y173456D01*
X287456Y174201D01*
X286544Y174727D01*
X285527Y175000D01*
D02*
G37*
G36*
X48448Y171250D02*
X47552D01*
X46725Y170907D01*
X46093Y170274D01*
X45750Y169448D01*
Y168552D01*
X46093Y167726D01*
X46725Y167093D01*
X47552Y166750D01*
X48448D01*
X49275Y167093D01*
X49907Y167726D01*
X50250Y168552D01*
Y169448D01*
X49907Y170274D01*
X49275Y170907D01*
X48448Y171250D01*
D02*
G37*
G36*
X315527Y165000D02*
X315500D01*
Y161500D01*
X319000D01*
Y161527D01*
X318727Y162544D01*
X318201Y163456D01*
X317456Y164201D01*
X316544Y164727D01*
X315527Y165000D01*
D02*
G37*
G36*
X285527D02*
X285500D01*
Y161500D01*
X289000D01*
Y161527D01*
X288727Y162544D01*
X288201Y163456D01*
X287456Y164201D01*
X286544Y164727D01*
X285527Y165000D01*
D02*
G37*
G36*
X8592Y165500D02*
X8500D01*
Y161500D01*
X12500D01*
Y161592D01*
X12193Y162737D01*
X11601Y163763D01*
X10763Y164601D01*
X9737Y165193D01*
X8592Y165500D01*
D02*
G37*
G36*
X314500Y165000D02*
X314473D01*
X313456Y164727D01*
X312544Y164201D01*
X311799Y163456D01*
X311273Y162544D01*
X311000Y161527D01*
Y161500D01*
X314500D01*
Y165000D01*
D02*
G37*
G36*
X284500D02*
X284473D01*
X283456Y164727D01*
X282544Y164201D01*
X281799Y163456D01*
X281273Y162544D01*
X281000Y161527D01*
Y161500D01*
X284500D01*
Y165000D01*
D02*
G37*
G36*
X7500Y165500D02*
X7408D01*
X6263Y165193D01*
X5237Y164601D01*
X4399Y163763D01*
X3807Y162737D01*
X3500Y161592D01*
Y161500D01*
X7500D01*
Y165500D01*
D02*
G37*
G36*
X248448Y165250D02*
X247552D01*
X246726Y164908D01*
X246093Y164275D01*
X245750Y163448D01*
Y162552D01*
X246093Y161725D01*
X246726Y161092D01*
X247552Y160750D01*
X248448D01*
X249274Y161092D01*
X249907Y161725D01*
X250250Y162552D01*
Y163448D01*
X249907Y164275D01*
X249274Y164908D01*
X248448Y165250D01*
D02*
G37*
G36*
X241448Y162250D02*
X240552D01*
X239725Y161907D01*
X239092Y161275D01*
X238750Y160448D01*
Y159552D01*
X239092Y158726D01*
X239725Y158092D01*
X240552Y157750D01*
X241448D01*
X242274Y158092D01*
X242908Y158726D01*
X243250Y159552D01*
Y160448D01*
X242908Y161275D01*
X242274Y161907D01*
X241448Y162250D01*
D02*
G37*
G36*
X46448D02*
X45552D01*
X44725Y161907D01*
X44093Y161275D01*
X43750Y160448D01*
Y159552D01*
X44093Y158726D01*
X44725Y158092D01*
X45552Y157750D01*
X46448D01*
X47275Y158092D01*
X47908Y158726D01*
X48250Y159552D01*
Y160448D01*
X47908Y161275D01*
X47275Y161907D01*
X46448Y162250D01*
D02*
G37*
G36*
X319000Y160500D02*
X315500D01*
Y157000D01*
X315527D01*
X316544Y157273D01*
X317456Y157799D01*
X318201Y158544D01*
X318727Y159456D01*
X319000Y160473D01*
Y160500D01*
D02*
G37*
G36*
X314500D02*
X311000D01*
Y160473D01*
X311273Y159456D01*
X311799Y158544D01*
X312544Y157799D01*
X313456Y157273D01*
X314473Y157000D01*
X314500D01*
Y160500D01*
D02*
G37*
G36*
X289000D02*
X285500D01*
Y157000D01*
X285527D01*
X286544Y157273D01*
X287456Y157799D01*
X288201Y158544D01*
X288727Y159456D01*
X289000Y160473D01*
Y160500D01*
D02*
G37*
G36*
X284500D02*
X281000D01*
Y160473D01*
X281273Y159456D01*
X281799Y158544D01*
X282544Y157799D01*
X283456Y157273D01*
X284473Y157000D01*
X284500D01*
Y160500D01*
D02*
G37*
G36*
X12500D02*
X8500D01*
Y156500D01*
X8592D01*
X9737Y156807D01*
X10763Y157399D01*
X11601Y158237D01*
X12193Y159263D01*
X12500Y160408D01*
Y160500D01*
D02*
G37*
G36*
X7500D02*
X3500D01*
Y160408D01*
X3807Y159263D01*
X4399Y158237D01*
X5237Y157399D01*
X6263Y156807D01*
X7408Y156500D01*
X7500D01*
Y160500D01*
D02*
G37*
G36*
X65527Y159000D02*
X65500D01*
Y155500D01*
X69000D01*
Y155527D01*
X68727Y156544D01*
X68201Y157456D01*
X67456Y158201D01*
X66544Y158727D01*
X65527Y159000D01*
D02*
G37*
G36*
X64500D02*
X64473D01*
X63456Y158727D01*
X62544Y158201D01*
X61799Y157456D01*
X61273Y156544D01*
X61000Y155527D01*
Y155500D01*
X64500D01*
Y159000D01*
D02*
G37*
G36*
X315527Y155000D02*
X315500D01*
Y151500D01*
X319000D01*
Y151527D01*
X318727Y152544D01*
X318201Y153456D01*
X317456Y154201D01*
X316544Y154727D01*
X315527Y155000D01*
D02*
G37*
G36*
X8592Y155500D02*
X8500D01*
Y151500D01*
X12500D01*
Y151592D01*
X12193Y152737D01*
X11601Y153763D01*
X10763Y154601D01*
X9737Y155193D01*
X8592Y155500D01*
D02*
G37*
G36*
X314500Y155000D02*
X314473D01*
X313456Y154727D01*
X312544Y154201D01*
X311799Y153456D01*
X311273Y152544D01*
X311000Y151527D01*
Y151500D01*
X314500D01*
Y155000D01*
D02*
G37*
G36*
X7500Y155500D02*
X7408D01*
X6263Y155193D01*
X5237Y154601D01*
X4399Y153763D01*
X3807Y152737D01*
X3500Y151592D01*
Y151500D01*
X7500D01*
Y155500D01*
D02*
G37*
G36*
X95527Y159000D02*
X94473D01*
X93456Y158727D01*
X92544Y158201D01*
X91799Y157456D01*
X91273Y156544D01*
X91000Y155527D01*
Y154473D01*
X91273Y153456D01*
X91799Y152544D01*
X92544Y151799D01*
X93456Y151273D01*
X94473Y151000D01*
X95527D01*
X96544Y151273D01*
X97456Y151799D01*
X98201Y152544D01*
X98727Y153456D01*
X99000Y154473D01*
Y155527D01*
X98727Y156544D01*
X98201Y157456D01*
X97456Y158201D01*
X96544Y158727D01*
X95527Y159000D01*
D02*
G37*
G36*
X69000Y154500D02*
X65500D01*
Y151000D01*
X65527D01*
X66544Y151273D01*
X67456Y151799D01*
X68201Y152544D01*
X68727Y153456D01*
X69000Y154473D01*
Y154500D01*
D02*
G37*
G36*
X64500D02*
X61000D01*
Y154473D01*
X61273Y153456D01*
X61799Y152544D01*
X62544Y151799D01*
X63456Y151273D01*
X64473Y151000D01*
X64500D01*
Y154500D01*
D02*
G37*
G36*
X39448Y154250D02*
X38552D01*
X37725Y153908D01*
X37093Y153275D01*
X36750Y152448D01*
Y151552D01*
X37093Y150725D01*
X37725Y150092D01*
X38552Y149750D01*
X39448D01*
X40275Y150092D01*
X40907Y150725D01*
X41250Y151552D01*
Y152448D01*
X40907Y153275D01*
X40275Y153908D01*
X39448Y154250D01*
D02*
G37*
G36*
X52448Y153250D02*
X51552D01*
X50726Y152908D01*
X50093Y152275D01*
X49750Y151448D01*
Y150552D01*
X50093Y149725D01*
X50726Y149092D01*
X51552Y148750D01*
X52448D01*
X53275Y149092D01*
X53908Y149725D01*
X54250Y150552D01*
Y151448D01*
X53908Y152275D01*
X53275Y152908D01*
X52448Y153250D01*
D02*
G37*
G36*
X319000Y150500D02*
X315500D01*
Y147000D01*
X315527D01*
X316544Y147273D01*
X317456Y147799D01*
X318201Y148544D01*
X318727Y149456D01*
X319000Y150473D01*
Y150500D01*
D02*
G37*
G36*
X314500D02*
X311000D01*
Y150473D01*
X311273Y149456D01*
X311799Y148544D01*
X312544Y147799D01*
X313456Y147273D01*
X314473Y147000D01*
X314500D01*
Y150500D01*
D02*
G37*
G36*
X285527Y155000D02*
X284473D01*
X283456Y154727D01*
X282544Y154201D01*
X281799Y153456D01*
X281273Y152544D01*
X281000Y151527D01*
Y150473D01*
X281273Y149456D01*
X281799Y148544D01*
X282544Y147799D01*
X283456Y147273D01*
X284473Y147000D01*
X285527D01*
X286544Y147273D01*
X287456Y147799D01*
X288201Y148544D01*
X288727Y149456D01*
X289000Y150473D01*
Y151527D01*
X288727Y152544D01*
X288201Y153456D01*
X287456Y154201D01*
X286544Y154727D01*
X285527Y155000D01*
D02*
G37*
G36*
X12500Y150500D02*
X8500D01*
Y146500D01*
X8592D01*
X9737Y146807D01*
X10763Y147399D01*
X11601Y148237D01*
X12193Y149263D01*
X12500Y150408D01*
Y150500D01*
D02*
G37*
G36*
X7500D02*
X3500D01*
Y150408D01*
X3807Y149263D01*
X4399Y148237D01*
X5237Y147399D01*
X6263Y146807D01*
X7408Y146500D01*
X7500D01*
Y150500D01*
D02*
G37*
G36*
X65527Y149000D02*
X65500D01*
Y145500D01*
X69000D01*
Y145527D01*
X68727Y146544D01*
X68201Y147456D01*
X67456Y148201D01*
X66544Y148727D01*
X65527Y149000D01*
D02*
G37*
G36*
X64500D02*
X64473D01*
X63456Y148727D01*
X62544Y148201D01*
X61799Y147456D01*
X61273Y146544D01*
X61000Y145527D01*
Y145500D01*
X64500D01*
Y149000D01*
D02*
G37*
G36*
X315527Y145000D02*
X315500D01*
Y141500D01*
X319000D01*
Y141527D01*
X318727Y142544D01*
X318201Y143456D01*
X317456Y144201D01*
X316544Y144727D01*
X315527Y145000D01*
D02*
G37*
G36*
X8592Y145500D02*
X8500D01*
Y141500D01*
X12500D01*
Y141592D01*
X12193Y142737D01*
X11601Y143763D01*
X10763Y144601D01*
X9737Y145193D01*
X8592Y145500D01*
D02*
G37*
G36*
X314500Y145000D02*
X314473D01*
X313456Y144727D01*
X312544Y144201D01*
X311799Y143456D01*
X311273Y142544D01*
X311000Y141527D01*
Y141500D01*
X314500D01*
Y145000D01*
D02*
G37*
G36*
X7500Y145500D02*
X7408D01*
X6263Y145193D01*
X5237Y144601D01*
X4399Y143763D01*
X3807Y142737D01*
X3500Y141592D01*
Y141500D01*
X7500D01*
Y145500D01*
D02*
G37*
G36*
X95527Y149000D02*
X94473D01*
X93456Y148727D01*
X92544Y148201D01*
X91799Y147456D01*
X91273Y146544D01*
X91000Y145527D01*
Y144473D01*
X91273Y143456D01*
X91799Y142544D01*
X92544Y141799D01*
X93456Y141273D01*
X94473Y141000D01*
X95527D01*
X96544Y141273D01*
X97456Y141799D01*
X98201Y142544D01*
X98727Y143456D01*
X99000Y144473D01*
Y145527D01*
X98727Y146544D01*
X98201Y147456D01*
X97456Y148201D01*
X96544Y148727D01*
X95527Y149000D01*
D02*
G37*
G36*
X69000Y144500D02*
X65500D01*
Y141000D01*
X65527D01*
X66544Y141273D01*
X67456Y141799D01*
X68201Y142544D01*
X68727Y143456D01*
X69000Y144473D01*
Y144500D01*
D02*
G37*
G36*
X64500D02*
X61000D01*
Y144473D01*
X61273Y143456D01*
X61799Y142544D01*
X62544Y141799D01*
X63456Y141273D01*
X64473Y141000D01*
X64500D01*
Y144500D01*
D02*
G37*
G36*
X319000Y140500D02*
X315500D01*
Y137000D01*
X315527D01*
X316544Y137273D01*
X317456Y137799D01*
X318201Y138544D01*
X318727Y139456D01*
X319000Y140473D01*
Y140500D01*
D02*
G37*
G36*
X314500D02*
X311000D01*
Y140473D01*
X311273Y139456D01*
X311799Y138544D01*
X312544Y137799D01*
X313456Y137273D01*
X314473Y137000D01*
X314500D01*
Y140500D01*
D02*
G37*
G36*
X285527Y145000D02*
X284473D01*
X283456Y144727D01*
X282544Y144201D01*
X281799Y143456D01*
X281273Y142544D01*
X281000Y141527D01*
Y140473D01*
X281273Y139456D01*
X281799Y138544D01*
X282544Y137799D01*
X283456Y137273D01*
X284473Y137000D01*
X285527D01*
X286544Y137273D01*
X287456Y137799D01*
X288201Y138544D01*
X288727Y139456D01*
X289000Y140473D01*
Y141527D01*
X288727Y142544D01*
X288201Y143456D01*
X287456Y144201D01*
X286544Y144727D01*
X285527Y145000D01*
D02*
G37*
G36*
X12500Y140500D02*
X8500D01*
Y136500D01*
X8592D01*
X9737Y136807D01*
X10763Y137399D01*
X11601Y138237D01*
X12193Y139263D01*
X12500Y140408D01*
Y140500D01*
D02*
G37*
G36*
X7500D02*
X3500D01*
Y140408D01*
X3807Y139263D01*
X4399Y138237D01*
X5237Y137399D01*
X6263Y136807D01*
X7408Y136500D01*
X7500D01*
Y140500D01*
D02*
G37*
G36*
X65527Y139000D02*
X65500D01*
Y135500D01*
X69000D01*
Y135527D01*
X68727Y136544D01*
X68201Y137456D01*
X67456Y138201D01*
X66544Y138727D01*
X65527Y139000D01*
D02*
G37*
G36*
X64500D02*
X64473D01*
X63456Y138727D01*
X62544Y138201D01*
X61799Y137456D01*
X61273Y136544D01*
X61000Y135527D01*
Y135500D01*
X64500D01*
Y139000D01*
D02*
G37*
G36*
X104448Y137250D02*
X103552D01*
X102726Y136907D01*
X102093Y136275D01*
X101750Y135448D01*
Y134552D01*
X102093Y133726D01*
X102726Y133092D01*
X103552Y132750D01*
X104448D01*
X105274Y133092D01*
X105907Y133726D01*
X106250Y134552D01*
Y135448D01*
X105907Y136275D01*
X105274Y136907D01*
X104448Y137250D01*
D02*
G37*
G36*
X315527Y135000D02*
X315500D01*
Y131500D01*
X319000D01*
Y131527D01*
X318727Y132544D01*
X318201Y133456D01*
X317456Y134201D01*
X316544Y134727D01*
X315527Y135000D01*
D02*
G37*
G36*
X314500D02*
X314473D01*
X313456Y134727D01*
X312544Y134201D01*
X311799Y133456D01*
X311273Y132544D01*
X311000Y131527D01*
Y131500D01*
X314500D01*
Y135000D01*
D02*
G37*
G36*
X95527Y139000D02*
X94473D01*
X93456Y138727D01*
X92544Y138201D01*
X91799Y137456D01*
X91273Y136544D01*
X91000Y135527D01*
Y134473D01*
X91273Y133456D01*
X91799Y132544D01*
X92544Y131799D01*
X93456Y131273D01*
X94473Y131000D01*
X95527D01*
X96544Y131273D01*
X97456Y131799D01*
X98201Y132544D01*
X98727Y133456D01*
X99000Y134473D01*
Y135527D01*
X98727Y136544D01*
X98201Y137456D01*
X97456Y138201D01*
X96544Y138727D01*
X95527Y139000D01*
D02*
G37*
G36*
X69000Y134500D02*
X65500D01*
Y131000D01*
X65527D01*
X66544Y131273D01*
X67456Y131799D01*
X68201Y132544D01*
X68727Y133456D01*
X69000Y134473D01*
Y134500D01*
D02*
G37*
G36*
X64500D02*
X61000D01*
Y134473D01*
X61273Y133456D01*
X61799Y132544D01*
X62544Y131799D01*
X63456Y131273D01*
X64473Y131000D01*
X64500D01*
Y134500D01*
D02*
G37*
G36*
X319000Y130500D02*
X315500D01*
Y127000D01*
X315527D01*
X316544Y127273D01*
X317456Y127799D01*
X318201Y128544D01*
X318727Y129456D01*
X319000Y130473D01*
Y130500D01*
D02*
G37*
G36*
X314500D02*
X311000D01*
Y130473D01*
X311273Y129456D01*
X311799Y128544D01*
X312544Y127799D01*
X313456Y127273D01*
X314473Y127000D01*
X314500D01*
Y130500D01*
D02*
G37*
G36*
X285527Y135000D02*
X284473D01*
X283456Y134727D01*
X282544Y134201D01*
X281799Y133456D01*
X281273Y132544D01*
X281000Y131527D01*
Y130473D01*
X281273Y129456D01*
X281799Y128544D01*
X282544Y127799D01*
X283456Y127273D01*
X284473Y127000D01*
X285527D01*
X286544Y127273D01*
X287456Y127799D01*
X288201Y128544D01*
X288727Y129456D01*
X289000Y130473D01*
Y131527D01*
X288727Y132544D01*
X288201Y133456D01*
X287456Y134201D01*
X286544Y134727D01*
X285527Y135000D01*
D02*
G37*
G36*
X8592Y135500D02*
X7408D01*
X6263Y135193D01*
X5237Y134601D01*
X4399Y133763D01*
X3807Y132737D01*
X3500Y131592D01*
Y130408D01*
X3807Y129263D01*
X4399Y128237D01*
X5237Y127399D01*
X6263Y126807D01*
X7408Y126500D01*
X8592D01*
X9737Y126807D01*
X10763Y127399D01*
X11601Y128237D01*
X12193Y129263D01*
X12500Y130408D01*
Y131592D01*
X12193Y132737D01*
X11601Y133763D01*
X10763Y134601D01*
X9737Y135193D01*
X8592Y135500D01*
D02*
G37*
G36*
X65527Y129000D02*
X65500D01*
Y125500D01*
X69000D01*
Y125527D01*
X68727Y126544D01*
X68201Y127456D01*
X67456Y128201D01*
X66544Y128727D01*
X65527Y129000D01*
D02*
G37*
G36*
X64500D02*
X64473D01*
X63456Y128727D01*
X62544Y128201D01*
X61799Y127456D01*
X61273Y126544D01*
X61000Y125527D01*
Y125500D01*
X64500D01*
Y129000D01*
D02*
G37*
G36*
X315527Y125000D02*
X315500D01*
Y121500D01*
X319000D01*
Y121527D01*
X318727Y122544D01*
X318201Y123456D01*
X317456Y124201D01*
X316544Y124727D01*
X315527Y125000D01*
D02*
G37*
G36*
X314500D02*
X314473D01*
X313456Y124727D01*
X312544Y124201D01*
X311799Y123456D01*
X311273Y122544D01*
X311000Y121527D01*
Y121500D01*
X314500D01*
Y125000D01*
D02*
G37*
G36*
X95527Y129000D02*
X94473D01*
X93456Y128727D01*
X92544Y128201D01*
X91799Y127456D01*
X91273Y126544D01*
X91000Y125527D01*
Y124473D01*
X91273Y123456D01*
X91799Y122544D01*
X92544Y121799D01*
X93456Y121273D01*
X94473Y121000D01*
X95527D01*
X96544Y121273D01*
X97456Y121799D01*
X98201Y122544D01*
X98727Y123456D01*
X99000Y124473D01*
Y125527D01*
X98727Y126544D01*
X98201Y127456D01*
X97456Y128201D01*
X96544Y128727D01*
X95527Y129000D01*
D02*
G37*
G36*
X69000Y124500D02*
X65500D01*
Y121000D01*
X65527D01*
X66544Y121273D01*
X67456Y121799D01*
X68201Y122544D01*
X68727Y123456D01*
X69000Y124473D01*
Y124500D01*
D02*
G37*
G36*
X64500D02*
X61000D01*
Y124473D01*
X61273Y123456D01*
X61799Y122544D01*
X62544Y121799D01*
X63456Y121273D01*
X64473Y121000D01*
X64500D01*
Y124500D01*
D02*
G37*
G36*
X51592Y127500D02*
X50408D01*
X49263Y127193D01*
X48237Y126601D01*
X47399Y125763D01*
X46807Y124737D01*
X46500Y123592D01*
Y122408D01*
X46807Y121263D01*
X47399Y120237D01*
X48237Y119399D01*
X49263Y118807D01*
X50408Y118500D01*
X51592D01*
X52737Y118807D01*
X53763Y119399D01*
X54601Y120237D01*
X55193Y121263D01*
X55500Y122408D01*
Y123592D01*
X55193Y124737D01*
X54601Y125763D01*
X53763Y126601D01*
X52737Y127193D01*
X51592Y127500D01*
D02*
G37*
G36*
X319000Y120500D02*
X315500D01*
Y117000D01*
X315527D01*
X316544Y117273D01*
X317456Y117799D01*
X318201Y118544D01*
X318727Y119456D01*
X319000Y120473D01*
Y120500D01*
D02*
G37*
G36*
X314500D02*
X311000D01*
Y120473D01*
X311273Y119456D01*
X311799Y118544D01*
X312544Y117799D01*
X313456Y117273D01*
X314473Y117000D01*
X314500D01*
Y120500D01*
D02*
G37*
G36*
X285527Y125000D02*
X284473D01*
X283456Y124727D01*
X282544Y124201D01*
X281799Y123456D01*
X281273Y122544D01*
X281000Y121527D01*
Y120473D01*
X281273Y119456D01*
X281799Y118544D01*
X282544Y117799D01*
X283456Y117273D01*
X284473Y117000D01*
X285527D01*
X286544Y117273D01*
X287456Y117799D01*
X288201Y118544D01*
X288727Y119456D01*
X289000Y120473D01*
Y121527D01*
X288727Y122544D01*
X288201Y123456D01*
X287456Y124201D01*
X286544Y124727D01*
X285527Y125000D01*
D02*
G37*
G36*
X65527Y119000D02*
X65500D01*
Y115500D01*
X69000D01*
Y115527D01*
X68727Y116544D01*
X68201Y117456D01*
X67456Y118201D01*
X66544Y118727D01*
X65527Y119000D01*
D02*
G37*
G36*
X64500D02*
X64473D01*
X63456Y118727D01*
X62544Y118201D01*
X61799Y117456D01*
X61273Y116544D01*
X61000Y115527D01*
Y115500D01*
X64500D01*
Y119000D01*
D02*
G37*
G36*
X51592Y117500D02*
X51500D01*
Y113500D01*
X55500D01*
Y113592D01*
X55193Y114737D01*
X54601Y115763D01*
X53763Y116601D01*
X52737Y117193D01*
X51592Y117500D01*
D02*
G37*
G36*
X50500D02*
X50408D01*
X49263Y117193D01*
X48237Y116601D01*
X47399Y115763D01*
X46807Y114737D01*
X46500Y113592D01*
Y113500D01*
X50500D01*
Y117500D01*
D02*
G37*
G36*
X315527Y115000D02*
X315500D01*
Y111500D01*
X319000D01*
Y111527D01*
X318727Y112544D01*
X318201Y113456D01*
X317456Y114201D01*
X316544Y114727D01*
X315527Y115000D01*
D02*
G37*
G36*
X314500D02*
X314473D01*
X313456Y114727D01*
X312544Y114201D01*
X311799Y113456D01*
X311273Y112544D01*
X311000Y111527D01*
Y111500D01*
X314500D01*
Y115000D01*
D02*
G37*
G36*
X95527Y119000D02*
X94473D01*
X93456Y118727D01*
X92544Y118201D01*
X91799Y117456D01*
X91273Y116544D01*
X91000Y115527D01*
Y114473D01*
X91273Y113456D01*
X91799Y112544D01*
X92544Y111799D01*
X93456Y111273D01*
X94473Y111000D01*
X95527D01*
X96544Y111273D01*
X97456Y111799D01*
X98201Y112544D01*
X98727Y113456D01*
X99000Y114473D01*
Y115527D01*
X98727Y116544D01*
X98201Y117456D01*
X97456Y118201D01*
X96544Y118727D01*
X95527Y119000D01*
D02*
G37*
G36*
X69000Y114500D02*
X65500D01*
Y111000D01*
X65527D01*
X66544Y111273D01*
X67456Y111799D01*
X68201Y112544D01*
X68727Y113456D01*
X69000Y114473D01*
Y114500D01*
D02*
G37*
G36*
X64500D02*
X61000D01*
Y114473D01*
X61273Y113456D01*
X61799Y112544D01*
X62544Y111799D01*
X63456Y111273D01*
X64473Y111000D01*
X64500D01*
Y114500D01*
D02*
G37*
G36*
X177448Y114250D02*
X176552D01*
X175725Y113908D01*
X175092Y113275D01*
X174750Y112448D01*
Y111552D01*
X175092Y110725D01*
X175725Y110092D01*
X176552Y109750D01*
X177448D01*
X178275Y110092D01*
X178908Y110725D01*
X179250Y111552D01*
Y112448D01*
X178908Y113275D01*
X178275Y113908D01*
X177448Y114250D01*
D02*
G37*
G36*
X55500Y112500D02*
X51500D01*
Y108500D01*
X51592D01*
X52737Y108807D01*
X53763Y109399D01*
X54601Y110237D01*
X55193Y111263D01*
X55500Y112408D01*
Y112500D01*
D02*
G37*
G36*
X50500D02*
X46500D01*
Y112408D01*
X46807Y111263D01*
X47399Y110237D01*
X48237Y109399D01*
X49263Y108807D01*
X50408Y108500D01*
X50500D01*
Y112500D01*
D02*
G37*
G36*
X319000Y110500D02*
X315500D01*
Y107000D01*
X315527D01*
X316544Y107273D01*
X317456Y107799D01*
X318201Y108544D01*
X318727Y109456D01*
X319000Y110473D01*
Y110500D01*
D02*
G37*
G36*
X314500D02*
X311000D01*
Y110473D01*
X311273Y109456D01*
X311799Y108544D01*
X312544Y107799D01*
X313456Y107273D01*
X314473Y107000D01*
X314500D01*
Y110500D01*
D02*
G37*
G36*
X285527Y115000D02*
X284473D01*
X283456Y114727D01*
X282544Y114201D01*
X281799Y113456D01*
X281273Y112544D01*
X281000Y111527D01*
Y110473D01*
X281273Y109456D01*
X281799Y108544D01*
X282544Y107799D01*
X283456Y107273D01*
X284473Y107000D01*
X285527D01*
X286544Y107273D01*
X287456Y107799D01*
X288201Y108544D01*
X288727Y109456D01*
X289000Y110473D01*
Y111527D01*
X288727Y112544D01*
X288201Y113456D01*
X287456Y114201D01*
X286544Y114727D01*
X285527Y115000D01*
D02*
G37*
G36*
X95527Y109000D02*
X95500D01*
Y105500D01*
X99000D01*
Y105527D01*
X98727Y106544D01*
X98201Y107456D01*
X97456Y108201D01*
X96544Y108727D01*
X95527Y109000D01*
D02*
G37*
G36*
X65527D02*
X65500D01*
Y105500D01*
X69000D01*
Y105527D01*
X68727Y106544D01*
X68201Y107456D01*
X67456Y108201D01*
X66544Y108727D01*
X65527Y109000D01*
D02*
G37*
G36*
X64500D02*
X64473D01*
X63456Y108727D01*
X62544Y108201D01*
X61799Y107456D01*
X61273Y106544D01*
X61000Y105527D01*
Y105500D01*
X64500D01*
Y109000D01*
D02*
G37*
G36*
X94500D02*
X94473D01*
X93456Y108727D01*
X92544Y108201D01*
X91799Y107456D01*
X91273Y106544D01*
X91000Y105527D01*
Y105500D01*
X94500D01*
Y109000D01*
D02*
G37*
G36*
X180448Y108250D02*
X179552D01*
X178726Y107907D01*
X178093Y107274D01*
X177750Y106448D01*
Y105552D01*
X178093Y104726D01*
X178726Y104093D01*
X179552Y103750D01*
X180448D01*
X181274Y104093D01*
X181907Y104726D01*
X182250Y105552D01*
Y106448D01*
X181907Y107274D01*
X181274Y107907D01*
X180448Y108250D01*
D02*
G37*
G36*
X51592Y107500D02*
X51500D01*
Y103500D01*
X55500D01*
Y103592D01*
X55193Y104737D01*
X54601Y105763D01*
X53763Y106601D01*
X52737Y107193D01*
X51592Y107500D01*
D02*
G37*
G36*
X50500D02*
X50408D01*
X49263Y107193D01*
X48237Y106601D01*
X47399Y105763D01*
X46807Y104737D01*
X46500Y103592D01*
Y103500D01*
X50500D01*
Y107500D01*
D02*
G37*
G36*
X141448Y107250D02*
X140553D01*
X139726Y106907D01*
X139093Y106274D01*
X138750Y105448D01*
Y104552D01*
X139093Y103726D01*
X139726Y103093D01*
X140553Y102750D01*
X141448D01*
X142275Y103093D01*
X142908Y103726D01*
X143250Y104552D01*
Y105448D01*
X142908Y106274D01*
X142275Y106907D01*
X141448Y107250D01*
D02*
G37*
G36*
X315527Y105000D02*
X315500D01*
Y101500D01*
X319000D01*
Y101527D01*
X318727Y102544D01*
X318201Y103456D01*
X317456Y104201D01*
X316544Y104727D01*
X315527Y105000D01*
D02*
G37*
G36*
X314500D02*
X314473D01*
X313456Y104727D01*
X312544Y104201D01*
X311799Y103456D01*
X311273Y102544D01*
X311000Y101527D01*
Y101500D01*
X314500D01*
Y105000D01*
D02*
G37*
G36*
X99000Y104500D02*
X95500D01*
Y101000D01*
X95527D01*
X96544Y101273D01*
X97456Y101799D01*
X98201Y102544D01*
X98727Y103456D01*
X99000Y104473D01*
Y104500D01*
D02*
G37*
G36*
X94500D02*
X91000D01*
Y104473D01*
X91273Y103456D01*
X91799Y102544D01*
X92544Y101799D01*
X93456Y101273D01*
X94473Y101000D01*
X94500D01*
Y104500D01*
D02*
G37*
G36*
X69000D02*
X65500D01*
Y101000D01*
X65527D01*
X66544Y101273D01*
X67456Y101799D01*
X68201Y102544D01*
X68727Y103456D01*
X69000Y104473D01*
Y104500D01*
D02*
G37*
G36*
X64500D02*
X61000D01*
Y104473D01*
X61273Y103456D01*
X61799Y102544D01*
X62544Y101799D01*
X63456Y101273D01*
X64473Y101000D01*
X64500D01*
Y104500D01*
D02*
G37*
G36*
X55500Y102500D02*
X51500D01*
Y98500D01*
X51592D01*
X52737Y98807D01*
X53763Y99399D01*
X54601Y100237D01*
X55193Y101263D01*
X55500Y102408D01*
Y102500D01*
D02*
G37*
G36*
X50500D02*
X46500D01*
Y102408D01*
X46807Y101263D01*
X47399Y100237D01*
X48237Y99399D01*
X49263Y98807D01*
X50408Y98500D01*
X50500D01*
Y102500D01*
D02*
G37*
G36*
X319000Y100500D02*
X315500D01*
Y97000D01*
X315527D01*
X316544Y97273D01*
X317456Y97799D01*
X318201Y98544D01*
X318727Y99456D01*
X319000Y100473D01*
Y100500D01*
D02*
G37*
G36*
X314500D02*
X311000D01*
Y100473D01*
X311273Y99456D01*
X311799Y98544D01*
X312544Y97799D01*
X313456Y97273D01*
X314473Y97000D01*
X314500D01*
Y100500D01*
D02*
G37*
G36*
X285527Y105000D02*
X284473D01*
X283456Y104727D01*
X282544Y104201D01*
X281799Y103456D01*
X281273Y102544D01*
X281000Y101527D01*
Y100473D01*
X281273Y99456D01*
X281799Y98544D01*
X282544Y97799D01*
X283456Y97273D01*
X284473Y97000D01*
X285527D01*
X286544Y97273D01*
X287456Y97799D01*
X288201Y98544D01*
X288727Y99456D01*
X289000Y100473D01*
Y101527D01*
X288727Y102544D01*
X288201Y103456D01*
X287456Y104201D01*
X286544Y104727D01*
X285527Y105000D01*
D02*
G37*
G36*
X149448Y103250D02*
X148552D01*
X147725Y102908D01*
X147092Y102275D01*
X146750Y101448D01*
Y100552D01*
X147092Y99726D01*
X147725Y99093D01*
X148552Y98750D01*
X149448D01*
X150275Y99093D01*
X150618Y99436D01*
X151042Y99153D01*
X150750Y98448D01*
Y97552D01*
X151093Y96725D01*
X151725Y96092D01*
X152552Y95750D01*
X153448D01*
X154274Y96092D01*
X154908Y96725D01*
X155250Y97552D01*
Y98448D01*
X154908Y99274D01*
X154274Y99907D01*
X153448Y100250D01*
X152552D01*
X151725Y99907D01*
X151382Y99564D01*
X150958Y99847D01*
X151250Y100552D01*
Y101448D01*
X150908Y102275D01*
X150275Y102908D01*
X149448Y103250D01*
D02*
G37*
G36*
X95527Y99000D02*
X95500D01*
Y95500D01*
X99000D01*
Y95527D01*
X98727Y96544D01*
X98201Y97456D01*
X97456Y98201D01*
X96544Y98727D01*
X95527Y99000D01*
D02*
G37*
G36*
X65527D02*
X65500D01*
Y95500D01*
X69000D01*
Y95527D01*
X68727Y96544D01*
X68201Y97456D01*
X67456Y98201D01*
X66544Y98727D01*
X65527Y99000D01*
D02*
G37*
G36*
X64500D02*
X64473D01*
X63456Y98727D01*
X62544Y98201D01*
X61799Y97456D01*
X61273Y96544D01*
X61000Y95527D01*
Y95500D01*
X64500D01*
Y99000D01*
D02*
G37*
G36*
X94500D02*
X94473D01*
X93456Y98727D01*
X92544Y98201D01*
X91799Y97456D01*
X91273Y96544D01*
X91000Y95527D01*
Y95500D01*
X94500D01*
Y99000D01*
D02*
G37*
G36*
X173448Y98250D02*
X172552D01*
X171725Y97908D01*
X171092Y97275D01*
X170750Y96448D01*
Y95552D01*
X171092Y94726D01*
X171725Y94093D01*
X172552Y93750D01*
X173448D01*
X174275Y94093D01*
X174908Y94726D01*
X175250Y95552D01*
Y96448D01*
X174908Y97275D01*
X174275Y97908D01*
X173448Y98250D01*
D02*
G37*
G36*
X51592Y97500D02*
X51500D01*
Y93500D01*
X55500D01*
Y93592D01*
X55193Y94737D01*
X54601Y95763D01*
X53763Y96601D01*
X52737Y97193D01*
X51592Y97500D01*
D02*
G37*
G36*
X50500D02*
X50408D01*
X49263Y97193D01*
X48237Y96601D01*
X47399Y95763D01*
X46807Y94737D01*
X46500Y93592D01*
Y93500D01*
X50500D01*
Y97500D01*
D02*
G37*
G36*
X99000Y94500D02*
X95500D01*
Y91000D01*
X95527D01*
X96544Y91273D01*
X97456Y91799D01*
X98201Y92544D01*
X98727Y93456D01*
X99000Y94473D01*
Y94500D01*
D02*
G37*
G36*
X94500D02*
X91000D01*
Y94473D01*
X91273Y93456D01*
X91799Y92544D01*
X92544Y91799D01*
X93456Y91273D01*
X94473Y91000D01*
X94500D01*
Y94500D01*
D02*
G37*
G36*
X69000D02*
X65500D01*
Y91000D01*
X65527D01*
X66544Y91273D01*
X67456Y91799D01*
X68201Y92544D01*
X68727Y93456D01*
X69000Y94473D01*
Y94500D01*
D02*
G37*
G36*
X64500D02*
X61000D01*
Y94473D01*
X61273Y93456D01*
X61799Y92544D01*
X62544Y91799D01*
X63456Y91273D01*
X64473Y91000D01*
X64500D01*
Y94500D01*
D02*
G37*
G36*
X55500Y92500D02*
X51500D01*
Y88500D01*
X51592D01*
X52737Y88807D01*
X53763Y89399D01*
X54601Y90237D01*
X55193Y91263D01*
X55500Y92408D01*
Y92500D01*
D02*
G37*
G36*
X50500D02*
X46500D01*
Y92408D01*
X46807Y91263D01*
X47399Y90237D01*
X48237Y89399D01*
X49263Y88807D01*
X50408Y88500D01*
X50500D01*
Y92500D01*
D02*
G37*
G36*
X315527Y89000D02*
X315500D01*
Y85500D01*
X319000D01*
Y85527D01*
X318727Y86544D01*
X318201Y87456D01*
X317456Y88201D01*
X316544Y88727D01*
X315527Y89000D01*
D02*
G37*
G36*
X65527D02*
X65500D01*
Y85500D01*
X69000D01*
Y85527D01*
X68727Y86544D01*
X68201Y87456D01*
X67456Y88201D01*
X66544Y88727D01*
X65527Y89000D01*
D02*
G37*
G36*
X64500D02*
X64473D01*
X63456Y88727D01*
X62544Y88201D01*
X61799Y87456D01*
X61273Y86544D01*
X61000Y85527D01*
Y85500D01*
X64500D01*
Y89000D01*
D02*
G37*
G36*
X314500D02*
X314473D01*
X313456Y88727D01*
X312544Y88201D01*
X311799Y87456D01*
X311273Y86544D01*
X311000Y85527D01*
Y85500D01*
X314500D01*
Y89000D01*
D02*
G37*
G36*
X319000Y84500D02*
X315500D01*
Y81000D01*
X315527D01*
X316544Y81273D01*
X317456Y81799D01*
X318201Y82544D01*
X318727Y83456D01*
X319000Y84473D01*
Y84500D01*
D02*
G37*
G36*
X314500D02*
X311000D01*
Y84473D01*
X311273Y83456D01*
X311799Y82544D01*
X312544Y81799D01*
X313456Y81273D01*
X314473Y81000D01*
X314500D01*
Y84500D01*
D02*
G37*
G36*
X285527Y89000D02*
X284473D01*
X283456Y88727D01*
X282544Y88201D01*
X281799Y87456D01*
X281273Y86544D01*
X281000Y85527D01*
Y84473D01*
X281273Y83456D01*
X281799Y82544D01*
X282544Y81799D01*
X283456Y81273D01*
X284473Y81000D01*
X285527D01*
X286544Y81273D01*
X287456Y81799D01*
X288201Y82544D01*
X288727Y83456D01*
X289000Y84473D01*
Y85527D01*
X288727Y86544D01*
X288201Y87456D01*
X287456Y88201D01*
X286544Y88727D01*
X285527Y89000D01*
D02*
G37*
G36*
X95527D02*
X94473D01*
X93456Y88727D01*
X92544Y88201D01*
X91799Y87456D01*
X91273Y86544D01*
X91000Y85527D01*
Y84473D01*
X91273Y83456D01*
X91799Y82544D01*
X92544Y81799D01*
X93456Y81273D01*
X94473Y81000D01*
X95527D01*
X96544Y81273D01*
X97456Y81799D01*
X98201Y82544D01*
X98727Y83456D01*
X99000Y84473D01*
Y85527D01*
X98727Y86544D01*
X98201Y87456D01*
X97456Y88201D01*
X96544Y88727D01*
X95527Y89000D01*
D02*
G37*
G36*
X69000Y84500D02*
X65500D01*
Y81000D01*
X65527D01*
X66544Y81273D01*
X67456Y81799D01*
X68201Y82544D01*
X68727Y83456D01*
X69000Y84473D01*
Y84500D01*
D02*
G37*
G36*
X64500D02*
X61000D01*
Y84473D01*
X61273Y83456D01*
X61799Y82544D01*
X62544Y81799D01*
X63456Y81273D01*
X64473Y81000D01*
X64500D01*
Y84500D01*
D02*
G37*
G36*
X315527Y79000D02*
X315500D01*
Y75500D01*
X319000D01*
Y75527D01*
X318727Y76544D01*
X318201Y77456D01*
X317456Y78201D01*
X316544Y78727D01*
X315527Y79000D01*
D02*
G37*
G36*
X314500D02*
X314473D01*
X313456Y78727D01*
X312544Y78201D01*
X311799Y77456D01*
X311273Y76544D01*
X311000Y75527D01*
Y75500D01*
X314500D01*
Y79000D01*
D02*
G37*
G36*
X164448Y78250D02*
X163552D01*
X162725Y77908D01*
X162092Y77275D01*
X161750Y76448D01*
Y75552D01*
X162092Y74726D01*
X162725Y74093D01*
X163552Y73750D01*
X164448D01*
X165275Y74093D01*
X165908Y74726D01*
X166250Y75552D01*
Y76448D01*
X165908Y77275D01*
X165275Y77908D01*
X164448Y78250D01*
D02*
G37*
G36*
X319000Y74500D02*
X315500D01*
Y71000D01*
X315527D01*
X316544Y71273D01*
X317456Y71799D01*
X318201Y72544D01*
X318727Y73456D01*
X319000Y74473D01*
Y74500D01*
D02*
G37*
G36*
X314500D02*
X311000D01*
Y74473D01*
X311273Y73456D01*
X311799Y72544D01*
X312544Y71799D01*
X313456Y71273D01*
X314473Y71000D01*
X314500D01*
Y74500D01*
D02*
G37*
G36*
X285527Y79000D02*
X284473D01*
X283456Y78727D01*
X282544Y78201D01*
X281799Y77456D01*
X281273Y76544D01*
X281000Y75527D01*
Y74473D01*
X281273Y73456D01*
X281799Y72544D01*
X282544Y71799D01*
X283456Y71273D01*
X284473Y71000D01*
X285527D01*
X286544Y71273D01*
X287456Y71799D01*
X288201Y72544D01*
X288727Y73456D01*
X289000Y74473D01*
Y75527D01*
X288727Y76544D01*
X288201Y77456D01*
X287456Y78201D01*
X286544Y78727D01*
X285527Y79000D01*
D02*
G37*
G36*
X371342Y74150D02*
X371295D01*
Y70500D01*
X374945D01*
Y70546D01*
X374662Y71602D01*
X374116Y72548D01*
X373343Y73321D01*
X372397Y73867D01*
X371342Y74150D01*
D02*
G37*
G36*
X370295D02*
X370249D01*
X369194Y73867D01*
X368247Y73321D01*
X367475Y72548D01*
X366929Y71602D01*
X366646Y70546D01*
Y70500D01*
X370295D01*
Y74150D01*
D02*
G37*
G36*
X56448Y73250D02*
X55552D01*
X54725Y72908D01*
X54093Y72275D01*
X53750Y71448D01*
Y70552D01*
X54093Y69726D01*
X54725Y69093D01*
X55552Y68750D01*
X56448D01*
X57275Y69093D01*
X57907Y69726D01*
X58250Y70552D01*
Y71448D01*
X57907Y72275D01*
X57275Y72908D01*
X56448Y73250D01*
D02*
G37*
G36*
X374945Y69500D02*
X371295D01*
Y65850D01*
X371342D01*
X372397Y66133D01*
X373343Y66680D01*
X374116Y67452D01*
X374662Y68398D01*
X374945Y69454D01*
Y69500D01*
D02*
G37*
G36*
X370295D02*
X366646D01*
Y69454D01*
X366929Y68398D01*
X367475Y67452D01*
X368247Y66680D01*
X369194Y66133D01*
X370249Y65850D01*
X370295D01*
Y69500D01*
D02*
G37*
G36*
X345751Y74150D02*
X344658D01*
X343603Y73867D01*
X342657Y73321D01*
X341884Y72548D01*
X341338Y71602D01*
X341055Y70546D01*
Y69454D01*
X341338Y68398D01*
X341884Y67452D01*
X342657Y66680D01*
X343603Y66133D01*
X344658Y65850D01*
X345751D01*
X346806Y66133D01*
X347753Y66680D01*
X348525Y67452D01*
X349072Y68398D01*
X349354Y69454D01*
Y70546D01*
X349072Y71602D01*
X348525Y72548D01*
X347753Y73321D01*
X346806Y73867D01*
X345751Y74150D01*
D02*
G37*
G36*
X315527Y69000D02*
X315500D01*
Y65500D01*
X319000D01*
Y65527D01*
X318727Y66544D01*
X318201Y67456D01*
X317456Y68201D01*
X316544Y68727D01*
X315527Y69000D01*
D02*
G37*
G36*
X65527D02*
X65500D01*
Y65500D01*
X69000D01*
Y65527D01*
X68727Y66544D01*
X68201Y67456D01*
X67456Y68201D01*
X66544Y68727D01*
X65527Y69000D01*
D02*
G37*
G36*
X64500D02*
X64473D01*
X63456Y68727D01*
X62544Y68201D01*
X61799Y67456D01*
X61273Y66544D01*
X61000Y65527D01*
Y65500D01*
X64500D01*
Y69000D01*
D02*
G37*
G36*
X314500D02*
X314473D01*
X313456Y68727D01*
X312544Y68201D01*
X311799Y67456D01*
X311273Y66544D01*
X311000Y65527D01*
Y65500D01*
X314500D01*
Y69000D01*
D02*
G37*
G36*
X319000Y64500D02*
X315500D01*
Y61000D01*
X315527D01*
X316544Y61273D01*
X317456Y61799D01*
X318201Y62544D01*
X318727Y63456D01*
X319000Y64473D01*
Y64500D01*
D02*
G37*
G36*
X314500D02*
X311000D01*
Y64473D01*
X311273Y63456D01*
X311799Y62544D01*
X312544Y61799D01*
X313456Y61273D01*
X314473Y61000D01*
X314500D01*
Y64500D01*
D02*
G37*
G36*
X285527Y69000D02*
X284473D01*
X283456Y68727D01*
X282544Y68201D01*
X281799Y67456D01*
X281273Y66544D01*
X281000Y65527D01*
Y64473D01*
X281273Y63456D01*
X281799Y62544D01*
X282544Y61799D01*
X283456Y61273D01*
X284473Y61000D01*
X285527D01*
X286544Y61273D01*
X287456Y61799D01*
X288201Y62544D01*
X288727Y63456D01*
X289000Y64473D01*
Y65527D01*
X288727Y66544D01*
X288201Y67456D01*
X287456Y68201D01*
X286544Y68727D01*
X285527Y69000D01*
D02*
G37*
G36*
X95527D02*
X94473D01*
X93456Y68727D01*
X92544Y68201D01*
X91799Y67456D01*
X91273Y66544D01*
X91000Y65527D01*
Y64473D01*
X91273Y63456D01*
X91799Y62544D01*
X92544Y61799D01*
X93456Y61273D01*
X94473Y61000D01*
X95527D01*
X96544Y61273D01*
X97456Y61799D01*
X98201Y62544D01*
X98727Y63456D01*
X99000Y64473D01*
Y65527D01*
X98727Y66544D01*
X98201Y67456D01*
X97456Y68201D01*
X96544Y68727D01*
X95527Y69000D01*
D02*
G37*
G36*
X69000Y64500D02*
X65500D01*
Y61000D01*
X65527D01*
X66544Y61273D01*
X67456Y61799D01*
X68201Y62544D01*
X68727Y63456D01*
X69000Y64473D01*
Y64500D01*
D02*
G37*
G36*
X64500D02*
X61000D01*
Y64473D01*
X61273Y63456D01*
X61799Y62544D01*
X62544Y61799D01*
X63456Y61273D01*
X64473Y61000D01*
X64500D01*
Y64500D01*
D02*
G37*
G36*
X315527Y59000D02*
X315500D01*
Y55500D01*
X319000D01*
Y55527D01*
X318727Y56544D01*
X318201Y57456D01*
X317456Y58201D01*
X316544Y58727D01*
X315527Y59000D01*
D02*
G37*
G36*
X65527D02*
X65500D01*
Y55500D01*
X69000D01*
Y55527D01*
X68727Y56544D01*
X68201Y57456D01*
X67456Y58201D01*
X66544Y58727D01*
X65527Y59000D01*
D02*
G37*
G36*
X64500D02*
X64473D01*
X63456Y58727D01*
X62544Y58201D01*
X61799Y57456D01*
X61273Y56544D01*
X61000Y55527D01*
Y55500D01*
X64500D01*
Y59000D01*
D02*
G37*
G36*
X314500D02*
X314473D01*
X313456Y58727D01*
X312544Y58201D01*
X311799Y57456D01*
X311273Y56544D01*
X311000Y55527D01*
Y55500D01*
X314500D01*
Y59000D01*
D02*
G37*
G36*
X319000Y54500D02*
X315500D01*
Y51000D01*
X315527D01*
X316544Y51273D01*
X317456Y51799D01*
X318201Y52544D01*
X318727Y53456D01*
X319000Y54473D01*
Y54500D01*
D02*
G37*
G36*
X314500D02*
X311000D01*
Y54473D01*
X311273Y53456D01*
X311799Y52544D01*
X312544Y51799D01*
X313456Y51273D01*
X314473Y51000D01*
X314500D01*
Y54500D01*
D02*
G37*
G36*
X285527Y59000D02*
X284473D01*
X283456Y58727D01*
X282544Y58201D01*
X281799Y57456D01*
X281273Y56544D01*
X281000Y55527D01*
Y54473D01*
X281273Y53456D01*
X281799Y52544D01*
X282544Y51799D01*
X283456Y51273D01*
X284473Y51000D01*
X285527D01*
X286544Y51273D01*
X287456Y51799D01*
X288201Y52544D01*
X288727Y53456D01*
X289000Y54473D01*
Y55527D01*
X288727Y56544D01*
X288201Y57456D01*
X287456Y58201D01*
X286544Y58727D01*
X285527Y59000D01*
D02*
G37*
G36*
X95527D02*
X94473D01*
X93456Y58727D01*
X92544Y58201D01*
X91799Y57456D01*
X91273Y56544D01*
X91000Y55527D01*
Y54473D01*
X91273Y53456D01*
X91799Y52544D01*
X92544Y51799D01*
X93456Y51273D01*
X94473Y51000D01*
X95527D01*
X96544Y51273D01*
X97456Y51799D01*
X98201Y52544D01*
X98727Y53456D01*
X99000Y54473D01*
Y55527D01*
X98727Y56544D01*
X98201Y57456D01*
X97456Y58201D01*
X96544Y58727D01*
X95527Y59000D01*
D02*
G37*
G36*
X69000Y54500D02*
X65500D01*
Y51000D01*
X65527D01*
X66544Y51273D01*
X67456Y51799D01*
X68201Y52544D01*
X68727Y53456D01*
X69000Y54473D01*
Y54500D01*
D02*
G37*
G36*
X64500D02*
X61000D01*
Y54473D01*
X61273Y53456D01*
X61799Y52544D01*
X62544Y51799D01*
X63456Y51273D01*
X64473Y51000D01*
X64500D01*
Y54500D01*
D02*
G37*
G36*
X315527Y49000D02*
X315500D01*
Y45500D01*
X319000D01*
Y45527D01*
X318727Y46544D01*
X318201Y47456D01*
X317456Y48201D01*
X316544Y48727D01*
X315527Y49000D01*
D02*
G37*
G36*
X65527D02*
X65500D01*
Y45500D01*
X69000D01*
Y45527D01*
X68727Y46544D01*
X68201Y47456D01*
X67456Y48201D01*
X66544Y48727D01*
X65527Y49000D01*
D02*
G37*
G36*
X64500D02*
X64473D01*
X63456Y48727D01*
X62544Y48201D01*
X61799Y47456D01*
X61273Y46544D01*
X61000Y45527D01*
Y45500D01*
X64500D01*
Y49000D01*
D02*
G37*
G36*
X314500D02*
X314473D01*
X313456Y48727D01*
X312544Y48201D01*
X311799Y47456D01*
X311273Y46544D01*
X311000Y45527D01*
Y45500D01*
X314500D01*
Y49000D01*
D02*
G37*
G36*
X262448Y47250D02*
X261552D01*
X260725Y46907D01*
X260092Y46275D01*
X259750Y45448D01*
Y44552D01*
X260092Y43725D01*
X260725Y43093D01*
X261552Y42750D01*
X262448D01*
X263275Y43093D01*
X263908Y43725D01*
X264250Y44552D01*
Y45448D01*
X263908Y46275D01*
X263275Y46907D01*
X262448Y47250D01*
D02*
G37*
G36*
X319000Y44500D02*
X315500D01*
Y41000D01*
X315527D01*
X316544Y41273D01*
X317456Y41799D01*
X318201Y42544D01*
X318727Y43456D01*
X319000Y44473D01*
Y44500D01*
D02*
G37*
G36*
X314500D02*
X311000D01*
Y44473D01*
X311273Y43456D01*
X311799Y42544D01*
X312544Y41799D01*
X313456Y41273D01*
X314473Y41000D01*
X314500D01*
Y44500D01*
D02*
G37*
G36*
X285527Y49000D02*
X284473D01*
X283456Y48727D01*
X282544Y48201D01*
X281799Y47456D01*
X281273Y46544D01*
X281000Y45527D01*
Y44473D01*
X281273Y43456D01*
X281799Y42544D01*
X282544Y41799D01*
X283456Y41273D01*
X284473Y41000D01*
X285527D01*
X286544Y41273D01*
X287456Y41799D01*
X288201Y42544D01*
X288727Y43456D01*
X289000Y44473D01*
Y45527D01*
X288727Y46544D01*
X288201Y47456D01*
X287456Y48201D01*
X286544Y48727D01*
X285527Y49000D01*
D02*
G37*
G36*
X95527D02*
X94473D01*
X93456Y48727D01*
X92544Y48201D01*
X91799Y47456D01*
X91273Y46544D01*
X91000Y45527D01*
Y44473D01*
X91273Y43456D01*
X91799Y42544D01*
X92544Y41799D01*
X93456Y41273D01*
X94473Y41000D01*
X95527D01*
X96544Y41273D01*
X97456Y41799D01*
X98201Y42544D01*
X98727Y43456D01*
X99000Y44473D01*
Y45527D01*
X98727Y46544D01*
X98201Y47456D01*
X97456Y48201D01*
X96544Y48727D01*
X95527Y49000D01*
D02*
G37*
G36*
X69000Y44500D02*
X65500D01*
Y41000D01*
X65527D01*
X66544Y41273D01*
X67456Y41799D01*
X68201Y42544D01*
X68727Y43456D01*
X69000Y44473D01*
Y44500D01*
D02*
G37*
G36*
X64500D02*
X61000D01*
Y44473D01*
X61273Y43456D01*
X61799Y42544D01*
X62544Y41799D01*
X63456Y41273D01*
X64473Y41000D01*
X64500D01*
Y44500D01*
D02*
G37*
G36*
X208552Y49189D02*
X207449D01*
X206383Y48904D01*
X205428Y48352D01*
X204648Y47572D01*
X204097Y46617D01*
X203811Y45551D01*
Y44449D01*
X204097Y43383D01*
X204648Y42428D01*
X205428Y41648D01*
X206383Y41096D01*
X207449Y40811D01*
X208552D01*
X209617Y41096D01*
X210572Y41648D01*
X211352Y42428D01*
X211904Y43383D01*
X212189Y44449D01*
Y45551D01*
X211904Y46617D01*
X211352Y47572D01*
X210572Y48352D01*
X209617Y48904D01*
X208552Y49189D01*
D02*
G37*
G36*
X315527Y39000D02*
X315500D01*
Y35500D01*
X319000D01*
Y35527D01*
X318727Y36544D01*
X318201Y37456D01*
X317456Y38201D01*
X316544Y38727D01*
X315527Y39000D01*
D02*
G37*
G36*
X65527D02*
X65500D01*
Y35500D01*
X69000D01*
Y35527D01*
X68727Y36544D01*
X68201Y37456D01*
X67456Y38201D01*
X66544Y38727D01*
X65527Y39000D01*
D02*
G37*
G36*
X314500D02*
X314473D01*
X313456Y38727D01*
X312544Y38201D01*
X311799Y37456D01*
X311273Y36544D01*
X311000Y35527D01*
Y35500D01*
X314500D01*
Y39000D01*
D02*
G37*
G36*
X64500D02*
X64473D01*
X63456Y38727D01*
X62544Y38201D01*
X61799Y37456D01*
X61273Y36544D01*
X61000Y35527D01*
Y35500D01*
X64500D01*
Y39000D01*
D02*
G37*
G36*
X366592Y38500D02*
X366500D01*
Y34500D01*
X370500D01*
Y34592D01*
X370193Y35737D01*
X369601Y36763D01*
X368763Y37601D01*
X367737Y38193D01*
X366592Y38500D01*
D02*
G37*
G36*
X365500D02*
X365408D01*
X364263Y38193D01*
X363237Y37601D01*
X362399Y36763D01*
X361807Y35737D01*
X361500Y34592D01*
Y34500D01*
X365500D01*
Y38500D01*
D02*
G37*
G36*
X356592D02*
X356500D01*
Y34500D01*
X360500D01*
Y34592D01*
X360193Y35737D01*
X359601Y36763D01*
X358763Y37601D01*
X357737Y38193D01*
X356592Y38500D01*
D02*
G37*
G36*
X355500D02*
X355408D01*
X354263Y38193D01*
X353237Y37601D01*
X352399Y36763D01*
X351807Y35737D01*
X351500Y34592D01*
Y34500D01*
X355500D01*
Y38500D01*
D02*
G37*
G36*
X346592D02*
X346500D01*
Y34500D01*
X350500D01*
Y34592D01*
X350193Y35737D01*
X349601Y36763D01*
X348763Y37601D01*
X347737Y38193D01*
X346592Y38500D01*
D02*
G37*
G36*
X345500D02*
X345408D01*
X344263Y38193D01*
X343237Y37601D01*
X342399Y36763D01*
X341807Y35737D01*
X341500Y34592D01*
Y34500D01*
X345500D01*
Y38500D01*
D02*
G37*
G36*
X319000Y34500D02*
X315500D01*
Y31000D01*
X315527D01*
X316544Y31273D01*
X317456Y31799D01*
X318201Y32544D01*
X318727Y33456D01*
X319000Y34473D01*
Y34500D01*
D02*
G37*
G36*
X314500D02*
X311000D01*
Y34473D01*
X311273Y33456D01*
X311799Y32544D01*
X312544Y31799D01*
X313456Y31273D01*
X314473Y31000D01*
X314500D01*
Y34500D01*
D02*
G37*
G36*
X285527Y39000D02*
X284473D01*
X283456Y38727D01*
X282544Y38201D01*
X281799Y37456D01*
X281273Y36544D01*
X281000Y35527D01*
Y34473D01*
X281273Y33456D01*
X281799Y32544D01*
X282544Y31799D01*
X283456Y31273D01*
X284473Y31000D01*
X285527D01*
X286544Y31273D01*
X287456Y31799D01*
X288201Y32544D01*
X288727Y33456D01*
X289000Y34473D01*
Y35527D01*
X288727Y36544D01*
X288201Y37456D01*
X287456Y38201D01*
X286544Y38727D01*
X285527Y39000D01*
D02*
G37*
G36*
X95527D02*
X94473D01*
X93456Y38727D01*
X92544Y38201D01*
X91799Y37456D01*
X91273Y36544D01*
X91000Y35527D01*
Y34473D01*
X91273Y33456D01*
X91799Y32544D01*
X92544Y31799D01*
X93456Y31273D01*
X94473Y31000D01*
X95527D01*
X96544Y31273D01*
X97456Y31799D01*
X98201Y32544D01*
X98727Y33456D01*
X99000Y34473D01*
Y35527D01*
X98727Y36544D01*
X98201Y37456D01*
X97456Y38201D01*
X96544Y38727D01*
X95527Y39000D01*
D02*
G37*
G36*
X69000Y34500D02*
X65500D01*
Y31000D01*
X65527D01*
X66544Y31273D01*
X67456Y31799D01*
X68201Y32544D01*
X68727Y33456D01*
X69000Y34473D01*
Y34500D01*
D02*
G37*
G36*
X64500D02*
X61000D01*
Y34473D01*
X61273Y33456D01*
X61799Y32544D01*
X62544Y31799D01*
X63456Y31273D01*
X64473Y31000D01*
X64500D01*
Y34500D01*
D02*
G37*
G36*
X208552Y39189D02*
X207449D01*
X206383Y38903D01*
X205428Y38352D01*
X204648Y37572D01*
X204097Y36617D01*
X203811Y35552D01*
Y34449D01*
X204097Y33383D01*
X204648Y32428D01*
X205428Y31648D01*
X206383Y31097D01*
X207449Y30811D01*
X208552D01*
X209617Y31097D01*
X210572Y31648D01*
X211352Y32428D01*
X211904Y33383D01*
X212189Y34449D01*
Y35552D01*
X211904Y36617D01*
X211352Y37572D01*
X210572Y38352D01*
X209617Y38903D01*
X208552Y39189D01*
D02*
G37*
G36*
X370500Y33500D02*
X366500D01*
Y29500D01*
X366592D01*
X367737Y29807D01*
X368763Y30399D01*
X369601Y31237D01*
X370193Y32263D01*
X370500Y33408D01*
Y33500D01*
D02*
G37*
G36*
X365500D02*
X361500D01*
Y33408D01*
X361807Y32263D01*
X362399Y31237D01*
X363237Y30399D01*
X364263Y29807D01*
X365408Y29500D01*
X365500D01*
Y33500D01*
D02*
G37*
G36*
X360500D02*
X356500D01*
Y29500D01*
X356592D01*
X357737Y29807D01*
X358763Y30399D01*
X359601Y31237D01*
X360193Y32263D01*
X360500Y33408D01*
Y33500D01*
D02*
G37*
G36*
X355500D02*
X351500D01*
Y33408D01*
X351807Y32263D01*
X352399Y31237D01*
X353237Y30399D01*
X354263Y29807D01*
X355408Y29500D01*
X355500D01*
Y33500D01*
D02*
G37*
G36*
X350500D02*
X346500D01*
Y29500D01*
X346592D01*
X347737Y29807D01*
X348763Y30399D01*
X349601Y31237D01*
X350193Y32263D01*
X350500Y33408D01*
Y33500D01*
D02*
G37*
G36*
X345500D02*
X341500D01*
Y33408D01*
X341807Y32263D01*
X342399Y31237D01*
X343237Y30399D01*
X344263Y29807D01*
X345408Y29500D01*
X345500D01*
Y33500D01*
D02*
G37*
G36*
X336592Y38500D02*
X335408D01*
X334263Y38193D01*
X333237Y37601D01*
X332399Y36763D01*
X331807Y35737D01*
X331500Y34592D01*
Y33408D01*
X331807Y32263D01*
X332399Y31237D01*
X333237Y30399D01*
X334263Y29807D01*
X335408Y29500D01*
X336592D01*
X337737Y29807D01*
X338763Y30399D01*
X339601Y31237D01*
X340193Y32263D01*
X340500Y33408D01*
Y34592D01*
X340193Y35737D01*
X339601Y36763D01*
X338763Y37601D01*
X337737Y38193D01*
X336592Y38500D01*
D02*
G37*
G36*
X315527Y29000D02*
X315500D01*
Y25500D01*
X319000D01*
Y25527D01*
X318727Y26544D01*
X318201Y27456D01*
X317456Y28201D01*
X316544Y28727D01*
X315527Y29000D01*
D02*
G37*
G36*
X65527D02*
X65500D01*
Y25500D01*
X69000D01*
Y25527D01*
X68727Y26544D01*
X68201Y27456D01*
X67456Y28201D01*
X66544Y28727D01*
X65527Y29000D01*
D02*
G37*
G36*
X314500D02*
X314473D01*
X313456Y28727D01*
X312544Y28201D01*
X311799Y27456D01*
X311273Y26544D01*
X311000Y25527D01*
Y25500D01*
X314500D01*
Y29000D01*
D02*
G37*
G36*
X64500D02*
X64473D01*
X63456Y28727D01*
X62544Y28201D01*
X61799Y27456D01*
X61273Y26544D01*
X61000Y25527D01*
Y25500D01*
X64500D01*
Y29000D01*
D02*
G37*
G36*
X319000Y24500D02*
X315500D01*
Y21000D01*
X315527D01*
X316544Y21273D01*
X317456Y21799D01*
X318201Y22544D01*
X318727Y23456D01*
X319000Y24473D01*
Y24500D01*
D02*
G37*
G36*
X314500D02*
X311000D01*
Y24473D01*
X311273Y23456D01*
X311799Y22544D01*
X312544Y21799D01*
X313456Y21273D01*
X314473Y21000D01*
X314500D01*
Y24500D01*
D02*
G37*
G36*
X285527Y29000D02*
X284473D01*
X283456Y28727D01*
X282544Y28201D01*
X281799Y27456D01*
X281273Y26544D01*
X281000Y25527D01*
Y24473D01*
X281273Y23456D01*
X281799Y22544D01*
X282544Y21799D01*
X283456Y21273D01*
X284473Y21000D01*
X285527D01*
X286544Y21273D01*
X287456Y21799D01*
X288201Y22544D01*
X288727Y23456D01*
X289000Y24473D01*
Y25527D01*
X288727Y26544D01*
X288201Y27456D01*
X287456Y28201D01*
X286544Y28727D01*
X285527Y29000D01*
D02*
G37*
G36*
X95527D02*
X94473D01*
X93456Y28727D01*
X92544Y28201D01*
X91799Y27456D01*
X91273Y26544D01*
X91000Y25527D01*
Y24473D01*
X91273Y23456D01*
X91799Y22544D01*
X92544Y21799D01*
X93456Y21273D01*
X94473Y21000D01*
X95527D01*
X96544Y21273D01*
X97456Y21799D01*
X98201Y22544D01*
X98727Y23456D01*
X99000Y24473D01*
Y25527D01*
X98727Y26544D01*
X98201Y27456D01*
X97456Y28201D01*
X96544Y28727D01*
X95527Y29000D01*
D02*
G37*
G36*
X69000Y24500D02*
X65500D01*
Y21000D01*
X65527D01*
X66544Y21273D01*
X67456Y21799D01*
X68201Y22544D01*
X68727Y23456D01*
X69000Y24473D01*
Y24500D01*
D02*
G37*
G36*
X64500D02*
X61000D01*
Y24473D01*
X61273Y23456D01*
X61799Y22544D01*
X62544Y21799D01*
X63456Y21273D01*
X64473Y21000D01*
X64500D01*
Y24500D01*
D02*
G37*
G36*
X365592Y20500D02*
X365500D01*
Y16500D01*
X369500D01*
Y16592D01*
X369193Y17737D01*
X368601Y18763D01*
X367763Y19601D01*
X366737Y20193D01*
X365592Y20500D01*
D02*
G37*
G36*
X364500D02*
X364408D01*
X363263Y20193D01*
X362237Y19601D01*
X361399Y18763D01*
X360807Y17737D01*
X360500Y16592D01*
Y16500D01*
X364500D01*
Y20500D01*
D02*
G37*
G36*
X355592D02*
X355500D01*
Y16500D01*
X359500D01*
Y16592D01*
X359193Y17737D01*
X358601Y18763D01*
X357763Y19601D01*
X356737Y20193D01*
X355592Y20500D01*
D02*
G37*
G36*
X354500D02*
X354408D01*
X353263Y20193D01*
X352237Y19601D01*
X351399Y18763D01*
X350807Y17737D01*
X350500Y16592D01*
Y16500D01*
X354500D01*
Y20500D01*
D02*
G37*
G36*
X345592D02*
X345500D01*
Y16500D01*
X349500D01*
Y16592D01*
X349193Y17737D01*
X348601Y18763D01*
X347763Y19601D01*
X346737Y20193D01*
X345592Y20500D01*
D02*
G37*
G36*
X344500D02*
X344408D01*
X343263Y20193D01*
X342237Y19601D01*
X341399Y18763D01*
X340807Y17737D01*
X340500Y16592D01*
Y16500D01*
X344500D01*
Y20500D01*
D02*
G37*
G36*
X315527Y19000D02*
X315500D01*
Y15500D01*
X319000D01*
Y15527D01*
X318727Y16544D01*
X318201Y17456D01*
X317456Y18201D01*
X316544Y18727D01*
X315527Y19000D01*
D02*
G37*
G36*
X65527D02*
X65500D01*
Y15500D01*
X69000D01*
Y15527D01*
X68727Y16544D01*
X68201Y17456D01*
X67456Y18201D01*
X66544Y18727D01*
X65527Y19000D01*
D02*
G37*
G36*
X314500D02*
X314473D01*
X313456Y18727D01*
X312544Y18201D01*
X311799Y17456D01*
X311273Y16544D01*
X311000Y15527D01*
Y15500D01*
X314500D01*
Y19000D01*
D02*
G37*
G36*
X64500D02*
X64473D01*
X63456Y18727D01*
X62544Y18201D01*
X61799Y17456D01*
X61273Y16544D01*
X61000Y15527D01*
Y15500D01*
X64500D01*
Y19000D01*
D02*
G37*
G36*
X139592Y16500D02*
X139500D01*
Y12500D01*
X143500D01*
Y12592D01*
X143193Y13737D01*
X142601Y14763D01*
X141763Y15601D01*
X140737Y16193D01*
X139592Y16500D01*
D02*
G37*
G36*
X138500D02*
X138408D01*
X137263Y16193D01*
X136237Y15601D01*
X135399Y14763D01*
X134807Y13737D01*
X134500Y12592D01*
Y12500D01*
X138500D01*
Y16500D01*
D02*
G37*
G36*
X129592D02*
X129500D01*
Y12500D01*
X133500D01*
Y12592D01*
X133193Y13737D01*
X132601Y14763D01*
X131763Y15601D01*
X130737Y16193D01*
X129592Y16500D01*
D02*
G37*
G36*
X128500D02*
X128408D01*
X127263Y16193D01*
X126237Y15601D01*
X125399Y14763D01*
X124807Y13737D01*
X124500Y12592D01*
Y12500D01*
X128500D01*
Y16500D01*
D02*
G37*
G36*
X119592D02*
X119500D01*
Y12500D01*
X123500D01*
Y12592D01*
X123193Y13737D01*
X122601Y14763D01*
X121763Y15601D01*
X120737Y16193D01*
X119592Y16500D01*
D02*
G37*
G36*
X118500D02*
X118408D01*
X117263Y16193D01*
X116237Y15601D01*
X115399Y14763D01*
X114807Y13737D01*
X114500Y12592D01*
Y12500D01*
X118500D01*
Y16500D01*
D02*
G37*
G36*
X34592Y15500D02*
X34500D01*
Y11500D01*
X38500D01*
Y11592D01*
X38193Y12737D01*
X37601Y13763D01*
X36763Y14601D01*
X35737Y15193D01*
X34592Y15500D01*
D02*
G37*
G36*
X24592D02*
X24500D01*
Y11500D01*
X28500D01*
Y11592D01*
X28193Y12737D01*
X27601Y13763D01*
X26763Y14601D01*
X25737Y15193D01*
X24592Y15500D01*
D02*
G37*
G36*
X14592D02*
X14500D01*
Y11500D01*
X18500D01*
Y11592D01*
X18193Y12737D01*
X17601Y13763D01*
X16763Y14601D01*
X15737Y15193D01*
X14592Y15500D01*
D02*
G37*
G36*
X369500D02*
X365500D01*
Y11500D01*
X365592D01*
X366737Y11807D01*
X367763Y12399D01*
X368601Y13237D01*
X369193Y14263D01*
X369500Y15408D01*
Y15500D01*
D02*
G37*
G36*
X364500D02*
X360500D01*
Y15408D01*
X360807Y14263D01*
X361399Y13237D01*
X362237Y12399D01*
X363263Y11807D01*
X364408Y11500D01*
X364500D01*
Y15500D01*
D02*
G37*
G36*
X359500D02*
X355500D01*
Y11500D01*
X355592D01*
X356737Y11807D01*
X357763Y12399D01*
X358601Y13237D01*
X359193Y14263D01*
X359500Y15408D01*
Y15500D01*
D02*
G37*
G36*
X354500D02*
X350500D01*
Y15408D01*
X350807Y14263D01*
X351399Y13237D01*
X352237Y12399D01*
X353263Y11807D01*
X354408Y11500D01*
X354500D01*
Y15500D01*
D02*
G37*
G36*
X349500D02*
X345500D01*
Y11500D01*
X345592D01*
X346737Y11807D01*
X347763Y12399D01*
X348601Y13237D01*
X349193Y14263D01*
X349500Y15408D01*
Y15500D01*
D02*
G37*
G36*
X344500D02*
X340500D01*
Y15408D01*
X340807Y14263D01*
X341399Y13237D01*
X342237Y12399D01*
X343263Y11807D01*
X344408Y11500D01*
X344500D01*
Y15500D01*
D02*
G37*
G36*
X335592Y20500D02*
X334408D01*
X333263Y20193D01*
X332237Y19601D01*
X331399Y18763D01*
X330807Y17737D01*
X330500Y16592D01*
Y15408D01*
X330807Y14263D01*
X331399Y13237D01*
X332237Y12399D01*
X333263Y11807D01*
X334408Y11500D01*
X335592D01*
X336737Y11807D01*
X337763Y12399D01*
X338601Y13237D01*
X339193Y14263D01*
X339500Y15408D01*
Y16592D01*
X339193Y17737D01*
X338601Y18763D01*
X337763Y19601D01*
X336737Y20193D01*
X335592Y20500D01*
D02*
G37*
G36*
X33500Y15500D02*
X33408D01*
X32263Y15193D01*
X31237Y14601D01*
X30399Y13763D01*
X29807Y12737D01*
X29500Y11592D01*
Y11500D01*
X33500D01*
Y15500D01*
D02*
G37*
G36*
X23500D02*
X23408D01*
X22263Y15193D01*
X21237Y14601D01*
X20399Y13763D01*
X19807Y12737D01*
X19500Y11592D01*
Y11500D01*
X23500D01*
Y15500D01*
D02*
G37*
G36*
X13500D02*
X13408D01*
X12263Y15193D01*
X11237Y14601D01*
X10399Y13763D01*
X9807Y12737D01*
X9500Y11592D01*
Y11500D01*
X13500D01*
Y15500D01*
D02*
G37*
G36*
X319000Y14500D02*
X315500D01*
Y11000D01*
X315527D01*
X316544Y11273D01*
X317456Y11799D01*
X318201Y12544D01*
X318727Y13456D01*
X319000Y14473D01*
Y14500D01*
D02*
G37*
G36*
X314500D02*
X311000D01*
Y14473D01*
X311273Y13456D01*
X311799Y12544D01*
X312544Y11799D01*
X313456Y11273D01*
X314473Y11000D01*
X314500D01*
Y14500D01*
D02*
G37*
G36*
X285527Y19000D02*
X284473D01*
X283456Y18727D01*
X282544Y18201D01*
X281799Y17456D01*
X281273Y16544D01*
X281000Y15527D01*
Y14473D01*
X281273Y13456D01*
X281799Y12544D01*
X282544Y11799D01*
X283456Y11273D01*
X284473Y11000D01*
X285527D01*
X286544Y11273D01*
X287456Y11799D01*
X288201Y12544D01*
X288727Y13456D01*
X289000Y14473D01*
Y15527D01*
X288727Y16544D01*
X288201Y17456D01*
X287456Y18201D01*
X286544Y18727D01*
X285527Y19000D01*
D02*
G37*
G36*
X95527D02*
X94473D01*
X93456Y18727D01*
X92544Y18201D01*
X91799Y17456D01*
X91273Y16544D01*
X91000Y15527D01*
Y14473D01*
X91273Y13456D01*
X91799Y12544D01*
X92544Y11799D01*
X93456Y11273D01*
X94473Y11000D01*
X95527D01*
X96544Y11273D01*
X97456Y11799D01*
X98201Y12544D01*
X98727Y13456D01*
X99000Y14473D01*
Y15527D01*
X98727Y16544D01*
X98201Y17456D01*
X97456Y18201D01*
X96544Y18727D01*
X95527Y19000D01*
D02*
G37*
G36*
X69000Y14500D02*
X65500D01*
Y11000D01*
X65527D01*
X66544Y11273D01*
X67456Y11799D01*
X68201Y12544D01*
X68727Y13456D01*
X69000Y14473D01*
Y14500D01*
D02*
G37*
G36*
X64500D02*
X61000D01*
Y14473D01*
X61273Y13456D01*
X61799Y12544D01*
X62544Y11799D01*
X63456Y11273D01*
X64473Y11000D01*
X64500D01*
Y14500D01*
D02*
G37*
G36*
X244592Y12500D02*
X244500D01*
Y8500D01*
X248500D01*
Y8592D01*
X248193Y9737D01*
X247601Y10763D01*
X246763Y11601D01*
X245737Y12193D01*
X244592Y12500D01*
D02*
G37*
G36*
X254592D02*
X254500D01*
Y8500D01*
X258500D01*
Y8592D01*
X258193Y9737D01*
X257601Y10763D01*
X256763Y11601D01*
X255737Y12193D01*
X254592Y12500D01*
D02*
G37*
G36*
X234592D02*
X234500D01*
Y8500D01*
X238500D01*
Y8592D01*
X238193Y9737D01*
X237601Y10763D01*
X236763Y11601D01*
X235737Y12193D01*
X234592Y12500D01*
D02*
G37*
G36*
X243500D02*
X243408D01*
X242263Y12193D01*
X241237Y11601D01*
X240399Y10763D01*
X239807Y9737D01*
X239500Y8592D01*
Y8500D01*
X243500D01*
Y12500D01*
D02*
G37*
G36*
X253500D02*
X253408D01*
X252263Y12193D01*
X251237Y11601D01*
X250399Y10763D01*
X249807Y9737D01*
X249500Y8592D01*
Y8500D01*
X253500D01*
Y12500D01*
D02*
G37*
G36*
X233500D02*
X233408D01*
X232263Y12193D01*
X231237Y11601D01*
X230399Y10763D01*
X229807Y9737D01*
X229500Y8592D01*
Y8500D01*
X233500D01*
Y12500D01*
D02*
G37*
G36*
X143500Y11500D02*
X139500D01*
Y7500D01*
X139592D01*
X140737Y7807D01*
X141763Y8399D01*
X142601Y9237D01*
X143193Y10263D01*
X143500Y11408D01*
Y11500D01*
D02*
G37*
G36*
X138500D02*
X134500D01*
Y11408D01*
X134807Y10263D01*
X135399Y9237D01*
X136237Y8399D01*
X137263Y7807D01*
X138408Y7500D01*
X138500D01*
Y11500D01*
D02*
G37*
G36*
X133500D02*
X129500D01*
Y7500D01*
X129592D01*
X130737Y7807D01*
X131763Y8399D01*
X132601Y9237D01*
X133193Y10263D01*
X133500Y11408D01*
Y11500D01*
D02*
G37*
G36*
X128500D02*
X124500D01*
Y11408D01*
X124807Y10263D01*
X125399Y9237D01*
X126237Y8399D01*
X127263Y7807D01*
X128408Y7500D01*
X128500D01*
Y11500D01*
D02*
G37*
G36*
X123500D02*
X119500D01*
Y7500D01*
X119592D01*
X120737Y7807D01*
X121763Y8399D01*
X122601Y9237D01*
X123193Y10263D01*
X123500Y11408D01*
Y11500D01*
D02*
G37*
G36*
X118500D02*
X114500D01*
Y11408D01*
X114807Y10263D01*
X115399Y9237D01*
X116237Y8399D01*
X117263Y7807D01*
X118408Y7500D01*
X118500D01*
Y11500D01*
D02*
G37*
G36*
X109592Y16500D02*
X108408D01*
X107263Y16193D01*
X106237Y15601D01*
X105399Y14763D01*
X104807Y13737D01*
X104500Y12592D01*
Y11408D01*
X104807Y10263D01*
X105399Y9237D01*
X106237Y8399D01*
X107263Y7807D01*
X108408Y7500D01*
X109592D01*
X110737Y7807D01*
X111763Y8399D01*
X112601Y9237D01*
X113193Y10263D01*
X113500Y11408D01*
Y12592D01*
X113193Y13737D01*
X112601Y14763D01*
X111763Y15601D01*
X110737Y16193D01*
X109592Y16500D01*
D02*
G37*
G36*
X44592Y15500D02*
X43408D01*
X42263Y15193D01*
X41237Y14601D01*
X40399Y13763D01*
X39807Y12737D01*
X39500Y11592D01*
Y10408D01*
X39807Y9263D01*
X40399Y8237D01*
X41237Y7399D01*
X42263Y6807D01*
X43408Y6500D01*
X44592D01*
X45737Y6807D01*
X46763Y7399D01*
X47601Y8237D01*
X48193Y9263D01*
X48500Y10408D01*
Y11592D01*
X48193Y12737D01*
X47601Y13763D01*
X46763Y14601D01*
X45737Y15193D01*
X44592Y15500D01*
D02*
G37*
G36*
X38500Y10500D02*
X34500D01*
Y6500D01*
X34592D01*
X35737Y6807D01*
X36763Y7399D01*
X37601Y8237D01*
X38193Y9263D01*
X38500Y10408D01*
Y10500D01*
D02*
G37*
G36*
X33500D02*
X29500D01*
Y10408D01*
X29807Y9263D01*
X30399Y8237D01*
X31237Y7399D01*
X32263Y6807D01*
X33408Y6500D01*
X33500D01*
Y10500D01*
D02*
G37*
G36*
X28500D02*
X24500D01*
Y6500D01*
X24592D01*
X25737Y6807D01*
X26763Y7399D01*
X27601Y8237D01*
X28193Y9263D01*
X28500Y10408D01*
Y10500D01*
D02*
G37*
G36*
X23500D02*
X19500D01*
Y10408D01*
X19807Y9263D01*
X20399Y8237D01*
X21237Y7399D01*
X22263Y6807D01*
X23408Y6500D01*
X23500D01*
Y10500D01*
D02*
G37*
G36*
X18500D02*
X14500D01*
Y6500D01*
X14592D01*
X15737Y6807D01*
X16763Y7399D01*
X17601Y8237D01*
X18193Y9263D01*
X18500Y10408D01*
Y10500D01*
D02*
G37*
G36*
X13500D02*
X9500D01*
Y10408D01*
X9807Y9263D01*
X10399Y8237D01*
X11237Y7399D01*
X12263Y6807D01*
X13408Y6500D01*
X13500D01*
Y10500D01*
D02*
G37*
G36*
X83448Y9250D02*
X82552D01*
X81726Y8907D01*
X81093Y8275D01*
X80750Y7447D01*
Y6553D01*
X81093Y5725D01*
X81726Y5093D01*
X82552Y4750D01*
X83448D01*
X84275Y5093D01*
X84908Y5725D01*
X85250Y6553D01*
Y7447D01*
X84908Y8275D01*
X84275Y8907D01*
X83448Y9250D01*
D02*
G37*
G36*
X264592Y12500D02*
X263408D01*
X262263Y12193D01*
X261237Y11601D01*
X260399Y10763D01*
X259807Y9737D01*
X259500Y8592D01*
Y7408D01*
X259807Y6263D01*
X260399Y5237D01*
X261237Y4399D01*
X262263Y3807D01*
X263408Y3500D01*
X264592D01*
X265737Y3807D01*
X266763Y4399D01*
X267601Y5237D01*
X268193Y6263D01*
X268500Y7408D01*
Y8592D01*
X268193Y9737D01*
X267601Y10763D01*
X266763Y11601D01*
X265737Y12193D01*
X264592Y12500D01*
D02*
G37*
G36*
X258500Y7500D02*
X254500D01*
Y3500D01*
X254592D01*
X255737Y3807D01*
X256763Y4399D01*
X257601Y5237D01*
X258193Y6263D01*
X258500Y7408D01*
Y7500D01*
D02*
G37*
G36*
X253500D02*
X249500D01*
Y7408D01*
X249807Y6263D01*
X250399Y5237D01*
X251237Y4399D01*
X252263Y3807D01*
X253408Y3500D01*
X253500D01*
Y7500D01*
D02*
G37*
G36*
X248500D02*
X244500D01*
Y3500D01*
X244592D01*
X245737Y3807D01*
X246763Y4399D01*
X247601Y5237D01*
X248193Y6263D01*
X248500Y7408D01*
Y7500D01*
D02*
G37*
G36*
X243500D02*
X239500D01*
Y7408D01*
X239807Y6263D01*
X240399Y5237D01*
X241237Y4399D01*
X242263Y3807D01*
X243408Y3500D01*
X243500D01*
Y7500D01*
D02*
G37*
G36*
X238500D02*
X234500D01*
Y3500D01*
X234592D01*
X235737Y3807D01*
X236763Y4399D01*
X237601Y5237D01*
X238193Y6263D01*
X238500Y7408D01*
Y7500D01*
D02*
G37*
G36*
X233500D02*
X229500D01*
Y7408D01*
X229807Y6263D01*
X230399Y5237D01*
X231237Y4399D01*
X232263Y3807D01*
X233408Y3500D01*
X233500D01*
Y7500D01*
D02*
G37*
G36*
X92448Y7250D02*
X91552D01*
X90725Y6908D01*
X90092Y6274D01*
X89750Y5447D01*
Y4552D01*
X90092Y3726D01*
X90725Y3093D01*
X91552Y2750D01*
X92448D01*
X93274Y3093D01*
X93907Y3726D01*
X94250Y4552D01*
Y5447D01*
X93907Y6274D01*
X93274Y6908D01*
X92448Y7250D01*
D02*
G37*
%LPD*%
D70*
X24000Y197000D02*
D03*
Y207000D02*
D03*
Y177000D02*
D03*
Y187000D02*
D03*
X130000Y313000D02*
D03*
X140000D02*
D03*
X110000D02*
D03*
X120000D02*
D03*
X110000Y272000D02*
D03*
Y262000D02*
D03*
Y292000D02*
D03*
Y282000D02*
D03*
X356000Y34000D02*
D03*
X366000D02*
D03*
X336000D02*
D03*
X346000D02*
D03*
X366000Y321000D02*
D03*
X376000D02*
D03*
X346000D02*
D03*
X356000D02*
D03*
X318000Y320000D02*
D03*
X328000D02*
D03*
X298000D02*
D03*
X308000D02*
D03*
X180000Y335000D02*
D03*
X190000D02*
D03*
X170000D02*
D03*
X160000D02*
D03*
X176000Y371000D02*
D03*
Y381000D02*
D03*
Y361000D02*
D03*
Y351000D02*
D03*
X257000Y360000D02*
D03*
Y350000D02*
D03*
Y380000D02*
D03*
Y370000D02*
D03*
X8000Y151000D02*
D03*
Y161000D02*
D03*
Y131000D02*
D03*
Y141000D02*
D03*
X51000Y103000D02*
D03*
Y93000D02*
D03*
Y123000D02*
D03*
Y113000D02*
D03*
X311000Y239000D02*
D03*
X119000Y12000D02*
D03*
X109000D02*
D03*
X139000D02*
D03*
X129000D02*
D03*
X34000Y11000D02*
D03*
X44000D02*
D03*
X14000D02*
D03*
X24000D02*
D03*
X254000Y8000D02*
D03*
X264000D02*
D03*
X234000D02*
D03*
X244000D02*
D03*
X345000Y16000D02*
D03*
X335000D02*
D03*
X365000D02*
D03*
X355000D02*
D03*
X31000Y338000D02*
D03*
X41000D02*
D03*
X11000D02*
D03*
X21000D02*
D03*
X121000Y335000D02*
D03*
X111000D02*
D03*
X141000D02*
D03*
X131000D02*
D03*
X356000Y382000D02*
D03*
X346000D02*
D03*
X376000D02*
D03*
X366000D02*
D03*
X311000Y219000D02*
D03*
X301000D02*
D03*
X311000Y229000D02*
D03*
X301000D02*
D03*
Y239000D02*
D03*
X82000Y308000D02*
D03*
Y318000D02*
D03*
Y288000D02*
D03*
Y298000D02*
D03*
D71*
X47780Y285693D02*
D03*
X46780Y361693D02*
D03*
D72*
X34000Y304000D02*
D03*
X57622D02*
D03*
X56622Y380000D02*
D03*
X33000D02*
D03*
D73*
X16000Y244890D02*
D03*
Y231110D02*
D03*
D74*
X45000Y260000D02*
D03*
X35000D02*
D03*
X25000D02*
D03*
X62000Y187000D02*
D03*
X52000D02*
D03*
X42000D02*
D03*
X123000Y358000D02*
D03*
Y368000D02*
D03*
Y378000D02*
D03*
D75*
X132000Y230000D02*
D03*
X208000Y45000D02*
D03*
X132000Y220000D02*
D03*
X208000Y35000D02*
D03*
D76*
X95000Y145000D02*
D03*
Y115000D02*
D03*
Y85000D02*
D03*
Y95000D02*
D03*
Y105000D02*
D03*
Y125000D02*
D03*
Y135000D02*
D03*
Y155000D02*
D03*
X65000D02*
D03*
Y145000D02*
D03*
Y135000D02*
D03*
Y125000D02*
D03*
Y115000D02*
D03*
Y105000D02*
D03*
Y95000D02*
D03*
Y85000D02*
D03*
Y55000D02*
D03*
Y65000D02*
D03*
Y45000D02*
D03*
Y35000D02*
D03*
Y25000D02*
D03*
Y15000D02*
D03*
X315000Y191000D02*
D03*
Y181000D02*
D03*
Y171000D02*
D03*
Y161000D02*
D03*
Y151000D02*
D03*
Y141000D02*
D03*
Y131000D02*
D03*
Y121000D02*
D03*
Y111000D02*
D03*
Y101000D02*
D03*
Y15000D02*
D03*
Y25000D02*
D03*
Y35000D02*
D03*
Y45000D02*
D03*
Y55000D02*
D03*
Y65000D02*
D03*
Y75000D02*
D03*
Y85000D02*
D03*
X285000D02*
D03*
Y75000D02*
D03*
Y65000D02*
D03*
Y55000D02*
D03*
Y45000D02*
D03*
Y35000D02*
D03*
Y25000D02*
D03*
Y15000D02*
D03*
X95000Y25000D02*
D03*
Y15000D02*
D03*
Y35000D02*
D03*
Y45000D02*
D03*
Y55000D02*
D03*
Y65000D02*
D03*
X285000Y191000D02*
D03*
Y181000D02*
D03*
Y171000D02*
D03*
Y161000D02*
D03*
Y151000D02*
D03*
Y141000D02*
D03*
Y131000D02*
D03*
Y121000D02*
D03*
Y111000D02*
D03*
Y101000D02*
D03*
D77*
X300355Y380125D02*
D03*
Y361425D02*
D03*
X329645D02*
D03*
Y380125D02*
D03*
D78*
X321220Y357875D02*
D03*
X318072Y362614D02*
D03*
X311772D02*
D03*
X314921Y357875D02*
D03*
X308623D02*
D03*
D79*
X370795Y70000D02*
D03*
X345205D02*
D03*
D80*
X56000Y147000D02*
D03*
X50000Y156000D02*
D03*
X72000Y171000D02*
D03*
X163000Y221000D02*
D03*
X333000Y303600D02*
D03*
Y315000D02*
D03*
X187000Y62000D02*
D03*
X97000Y4000D02*
D03*
X124000Y235000D02*
D03*
X274000Y359000D02*
D03*
X170000Y101000D02*
D03*
X239000Y165000D02*
D03*
X288000Y320000D02*
D03*
X278000Y336000D02*
D03*
X246000Y168000D02*
D03*
X267000Y337000D02*
D03*
X289000Y303000D02*
D03*
X287000Y292000D02*
D03*
X262000D02*
D03*
X201000Y308000D02*
D03*
X52000Y138000D02*
D03*
X213000Y331000D02*
D03*
X47000Y174000D02*
D03*
X34000Y152000D02*
D03*
X59000Y210000D02*
D03*
X275000Y303000D02*
D03*
X81000Y11000D02*
D03*
X160000Y74000D02*
D03*
X153000Y92000D02*
D03*
X156700Y141600D02*
D03*
X167000Y132000D02*
D03*
X184000Y180000D02*
D03*
X144000Y101000D02*
D03*
X104000Y140000D02*
D03*
X262000Y40000D02*
D03*
X258000Y179000D02*
D03*
X188000Y195000D02*
D03*
X114000Y253000D02*
D03*
X297000Y211000D02*
D03*
X56000Y66000D02*
D03*
X144000Y239000D02*
D03*
X60000Y243000D02*
D03*
X52000Y239000D02*
D03*
X50000Y251000D02*
D03*
X177000Y101000D02*
D03*
X43000Y49000D02*
D03*
X53000Y50000D02*
D03*
X68000Y249000D02*
D03*
X10000Y260100D02*
D03*
X286000Y218000D02*
D03*
X289000Y265000D02*
D03*
X228000Y243000D02*
D03*
X202000Y210000D02*
D03*
X206000Y256000D02*
D03*
X181000Y115000D02*
D03*
X138000Y77000D02*
D03*
X124000D02*
D03*
X208000Y144000D02*
D03*
X326000Y204000D02*
D03*
X310000Y335400D02*
D03*
X382000Y353000D02*
D03*
X301000Y350000D02*
D03*
X236000Y348000D02*
D03*
X382000Y165000D02*
D03*
X364000Y224000D02*
D03*
X356000Y110000D02*
D03*
X355000Y166000D02*
D03*
X104000Y392000D02*
D03*
X169250Y76000D02*
D03*
X199000Y29000D02*
D03*
X164000Y49000D02*
D03*
X178000Y84000D02*
D03*
D81*
X45000Y252000D02*
D03*
X56000Y71000D02*
D03*
X338000Y314000D02*
D03*
Y307000D02*
D03*
X283000Y303750D02*
D03*
X153000Y98000D02*
D03*
X149000Y101000D02*
D03*
X141000Y105000D02*
D03*
X92000Y5000D02*
D03*
X52000Y151000D02*
D03*
X46000Y160000D02*
D03*
X57000Y215000D02*
D03*
X62000Y238000D02*
D03*
X57000Y239000D02*
D03*
X127000Y238000D02*
D03*
X279000Y341000D02*
D03*
X268000Y342000D02*
D03*
X48000Y169000D02*
D03*
X323000Y199000D02*
D03*
X286000Y204000D02*
D03*
X283000Y318000D02*
D03*
X262000Y183000D02*
D03*
Y45000D02*
D03*
X114000Y248000D02*
D03*
X269000Y302000D02*
D03*
X267000Y296000D02*
D03*
X207000Y307000D02*
D03*
X283000Y296000D02*
D03*
X288000Y325000D02*
D03*
X208000Y332000D02*
D03*
X140000Y237000D02*
D03*
X83000Y7000D02*
D03*
X164000Y76000D02*
D03*
X186000Y184000D02*
D03*
X39000Y152000D02*
D03*
X180000Y106000D02*
D03*
X177000Y112000D02*
D03*
X49000Y235000D02*
D03*
X301000Y208000D02*
D03*
X185000Y199000D02*
D03*
X104000Y135000D02*
D03*
X241000Y160000D02*
D03*
X248000Y163000D02*
D03*
X173000Y96000D02*
D03*
M02*
