G04*
G04 #@! TF.GenerationSoftware,Altium Limited,Altium Designer,23.8.1 (32)*
G04*
G04 Layer_Physical_Order=1*
G04 Layer_Color=255*
%FSLAX25Y25*%
%MOIN*%
G70*
G04*
G04 #@! TF.SameCoordinates,CF8B6EB2-DAF4-4016-BDB3-9DCBFEF17629*
G04*
G04*
G04 #@! TF.FilePolarity,Positive*
G04*
G01*
G75*
%ADD13C,0.01000*%
%ADD14C,0.02000*%
%ADD15C,0.00600*%
%ADD23R,0.05709X0.01181*%
%ADD24R,0.05787X0.01181*%
%ADD25R,0.07100X0.04400*%
%ADD26R,0.04400X0.07100*%
%ADD27R,0.07087X0.05512*%
%ADD28R,0.03937X0.02756*%
%ADD29R,0.04750X0.07480*%
%ADD30R,0.06693X0.03300*%
%ADD31R,0.06102X0.02362*%
%ADD32R,0.07300X0.05400*%
G04:AMPARAMS|DCode=33|XSize=63.39mil|YSize=23.23mil|CornerRadius=2.9mil|HoleSize=0mil|Usage=FLASHONLY|Rotation=270.000|XOffset=0mil|YOffset=0mil|HoleType=Round|Shape=RoundedRectangle|*
%AMROUNDEDRECTD33*
21,1,0.06339,0.01742,0,0,270.0*
21,1,0.05758,0.02323,0,0,270.0*
1,1,0.00581,-0.00871,-0.02879*
1,1,0.00581,-0.00871,0.02879*
1,1,0.00581,0.00871,0.02879*
1,1,0.00581,0.00871,-0.02879*
%
%ADD33ROUNDEDRECTD33*%
%ADD34O,0.08661X0.02400*%
%ADD35R,0.02000X0.06496*%
%ADD36R,0.06496X0.02000*%
%ADD37R,0.06693X0.12200*%
%ADD38R,0.04724X0.05906*%
G04:AMPARAMS|DCode=39|XSize=53.15mil|YSize=23.23mil|CornerRadius=5.81mil|HoleSize=0mil|Usage=FLASHONLY|Rotation=0.000|XOffset=0mil|YOffset=0mil|HoleType=Round|Shape=RoundedRectangle|*
%AMROUNDEDRECTD39*
21,1,0.05315,0.01161,0,0,0.0*
21,1,0.04154,0.02323,0,0,0.0*
1,1,0.01161,0.02077,-0.00581*
1,1,0.01161,-0.02077,-0.00581*
1,1,0.01161,-0.02077,0.00581*
1,1,0.01161,0.02077,0.00581*
%
%ADD39ROUNDEDRECTD39*%
%ADD69C,0.00600*%
%ADD70C,0.07000*%
%ADD71O,0.12992X0.07087*%
%ADD72O,0.07874X0.14961*%
%ADD73C,0.07874*%
%ADD74C,0.06496*%
%ADD75C,0.06378*%
%ADD76C,0.06000*%
%ADD77O,0.04724X0.09449*%
%ADD78C,0.04724*%
%ADD79C,0.06299*%
%ADD80C,0.02800*%
%ADD81C,0.02500*%
D13*
X28339Y142000D02*
X36000D01*
Y127900D02*
Y142000D01*
D14*
X30072Y127900D02*
X36000D01*
X38000Y45283D02*
Y59000D01*
X95000Y145000D02*
X110000D01*
X28100Y125928D02*
X30072Y127900D01*
X38000Y60450D02*
Y68000D01*
Y60450D02*
X38100Y60350D01*
X28100Y70350D02*
X38000Y60450D01*
X38100Y59000D02*
Y60350D01*
X28100Y70350D02*
Y125928D01*
X37000Y252000D02*
X45000D01*
X338000Y314000D02*
Y326000D01*
X330828Y333172D02*
X338000Y326000D01*
X218997Y308003D02*
X338000Y307000D01*
X218414Y308586D02*
X218997Y308003D01*
X269100Y289272D02*
X283000Y303750D01*
X269100Y276000D02*
Y289272D01*
X212000Y315000D02*
X218414Y308586D01*
X326000Y333172D02*
X330828D01*
X151172Y315000D02*
X212000D01*
X45000Y75000D02*
X85828D01*
X87000Y76172D02*
Y113828D01*
X85828Y75000D02*
X87000Y76172D01*
X38000Y68000D02*
X45000Y75000D01*
X123000Y245000D02*
X150000D01*
X207000Y302000D02*
Y307000D01*
X150000Y245000D02*
X207000Y302000D01*
X132000Y230000D02*
Y231185D01*
X129924Y233261D02*
X132000Y231185D01*
X129924Y233261D02*
Y234941D01*
X127000Y237865D02*
Y238000D01*
Y237865D02*
X129924Y234941D01*
X35000Y260000D02*
Y274800D01*
X33800Y276000D02*
X35000Y274800D01*
X24862Y253752D02*
Y259862D01*
X16000Y244890D02*
X24862Y253752D01*
Y259862D02*
X25000Y260000D01*
X279000Y341000D02*
X284172D01*
X291828Y392000D02*
X293000Y390828D01*
X224559Y392000D02*
X291828D01*
X293000Y364000D02*
Y390828D01*
X285000Y359000D02*
X288000D01*
X293000Y364000D01*
X268000Y342000D02*
X285000Y359000D01*
X311900Y272000D02*
X311950Y271950D01*
X311500Y247000D02*
X311800Y247300D01*
Y270000D01*
X284172Y341000D02*
X287276D01*
X257000Y247000D02*
X311500D01*
X311000Y239000D02*
X311500Y239500D01*
Y247000D01*
X323000Y199000D02*
X328000Y194000D01*
X269000Y204000D02*
X286000D01*
X283000Y339828D02*
X284172Y341000D01*
X283000Y318000D02*
Y339828D01*
X263000Y276000D02*
X269100D01*
X257000Y247000D02*
Y270000D01*
X262000Y197000D02*
X269000Y204000D01*
X365375Y189095D02*
X365650Y189370D01*
X365375Y173275D02*
Y189095D01*
X365100Y173000D02*
X365375Y173275D01*
X365100Y157000D02*
Y173000D01*
X360172Y157000D02*
X365100D01*
X359000Y155828D02*
X360172Y157000D01*
X365100Y155650D02*
X373975Y146775D01*
Y143005D02*
Y146775D01*
X365100Y155650D02*
Y157000D01*
X373975Y143005D02*
X375350Y141630D01*
X346350Y141995D02*
X359000Y154645D01*
Y155828D01*
X344975Y142005D02*
X346350Y140630D01*
X329172Y189000D02*
X335300D01*
X334700Y188400D02*
X335300Y189000D01*
X328000Y190172D02*
X329172Y189000D01*
X334700Y174600D02*
Y188400D01*
X328000Y190172D02*
Y194000D01*
X262000Y183000D02*
Y197000D01*
X334100Y154650D02*
Y156000D01*
Y154650D02*
X344975Y143775D01*
X334100Y156000D02*
Y174000D01*
X346350Y140630D02*
Y141995D01*
X344975Y142005D02*
Y143775D01*
X334100Y174000D02*
X334700Y174600D01*
X222779Y390220D02*
X224559Y392000D01*
X222779Y377100D02*
Y390220D01*
X166000Y393000D02*
X220000D01*
X222779Y390220D01*
X154000Y381000D02*
X166000Y393000D01*
X154000Y369000D02*
Y381000D01*
X257000Y270000D02*
X263000Y276000D01*
X257000Y184000D02*
Y247000D01*
X154000Y341000D02*
X160000Y335000D01*
X154000Y341000D02*
Y369000D01*
X160000Y335000D02*
X176000Y351000D01*
X98000Y249172D02*
Y261191D01*
Y249172D02*
X99172Y248000D01*
X90286Y268905D02*
X98000Y261191D01*
X99172Y248000D02*
X114000D01*
X86630Y270500D02*
X88500D01*
X90095Y268905D02*
X90286D01*
X88500Y270500D02*
X90095Y268905D01*
X124172Y230000D02*
X132000D01*
X123000Y228828D02*
X124172Y230000D01*
X256000Y183000D02*
X257000Y184000D01*
X228900Y183000D02*
X256000D01*
X227900Y184000D02*
X228000Y183900D01*
X256000Y183000D02*
X262000D01*
X228000Y178172D02*
Y183900D01*
X227900Y184000D02*
Y199000D01*
X226828Y177000D02*
X228000Y178172D01*
X123000Y145000D02*
Y228828D01*
X188950Y144150D02*
X221800Y177000D01*
X226828D01*
X188000Y144150D02*
X188950D01*
X208000Y45000D02*
X262000D01*
X123000Y145000D02*
X187150D01*
X110000D02*
X123000D01*
X187150D02*
X188000Y144150D01*
X110000Y130000D02*
Y145000D01*
X95000Y115000D02*
X110000Y130000D01*
X88172Y115000D02*
X95000D01*
X87000Y113828D02*
X88172Y115000D01*
X39260Y42016D02*
Y44024D01*
X38000Y45283D02*
X39260Y44024D01*
X150000Y316172D02*
X151172Y315000D01*
X208000Y332000D02*
Y343000D01*
X164000Y66900D02*
Y76000D01*
X54172Y205828D02*
X59950D01*
X48236Y211764D02*
X54172Y205828D01*
X30828Y177000D02*
X32000Y178172D01*
Y207000D01*
X24000Y177000D02*
X30828D01*
X32000Y207000D02*
X36764Y211764D01*
X48236D01*
X48743Y226000D02*
X48904Y226161D01*
Y234904D01*
X49000Y235000D01*
X48236Y226000D02*
X48743D01*
X35248Y253752D02*
X37000Y252000D01*
X35000Y260000D02*
X35248Y259752D01*
Y253752D02*
Y259752D01*
X60122Y206000D02*
X67100D01*
X59950Y205828D02*
X60122Y206000D01*
X48236Y211764D02*
Y226000D01*
X45000Y260000D02*
X57622Y272622D01*
Y304000D01*
X73823Y319000D02*
X74823Y318000D01*
X82000D01*
X68000Y319000D02*
X73823D01*
X57622Y308622D02*
X68000Y319000D01*
X57622Y304000D02*
Y308622D01*
X113000Y186000D02*
Y235000D01*
X123000Y245000D01*
X81000Y126172D02*
X82172Y125000D01*
X81000Y126172D02*
Y172828D01*
X82172Y125000D02*
X95000D01*
X82172Y174000D02*
X101000D01*
X81000Y172828D02*
X82172Y174000D01*
X101000D02*
X113000Y186000D01*
X196205Y354795D02*
X208000Y343000D01*
X196205Y354795D02*
Y368000D01*
X132000Y220000D02*
X132361Y219639D01*
X134172Y212000D02*
X146828D01*
X132361Y213811D02*
Y219639D01*
Y213811D02*
X134172Y212000D01*
X146828D02*
X147000Y212172D01*
X150000Y316172D02*
Y358000D01*
X147000Y212172D02*
Y217100D01*
X146100Y218000D02*
X147000Y217100D01*
Y212172D02*
X148172Y211000D01*
X164561D01*
X167061Y213500D01*
X170300D01*
X183900Y130150D02*
X188300D01*
X190000Y131850D01*
X199875Y131975D02*
X200000Y132100D01*
X190000Y131850D02*
X190125Y131975D01*
X199875D01*
X183900Y122850D02*
Y130150D01*
X123000Y358000D02*
X150000D01*
X326000Y333172D02*
Y341000D01*
X342000Y351900D02*
Y376808D01*
X346000Y380808D01*
Y382000D01*
X340800Y350700D02*
X342000Y351900D01*
X335700Y350700D02*
X340800D01*
X326000Y341000D02*
X335700Y350700D01*
X321900Y341000D02*
X326000D01*
X321560Y341340D02*
Y357535D01*
Y341340D02*
X321900Y341000D01*
X321220Y357875D02*
X321560Y357535D01*
X257000Y380000D02*
X272100D01*
X237350Y370800D02*
X246550Y380000D01*
X236000Y370800D02*
X237350D01*
X246550Y380000D02*
X257000D01*
X221795Y368000D02*
X231850D01*
X234650Y370800D01*
X236000D01*
X196205Y368000D02*
X221795D01*
X111000Y335000D02*
Y336192D01*
X115000Y340192D01*
Y365000D01*
X117140Y367140D01*
X122140D01*
X123000Y368000D01*
X107000Y360000D02*
X112000Y365000D01*
Y376000D01*
X123000Y368000D02*
X141200D01*
X142200Y369000D01*
X114000Y378000D02*
X123000D01*
X112000Y376000D02*
X114000Y378000D01*
X75000Y360000D02*
X107000D01*
X56622Y378046D02*
X59336Y375333D01*
X61289D02*
X67622Y369000D01*
X75100D01*
X56622Y378046D02*
Y380000D01*
X59336Y375333D02*
X61289D01*
X56622Y381954D02*
X59336Y384667D01*
X61289D01*
X62622Y386000D02*
X75100D01*
X56622Y380000D02*
Y381954D01*
X61289Y384667D02*
X62622Y386000D01*
X53000Y338000D02*
X75000Y360000D01*
X41000Y338000D02*
X53000D01*
X75000Y360000D02*
Y368900D01*
X75100Y369000D01*
X200000Y36172D02*
X201172Y35000D01*
X200000Y36172D02*
Y41000D01*
X201172Y35000D02*
X208000D01*
X198997Y42003D02*
X200000Y41000D01*
X198300Y42700D02*
X198997Y42003D01*
X193200Y42700D02*
X198300D01*
X192000Y43900D02*
X193200Y42700D01*
X179000Y43900D02*
X192000D01*
X170289Y46461D02*
X172450Y44300D01*
X170289Y46461D02*
Y64711D01*
X178600Y44300D02*
X179000Y43900D01*
X172450Y44300D02*
X178600D01*
X169997Y65003D02*
X170289Y64711D01*
X169300Y65700D02*
X169997Y65003D01*
X165200Y65700D02*
X169300D01*
X164000Y66900D02*
X165200Y65700D01*
X175200Y94200D02*
X176000Y95000D01*
X174400Y93400D02*
X175200Y94200D01*
X174800D02*
X175200D01*
X173000Y96000D02*
X174800Y94200D01*
X179000Y95000D02*
X180700Y93300D01*
Y89150D02*
Y93300D01*
X176000Y95000D02*
X179000D01*
X174400Y89150D02*
Y93400D01*
D15*
X332985Y300900D02*
G03*
X333149Y300904I15J2700D01*
G01*
X139068Y108351D02*
G03*
X138450Y107494I280J-853D01*
G01*
X282772Y78228D02*
G03*
X284791Y76607I18813J21368D01*
G01*
X54792Y131947D02*
Y141824D01*
X52000Y129154D02*
X54792Y131947D01*
X52000Y144617D02*
X54792Y141824D01*
X39364Y149932D02*
X43358Y145937D01*
X39364Y149932D02*
Y151637D01*
X39000Y152000D02*
X39364Y151637D01*
X36000Y116100D02*
X37350D01*
X40450Y113000D01*
X51000D01*
X25108Y137892D02*
X28168D01*
X28339Y138063D01*
X23000Y135784D02*
X25108Y137892D01*
X24906Y139953D02*
X28261D01*
X28339Y140032D01*
X21000Y136047D02*
X24906Y139953D01*
Y144046D02*
X28261D01*
X22000Y146953D02*
X24906Y144046D01*
X23972Y148000D02*
X26035Y145937D01*
X23952Y148000D02*
X23972D01*
X26035Y145937D02*
X28339D01*
X22000Y146953D02*
Y152000D01*
X28261Y144046D02*
X28339Y143968D01*
X51000Y71000D02*
X56000D01*
X49751Y71751D02*
X50248D01*
X51000Y71000D01*
X69000Y168000D02*
X72000Y171000D01*
X54352Y174000D02*
X72550D01*
X54000Y173649D02*
X54352Y174000D01*
X72550D02*
X81650Y183100D01*
X83000D01*
X159274Y219374D02*
X161374D01*
X163000Y221000D01*
X157900Y218000D02*
X159274Y219374D01*
X274000Y322000D02*
X284651Y311349D01*
X284824Y311176D02*
X343132Y310476D01*
X343309Y310476D01*
X344021Y311021D01*
X284651Y311349D02*
X284824Y311176D01*
X344049Y311049D02*
X344168Y311168D01*
X344021Y311021D02*
X344049Y311049D01*
X344168Y311168D02*
X346000Y313000D01*
Y321000D01*
Y306000D02*
Y313000D01*
X313743Y301006D02*
X314240D01*
X308737Y296000D02*
X313743Y301006D01*
X314240D02*
X332985Y300900D01*
X333149Y300904D02*
X341357Y301358D01*
X346000Y306000D01*
X187000Y55100D02*
Y62000D01*
Y67756D01*
Y62000D02*
X187067Y62067D01*
X189300D01*
X190533Y63300D01*
X150000Y98000D02*
X153000D01*
X159057D01*
X149000Y97000D02*
X150000Y98000D01*
X148486Y101000D02*
X149000D01*
X147424Y99959D02*
X147445D01*
X149107Y101107D02*
X159150D01*
X147000Y18000D02*
Y99535D01*
X147424Y99959D01*
X147445D02*
X148486Y101000D01*
X149000D02*
X149107Y101107D01*
X141000Y105000D02*
X155850D01*
X155363Y108207D02*
X158350D01*
X155943Y104907D02*
X156202D01*
X138450Y107494D02*
X138450Y107485D01*
X155219Y108351D02*
X155363Y108207D01*
X139068Y108351D02*
X155219Y108351D01*
X156202Y104907D02*
X156902Y104207D01*
X158350Y108207D02*
X159850Y106707D01*
X138450Y99800D02*
Y107485D01*
X155850Y105000D02*
X155943Y104907D01*
X156902Y104207D02*
X159150D01*
X92326Y5000D02*
X93683Y6357D01*
X94006D02*
X95000Y7351D01*
X92000Y5000D02*
X92326D01*
X93683Y6357D02*
X94006D01*
X95000Y7351D02*
Y15000D01*
X86648Y3000D02*
X87000Y3351D01*
Y25000D01*
X87752Y25752D01*
X44000Y66000D02*
X49751Y71751D01*
X52000Y144617D02*
Y151000D01*
X39243Y161000D02*
X40243Y160000D01*
X46000D01*
X34000Y161000D02*
X39243D01*
X57000Y215000D02*
Y221100D01*
X62000Y238000D02*
Y241182D01*
X63000Y242182D01*
Y247006D01*
X57000Y232900D02*
Y239000D01*
X124000Y241000D02*
X139648D01*
X140000Y240649D01*
X117000Y234000D02*
X124000Y241000D01*
X117000Y185000D02*
Y234000D01*
X274000Y341000D02*
X290869Y357869D01*
X274000Y322000D02*
Y341000D01*
X290869Y357869D02*
X296577D01*
X274000Y366900D02*
X274100Y367000D01*
X274000Y359000D02*
Y366900D01*
X45693Y138031D02*
X51968D01*
X45661Y138063D02*
X45693Y138031D01*
X51968D02*
X52000Y138000D01*
Y141000D01*
X45661Y142000D02*
X51000D01*
X52000Y141000D01*
X65900Y168000D02*
X69000D01*
X52000Y124000D02*
Y129154D01*
X23000Y49000D02*
X34454Y37546D01*
X23000Y49000D02*
Y135784D01*
X21000Y46000D02*
X34000Y33000D01*
X21000Y46000D02*
Y136047D01*
X48000Y169489D02*
X50756Y172244D01*
X48000Y169000D02*
Y169489D01*
X23952Y150952D02*
X34000Y161000D01*
X40000Y165000D02*
X47000D01*
X49450Y166450D02*
X51000Y168000D01*
X47000Y165000D02*
X48450Y166450D01*
X49450D01*
X207800Y184000D02*
X216100D01*
X207900Y199000D02*
X216100D01*
X213000Y302000D02*
X269000D01*
X213000Y296000D02*
X267000D01*
X283000D02*
X308737D01*
X288000Y325000D02*
X293000D01*
X140364Y236087D02*
X146100Y230350D01*
X140000Y237000D02*
X140364Y236636D01*
Y236087D02*
Y236636D01*
X146100Y229000D02*
Y230350D01*
X140000Y237000D02*
Y240649D01*
X56000Y7351D02*
X56352Y7000D01*
X44000Y11000D02*
X52000Y3000D01*
X56352Y7000D02*
X83000D01*
X52000Y3000D02*
X86648D01*
X153800Y77964D02*
X156202Y94107D01*
X153800Y22551D02*
X153976Y22376D01*
X154351Y22000D01*
X157000Y26351D02*
X157352Y26000D01*
X155400Y77302D02*
X165000Y86902D01*
X157000Y26351D02*
Y76000D01*
X153800Y77964D02*
X153800Y22551D01*
X155400Y25200D02*
Y77302D01*
X157000Y76000D02*
X165602Y84602D01*
X155400Y25200D02*
X156600Y24000D01*
X165000Y86902D02*
Y89150D01*
X165602Y84602D02*
X166539D01*
X156202Y94107D02*
X159150Y94807D01*
X159057Y98000D02*
X159150Y97907D01*
X180000Y189000D02*
X183768Y185232D01*
X184253D01*
X185486Y184000D01*
X196000D01*
X180000Y189000D02*
Y219000D01*
X184500Y223500D01*
X147000Y18000D02*
X148000Y17000D01*
X138000Y97900D02*
X138450Y99800D01*
X43358Y145937D02*
X45661D01*
X51000Y123000D02*
X52000Y124000D01*
X51358Y143975D02*
X52000Y144617D01*
X45668Y143975D02*
X51358D01*
X52000Y187000D02*
Y196000D01*
X55500Y199500D02*
X103500D01*
X52000Y196000D02*
X55500Y199500D01*
X103500D02*
X107000Y203000D01*
Y234000D01*
X159850Y106707D02*
X178779D01*
X179486Y106000D02*
X180000D01*
X178779Y106707D02*
X179486Y106000D01*
X159850Y111207D02*
X175693D01*
X176486Y112000D02*
X177000D01*
X159150Y110507D02*
X159850Y111207D01*
X175693D02*
X176486Y112000D01*
X60249Y249757D02*
Y259248D01*
Y249757D02*
X63000Y247006D01*
X60249Y259248D02*
X61500Y260500D01*
X65370D01*
X57000Y221100D02*
X87100D01*
X89000Y219200D01*
X34454Y37546D02*
X42649D01*
X43000Y33000D02*
Y37195D01*
X42649Y37546D02*
X43000Y37195D01*
X39000Y33000D02*
X39260Y32740D01*
X34000Y33000D02*
X39000D01*
X50756Y184160D02*
X52000Y185405D01*
X50756Y172244D02*
Y184160D01*
X52000Y185405D02*
Y187000D01*
X51000Y168000D02*
X54100D01*
X23952Y148000D02*
Y150952D01*
X43000Y42016D02*
Y49000D01*
Y25000D02*
Y33000D01*
X56000Y7351D02*
Y21000D01*
X54000Y23000D02*
X56000Y21000D01*
X45000Y23000D02*
X54000D01*
X43000Y25000D02*
X45000Y23000D01*
X39260Y15740D02*
Y32740D01*
Y15740D02*
X44000Y11000D01*
Y56313D02*
Y66000D01*
Y56313D02*
X46740Y53572D01*
Y42016D02*
Y53572D01*
X51800Y51795D02*
Y57100D01*
Y51795D02*
X53000Y50595D01*
X49900Y59000D02*
X51800Y57100D01*
X53000Y50000D02*
Y50595D01*
X22000Y152000D02*
X35000Y165000D01*
X40000D01*
X54000Y168100D02*
Y173649D01*
Y168100D02*
X54100Y168000D01*
X100000Y292000D02*
X110000D01*
X98000Y277000D02*
Y290000D01*
X100000Y292000D01*
X79900Y233900D02*
Y240000D01*
X78900Y232900D02*
X79900Y233900D01*
X57000Y232900D02*
X78900D01*
X68000Y240100D02*
Y249000D01*
Y240100D02*
X68100Y240000D01*
X65370Y255500D02*
X67119D01*
X68000Y254619D01*
Y249000D02*
Y254619D01*
X10000Y260100D02*
Y267100D01*
X82100Y194000D02*
X83000Y194900D01*
X69000Y194000D02*
X82100D01*
X125000Y252000D02*
Y298000D01*
X107000Y234000D02*
X125000Y252000D01*
X110000Y313000D02*
X125000Y298000D01*
X62000Y187000D02*
X69000Y194000D01*
X42000Y178700D02*
Y187000D01*
X40100Y176800D02*
X42000Y178700D01*
X40000Y176800D02*
X40100D01*
X8000Y131000D02*
X14000D01*
X15000Y132000D01*
Y213000D01*
X20000Y218000D01*
X31000D01*
X33000Y220000D01*
Y229000D01*
X33740Y229740D01*
X37764D01*
X20100Y278800D02*
X22000Y276900D01*
X10000Y278800D02*
X20100D01*
X22000Y276000D02*
Y276900D01*
X79000Y276648D02*
X79352Y277000D01*
X98000D01*
X79000Y261000D02*
Y276648D01*
X78500Y260500D02*
X79000Y261000D01*
X65370Y260500D02*
X78500D01*
X96000Y313000D02*
X110000D01*
X94000Y311000D02*
X96000Y313000D01*
X79000Y280000D02*
X93648D01*
X94000Y280351D01*
Y311000D01*
X77000Y278000D02*
X79000Y280000D01*
X77000Y267000D02*
Y278000D01*
X75500Y265500D02*
X77000Y267000D01*
X65370Y265500D02*
X75500D01*
X89000Y231000D02*
Y239000D01*
X88000Y240000D02*
X89000Y239000D01*
X79900Y240000D02*
X88000D01*
X89000Y213402D02*
X89751Y212650D01*
X87000Y206000D02*
X89751Y208752D01*
X89000Y213402D02*
Y219200D01*
X89751Y208752D02*
Y212650D01*
X78900Y206000D02*
X87000D01*
X62000Y265000D02*
X64870D01*
X65370Y265500D01*
X58000Y261000D02*
X62000Y265000D01*
X57648Y245000D02*
X58000Y245352D01*
X53000Y245000D02*
X57648D01*
X58000Y245352D02*
Y261000D01*
X43000Y235000D02*
X53000Y245000D01*
X43000Y223000D02*
Y235000D01*
X42260Y222260D02*
X43000Y223000D01*
X37764Y222260D02*
X42260D01*
X37764Y229740D02*
Y235657D01*
X35249Y238172D02*
X37764Y235657D01*
X35249Y238172D02*
Y243249D01*
X40000Y248000D01*
X52649D01*
X53000Y248352D02*
Y260000D01*
X52649Y248000D02*
X53000Y248352D01*
X63500Y270500D02*
X65370D01*
X53000Y260000D02*
X63500Y270500D01*
X85352Y169000D02*
X101000D01*
X85000Y138000D02*
Y168649D01*
X85352Y169000D01*
X101000D02*
X117000Y185000D01*
X88000Y135000D02*
X95000D01*
X85000Y138000D02*
X88000Y135000D01*
X301000Y208000D02*
Y219000D01*
X280900Y218350D02*
X281250Y218000D01*
X286000D01*
X95000Y15000D02*
X105778D01*
X108777Y12000D01*
X89753Y25752D02*
X90504Y25000D01*
X289000Y264450D02*
Y265000D01*
X280900Y274650D02*
X288579Y266971D01*
Y265421D02*
X289000Y265000D01*
X280900Y274650D02*
Y276000D01*
X288579Y265421D02*
Y266971D01*
X293000Y325000D02*
X298000Y320000D01*
X179000Y268000D02*
X213000Y302000D01*
X179000Y237000D02*
Y268000D01*
Y237000D02*
X182500Y233500D01*
X193700D01*
X313000Y298000D02*
X375000D01*
X300000Y285000D02*
X313000Y298000D01*
X375000D02*
X375905Y297094D01*
Y288992D02*
Y297094D01*
X184000Y267000D02*
X213000Y296000D01*
X184000Y239000D02*
Y267000D01*
Y239000D02*
X184500Y238500D01*
X193700D01*
X364000Y224000D02*
Y247900D01*
X364100Y248000D01*
X300000Y270000D02*
Y285000D01*
X375900Y248000D02*
X375905Y248006D01*
Y263008D01*
X364094Y248006D02*
Y263008D01*
Y248006D02*
X364100Y248000D01*
X375905Y263008D02*
Y288992D01*
X364094Y263008D02*
Y288992D01*
X285000Y141000D02*
X296000D01*
X297000Y142000D02*
Y195000D01*
X296000Y141000D02*
X297000Y142000D01*
Y195000D02*
X306000Y204000D01*
Y234000D01*
X301000Y239000D02*
X306000Y234000D01*
X291950Y229000D02*
X301000D01*
X282900D02*
X291950D01*
X285000Y151000D02*
X289000D01*
X291950Y153950D01*
Y229000D01*
X280900Y217000D02*
Y218350D01*
X217900Y228000D02*
X228000D01*
Y251100D02*
X229000Y252100D01*
X219800Y220250D02*
X226250D01*
X228000Y243000D02*
Y251100D01*
X217900Y218350D02*
X219800Y220250D01*
X228000Y222000D02*
Y228000D01*
X217900Y217000D02*
Y218350D01*
X228000Y228000D02*
Y243000D01*
X217213D02*
X228000D01*
X217197Y242984D02*
X217213Y243000D01*
X226250Y220250D02*
X228000Y222000D01*
X184500Y223500D02*
X193700D01*
X201579Y210421D02*
X202000Y210000D01*
X193700Y213500D02*
X196831D01*
X199910Y210421D01*
X201579D01*
X184000Y205000D02*
Y217000D01*
Y205000D02*
X190000Y199000D01*
X185500Y218500D02*
X193700D01*
X184000Y217000D02*
X185500Y218500D01*
X190000Y199000D02*
X196100D01*
X185000D02*
X190000D01*
X206000Y255405D02*
X206803Y254602D01*
Y250622D02*
Y254602D01*
X206000Y255405D02*
Y256000D01*
X206287Y243500D02*
X206803Y242984D01*
X199994Y243500D02*
X206287D01*
X199000Y225450D02*
X206100Y218350D01*
X158400Y228500D02*
X170300D01*
X206100Y228000D02*
Y242281D01*
X198844Y228156D02*
X199000Y228000D01*
X218000Y263200D02*
Y268000D01*
X193700Y228500D02*
X194044Y228156D01*
X217800Y263000D02*
X228100D01*
X194044Y228156D02*
X198844D01*
X200997Y261997D02*
X202000Y263000D01*
X200997Y244503D02*
Y261997D01*
X198000Y270000D02*
X216000D01*
X202000Y263000D02*
X206000D01*
X199994Y243500D02*
X200997Y244503D01*
X217197Y262397D02*
X217800Y263000D01*
X218000Y263200D01*
X193700Y248500D02*
Y265700D01*
X206100Y217000D02*
Y218350D01*
Y242281D02*
X206803Y242984D01*
X193700Y243500D02*
X199994D01*
X228100Y263000D02*
X229000Y263900D01*
X217197Y250622D02*
Y262397D01*
X193700Y265700D02*
X198000Y270000D01*
X157900Y229000D02*
X158400Y228500D01*
X216000Y270000D02*
X218000Y268000D01*
X199000Y225450D02*
Y228000D01*
X95000Y135000D02*
X104000D01*
X167000Y132000D02*
Y137900D01*
X177000Y123450D02*
X177600Y122850D01*
X177000Y123450D02*
Y130000D01*
X178900Y131900D02*
Y138000D01*
X177000Y130000D02*
X178900Y131900D01*
X167000Y137900D02*
X167100Y138000D01*
X241000D02*
X274000Y171000D01*
X285000D01*
X178900Y138000D02*
X241000D01*
X276000Y181000D02*
X285000D01*
X241000Y160000D02*
X255000D01*
X276000Y181000D01*
Y191000D02*
X285000D01*
X248000Y163000D02*
X276000Y191000D01*
X90504Y25000D02*
X95000D01*
X87752Y25752D02*
X89753D01*
X108777Y12000D02*
X109000D01*
X96033Y16033D02*
X98033D01*
X131351Y49352D02*
Y97649D01*
X95000Y15000D02*
X96033Y16033D01*
X98033D02*
X131351Y49352D01*
X95000Y25000D02*
X102000D01*
X117000Y40000D02*
Y98649D01*
X102000Y25000D02*
X117000Y40000D01*
X138000Y77000D02*
Y86100D01*
X124000Y77000D02*
Y86000D01*
X131703Y98000D02*
X137900D01*
X131351Y97649D02*
X131703Y98000D01*
X137900D02*
X138000Y97900D01*
X138057Y110507D02*
X159150D01*
X124000Y97800D02*
X125350D01*
X138057Y110507D01*
X117000Y98649D02*
X117351Y99000D01*
X122800D02*
X124000Y97800D01*
X117351Y99000D02*
X122800D01*
X95000Y35000D02*
X107000D01*
X113000Y41000D01*
Y106000D01*
X101000Y45000D02*
X111000Y55000D01*
Y109000D01*
X95000Y45000D02*
X101000D01*
X105000Y66000D02*
Y113000D01*
X107000Y58000D02*
Y112737D01*
X104000Y65000D02*
X105000Y66000D01*
X95000Y65000D02*
X104000D01*
Y55000D02*
X107000Y58000D01*
X113000Y106000D02*
X120707Y113707D01*
X159150D01*
X119000Y117000D02*
X158957D01*
X159150Y116807D01*
X111000Y109000D02*
X119000Y117000D01*
X167400Y123550D02*
Y126863D01*
X161263Y133000D02*
X167400Y126863D01*
Y123550D02*
X168100Y122850D01*
X125000Y133000D02*
X161263D01*
X169000Y128000D02*
X173649D01*
X167300Y129700D02*
X169000Y128000D01*
X167300Y129700D02*
Y131700D01*
X167000Y132000D02*
X167300Y131700D01*
X105000Y113000D02*
X125000Y133000D01*
X107000Y112737D02*
X123263Y129000D01*
X163000D01*
X95000Y55000D02*
X104000D01*
X163000Y129000D02*
X165000Y127000D01*
Y122850D02*
Y127000D01*
X200000Y143900D02*
X200100Y144000D01*
X208000D01*
X277000Y151000D02*
X285000D01*
X252000Y126000D02*
X277000Y151000D01*
X192000Y126000D02*
X252000D01*
X303000Y130351D02*
Y195000D01*
X319000Y211000D01*
X307000Y45351D02*
Y196737D01*
X286000Y130000D02*
X302648D01*
X303000Y130351D01*
X307000Y196737D02*
X320523Y210260D01*
X187700Y125798D02*
X191798D01*
X187000Y122850D02*
Y125098D01*
X187700Y125798D01*
X191798D02*
X192000Y126000D01*
X174000Y123250D02*
X174400Y122850D01*
X174000Y123250D02*
Y127648D01*
X173649Y128000D02*
X174000Y127648D01*
X270100Y217000D02*
X270200Y217100D01*
Y231000D01*
X281000Y230900D02*
X282900Y229000D01*
X281000Y230900D02*
Y231000D01*
X310000Y335400D02*
Y340900D01*
X310100Y341000D01*
X381405Y353000D02*
X382000D01*
X366000Y351900D02*
X380305D01*
X381405Y353000D01*
X300648Y341000D02*
X301000Y341352D01*
X296577Y341000D02*
X300648D01*
X301000Y341352D02*
Y350000D01*
X303000Y339000D02*
Y345649D01*
X303351Y346000D01*
X301000Y337000D02*
X303000Y339000D01*
X303351Y346000D02*
X309000D01*
X314921Y351922D01*
X298000Y320222D02*
X301000Y323222D01*
X298000Y320000D02*
Y320222D01*
X301000Y323222D02*
Y337000D01*
X342000Y340100D02*
X366000D01*
X296577Y344740D02*
Y357869D01*
X295848Y358597D02*
X296577Y357869D01*
X295848Y370649D02*
X296200Y371000D01*
X316000D01*
X295848Y358597D02*
Y370649D01*
X316000Y371000D02*
X318072Y368929D01*
Y362614D02*
Y368929D01*
X296577Y337260D02*
X296837Y337000D01*
X301000D01*
X314921Y351922D02*
Y357875D01*
X283900Y370350D02*
X285900Y368350D01*
X283900Y370350D02*
Y380000D01*
X285900Y367000D02*
Y368350D01*
X236000Y348000D02*
Y359000D01*
X221795Y358900D02*
X235900D01*
X236000Y359000D01*
X285000Y131000D02*
X286000Y130000D01*
X311000Y229000D02*
X318649D01*
X319000Y211000D02*
Y228648D01*
X320523Y210260D02*
X335300D01*
X318649Y229000D02*
X319000Y228648D01*
X333650Y118005D02*
X341655Y110000D01*
X356000D01*
X333650Y118005D02*
Y119370D01*
X360575Y114575D02*
Y118295D01*
X356000Y110000D02*
X360575Y114575D01*
Y118295D02*
X362650Y120370D01*
X376275Y214070D02*
X378350Y211995D01*
X364000Y224000D02*
X373930Y214070D01*
X378350Y210630D02*
Y211995D01*
X373930Y214070D02*
X376275D01*
X350075Y213700D02*
X353700D01*
X364000Y224000D01*
X348000Y210260D02*
Y211625D01*
X350075Y213700D01*
X376900Y157000D02*
Y158350D01*
X381579Y163029D01*
Y164579D01*
X382000Y165000D01*
X381579Y165421D02*
Y166971D01*
Y165421D02*
X382000Y165000D01*
X376900Y171650D02*
Y173000D01*
Y171650D02*
X381579Y166971D01*
X354550Y166000D02*
X355000D01*
X345900Y156000D02*
Y157350D01*
X354550Y166000D01*
X345900Y172650D02*
Y174000D01*
Y172650D02*
X347800Y170750D01*
X350250D01*
X355000Y166000D01*
X358630Y141630D02*
X362650D01*
X353000Y136000D02*
X358630Y141630D01*
X352630Y119370D02*
X353000Y119740D01*
Y136000D01*
X346350Y119370D02*
X352630D01*
X385370Y120370D02*
X386000Y121000D01*
X375350Y120370D02*
X385370D01*
X386000Y121000D02*
Y186000D01*
X378350Y189370D02*
X382630D01*
X386000Y186000D01*
X348000Y189000D02*
X355000D01*
X357000Y191000D02*
Y206000D01*
X355000Y189000D02*
X357000Y191000D01*
Y206000D02*
X361630Y210630D01*
X365650D01*
X285000Y45000D02*
X306648D01*
X307000Y45351D01*
X104000Y382000D02*
Y392000D01*
X98650Y386000D02*
X102650Y382000D01*
X104000D01*
X86900Y386000D02*
X98650D01*
X102800Y369000D02*
X104000Y370200D01*
X86900Y369000D02*
X102800D01*
X157352Y26000D02*
X262000D01*
X167400Y85950D02*
Y88450D01*
X167300Y85363D02*
Y85850D01*
X167400Y88450D02*
X168100Y89150D01*
X166539Y84602D02*
X167300Y85363D01*
Y85850D02*
X167400Y85950D01*
X166550Y76007D02*
X166555Y80293D01*
X169250Y76000D02*
X176000D01*
X166550Y72632D02*
Y76007D01*
X166555Y80293D02*
X167263Y81000D01*
X193474Y30626D02*
X197374D01*
X192000Y32100D02*
X193474Y30626D01*
X197374D02*
X199000Y29000D01*
X177100Y30200D02*
X179000Y32100D01*
X165000Y30200D02*
X177100D01*
X164000Y43000D02*
X165000Y42000D01*
X164000Y43000D02*
Y49000D01*
Y55100D01*
X262000Y26000D02*
X278000Y42000D01*
X166550Y72632D02*
X170182Y69000D01*
X167263Y81000D02*
X181000D01*
X175362Y69000D02*
X176000Y68362D01*
X170182Y69000D02*
X175362D01*
X177600Y89150D02*
X178000Y88750D01*
Y84000D02*
Y88750D01*
X171000Y84351D02*
Y88850D01*
Y84351D02*
X171352Y84000D01*
X178000D01*
X171000Y88850D02*
X171300Y89150D01*
X181000Y81000D02*
X183900Y83900D01*
X278000Y42000D02*
Y54649D01*
X278351Y55000D02*
X285000D01*
X278000Y54649D02*
X278351Y55000D01*
X149000Y20000D02*
Y97000D01*
X264000Y24000D02*
X285000Y45000D01*
X156600Y24000D02*
X264000D01*
X175100Y49900D02*
Y55000D01*
Y49900D02*
X176000Y49000D01*
X193000D01*
X202750Y63300D02*
X204650Y65200D01*
X206000D01*
X202750Y58750D02*
Y63300D01*
X193000Y49000D02*
X202750Y58750D01*
X196000Y77000D02*
X206000D01*
X194100Y63300D02*
X196000Y65200D01*
X190533Y63300D02*
X194100D01*
X186900Y55000D02*
X187000Y55100D01*
X175100Y55000D02*
X176000Y55900D01*
Y68362D01*
X186394D02*
X187000Y67756D01*
Y76606D02*
X187394Y77000D01*
X186394Y76000D02*
X187000Y76606D01*
X187394Y77000D02*
X196000D01*
X183900Y83900D02*
Y89150D01*
X187000Y76606D02*
Y89150D01*
X279351Y65000D02*
X285000D01*
X279000Y65351D02*
Y78000D01*
Y65351D02*
X279351Y65000D01*
X272000Y85000D02*
X279000Y78000D01*
X285000Y65000D02*
Y65090D01*
X285901Y64521D02*
X286382Y64265D01*
X195098Y94807D02*
X204906Y85000D01*
X272000D01*
X207737Y87000D02*
X274000D01*
X281000Y89000D02*
X285000Y85000D01*
X197530Y97207D02*
X207737Y87000D01*
X208000Y89000D02*
X281000D01*
X196593Y100407D02*
X208000Y89000D01*
X284791Y76607D02*
X284824Y76574D01*
X274000Y87000D02*
X282759Y78241D01*
X284824Y76574D02*
X285000Y76398D01*
X285000Y75000D01*
X282759Y78241D02*
X282772Y78228D01*
X193550Y100407D02*
X196593D01*
X192850Y101107D02*
X193550Y100407D01*
X281407Y107407D02*
X285000Y111000D01*
X192850Y107407D02*
X281407D01*
X192850Y94807D02*
X195098D01*
X193550Y97207D02*
X197530D01*
X192850Y97907D02*
X193550Y97207D01*
X281793Y104207D02*
X285000Y101000D01*
X192850Y104207D02*
X281793D01*
X277000Y122000D02*
X284000D01*
X285000Y121000D01*
X192850Y110507D02*
X265507D01*
X277000Y122000D01*
X279000Y131000D02*
X285000D01*
X261707Y113707D02*
X279000Y131000D01*
X192850Y113707D02*
X261707D01*
X284000Y141000D02*
X285000D01*
X260507Y117507D02*
X284000Y141000D01*
X192850Y116807D02*
X193550Y117507D01*
X260507D01*
X148000Y17000D02*
X281000D01*
X149000Y20000D02*
X150000Y19000D01*
X279000D01*
X285000Y25000D01*
X281000Y17000D02*
X281967Y16033D01*
X154351Y22000D02*
X266000D01*
X279000Y35000D01*
X334000Y44866D02*
Y52000D01*
X336000Y34000D02*
Y42866D01*
X334000Y44866D02*
X336000Y42866D01*
X345205Y63205D02*
Y70000D01*
X334000Y52000D02*
X345205Y63205D01*
X326351Y34000D02*
X336000D01*
X326000Y33648D02*
X326351Y34000D01*
X326000Y10000D02*
Y33648D01*
X304000Y6352D02*
Y26000D01*
Y6352D02*
X304351Y6000D01*
X322000D01*
X326000Y10000D01*
X295000Y35000D02*
X304000Y26000D01*
X285000Y35000D02*
X295000D01*
X335000Y5300D02*
Y16000D01*
X332000Y2300D02*
X335000Y5300D01*
X298000Y6352D02*
X302051Y2300D01*
X298000Y6352D02*
Y20000D01*
X302051Y2300D02*
X332000D01*
X294000Y8000D02*
Y15649D01*
X288300Y2300D02*
X294000Y8000D01*
X293649Y16000D02*
X294000Y15649D01*
X286000Y16000D02*
X293649D01*
X293000Y25000D02*
X298000Y20000D01*
X285000Y25000D02*
X293000D01*
X264000Y8000D02*
X269700Y2300D01*
X288300D01*
X279000Y35000D02*
X285000D01*
Y15000D02*
X286000Y16000D01*
X283967Y16033D02*
X285000Y15000D01*
X281967Y16033D02*
X283967D01*
D23*
X45661Y138063D02*
D03*
D24*
Y140032D02*
D03*
Y142000D02*
D03*
Y143968D02*
D03*
Y145937D02*
D03*
X28339D02*
D03*
Y143968D02*
D03*
Y140032D02*
D03*
Y138063D02*
D03*
Y142000D02*
D03*
D25*
X36000Y129000D02*
D03*
Y117200D02*
D03*
X10000Y278900D02*
D03*
Y267100D02*
D03*
X83000Y183100D02*
D03*
Y194900D02*
D03*
X57000Y221100D02*
D03*
Y232900D02*
D03*
X40000Y165000D02*
D03*
Y176800D02*
D03*
X229000Y252100D02*
D03*
Y263900D02*
D03*
X138000Y97900D02*
D03*
Y86100D02*
D03*
X164000Y55100D02*
D03*
Y66900D02*
D03*
X206000Y77000D02*
D03*
Y65200D02*
D03*
X179000Y32100D02*
D03*
Y43900D02*
D03*
X165000Y30200D02*
D03*
Y42000D02*
D03*
X192000Y32100D02*
D03*
Y43900D02*
D03*
X196000Y65200D02*
D03*
Y77000D02*
D03*
X200000Y143900D02*
D03*
Y132100D02*
D03*
X342000Y340100D02*
D03*
Y351900D02*
D03*
X104000Y370200D02*
D03*
Y382000D02*
D03*
X236000Y359000D02*
D03*
Y370800D02*
D03*
X366000Y340100D02*
D03*
Y351900D02*
D03*
X89000Y219200D02*
D03*
Y231000D02*
D03*
X124000Y97800D02*
D03*
Y86000D02*
D03*
D26*
X68100Y240000D02*
D03*
X79900D02*
D03*
X78900Y206000D02*
D03*
X67100D02*
D03*
X38100Y59000D02*
D03*
X49900D02*
D03*
X75100Y386000D02*
D03*
X86900D02*
D03*
X311800Y270000D02*
D03*
X269100Y276000D02*
D03*
X365100Y173000D02*
D03*
Y157000D02*
D03*
X334100Y174000D02*
D03*
Y156000D02*
D03*
X154000Y369000D02*
D03*
X227900Y199000D02*
D03*
Y184000D02*
D03*
X54100Y168000D02*
D03*
X65900D02*
D03*
X280900Y276000D02*
D03*
X196100Y199000D02*
D03*
X207900D02*
D03*
X217900Y217000D02*
D03*
X206100D02*
D03*
X216100Y199000D02*
D03*
Y184000D02*
D03*
X146100Y218000D02*
D03*
X157900D02*
D03*
X196000Y184000D02*
D03*
X207800D02*
D03*
X217900Y228000D02*
D03*
X206100D02*
D03*
X157900Y229000D02*
D03*
X146100D02*
D03*
X217800Y263000D02*
D03*
X206000D02*
D03*
X167100Y138000D02*
D03*
X178900D02*
D03*
X269100Y217000D02*
D03*
X280900D02*
D03*
X285900Y367000D02*
D03*
X274100D02*
D03*
X22000Y276000D02*
D03*
X33800D02*
D03*
X186900Y55000D02*
D03*
X175100D02*
D03*
X269200Y231000D02*
D03*
X281000D02*
D03*
X310100Y341000D02*
D03*
X321900D02*
D03*
X283900Y380000D02*
D03*
X272100D02*
D03*
X86900Y369000D02*
D03*
X75100D02*
D03*
X142200D02*
D03*
X375900Y248000D02*
D03*
X364100D02*
D03*
X345900Y156000D02*
D03*
X376900Y157000D02*
D03*
Y173000D02*
D03*
X345900Y174000D02*
D03*
X300000Y270000D02*
D03*
D27*
X176000Y68362D02*
D03*
X186394Y76000D02*
D03*
X176000D02*
D03*
X186394Y68362D02*
D03*
X217197Y242984D02*
D03*
X206803Y250622D02*
D03*
X217197D02*
D03*
X206803Y242984D02*
D03*
D28*
X287276Y341000D02*
D03*
X296577Y337260D02*
D03*
Y341000D02*
D03*
Y344740D02*
D03*
X287276D02*
D03*
Y337260D02*
D03*
D29*
X365650Y189370D02*
D03*
X375350Y141630D02*
D03*
X346350Y140630D02*
D03*
X335300Y189000D02*
D03*
X362650Y141630D02*
D03*
Y120370D02*
D03*
X375350D02*
D03*
X333650Y140630D02*
D03*
Y119370D02*
D03*
X346350D02*
D03*
X378350Y189370D02*
D03*
Y210630D02*
D03*
X365650D02*
D03*
X348000Y189000D02*
D03*
Y210260D02*
D03*
X335300D02*
D03*
D30*
X222779Y377100D02*
D03*
X221795Y368000D02*
D03*
Y358900D02*
D03*
D31*
X86630Y270500D02*
D03*
Y255500D02*
D03*
Y260500D02*
D03*
Y265500D02*
D03*
X65370Y255500D02*
D03*
Y260500D02*
D03*
Y265500D02*
D03*
Y270500D02*
D03*
D32*
X188000Y144150D02*
D03*
Y131850D02*
D03*
D33*
X39260Y42016D02*
D03*
X46740D02*
D03*
X43000D02*
D03*
X39260Y33000D02*
D03*
X43000D02*
D03*
X46740D02*
D03*
D34*
X193700Y213500D02*
D03*
Y218500D02*
D03*
Y223500D02*
D03*
Y228500D02*
D03*
Y233500D02*
D03*
Y238500D02*
D03*
Y243500D02*
D03*
Y248500D02*
D03*
X170300D02*
D03*
Y243500D02*
D03*
Y238500D02*
D03*
Y233500D02*
D03*
Y228500D02*
D03*
Y223500D02*
D03*
Y218500D02*
D03*
Y213500D02*
D03*
D35*
X165000Y122850D02*
D03*
X168100D02*
D03*
X171300D02*
D03*
X174400D02*
D03*
X177600D02*
D03*
X180700D02*
D03*
X183900D02*
D03*
X187000D02*
D03*
Y89150D02*
D03*
X183900D02*
D03*
X180700D02*
D03*
X177600D02*
D03*
X174400D02*
D03*
X171300D02*
D03*
X168100D02*
D03*
X165000D02*
D03*
D36*
X159150Y94807D02*
D03*
Y97907D02*
D03*
Y101107D02*
D03*
Y104207D02*
D03*
Y107407D02*
D03*
Y110507D02*
D03*
Y113707D02*
D03*
Y116807D02*
D03*
X192850D02*
D03*
Y113707D02*
D03*
Y110507D02*
D03*
Y107407D02*
D03*
Y104207D02*
D03*
Y101107D02*
D03*
Y97907D02*
D03*
Y94807D02*
D03*
D37*
X196205Y368000D02*
D03*
D38*
X375905Y263008D02*
D03*
X364094Y288992D02*
D03*
X375905D02*
D03*
X364094Y263008D02*
D03*
D39*
X37764Y229740D02*
D03*
X48236Y226000D02*
D03*
X37764Y222260D02*
D03*
D69*
X282759Y78241D02*
D03*
X284824Y76574D02*
D03*
D70*
X24000Y197000D02*
D03*
Y207000D02*
D03*
Y177000D02*
D03*
Y187000D02*
D03*
X130000Y313000D02*
D03*
X140000D02*
D03*
X110000D02*
D03*
X120000D02*
D03*
X110000Y272000D02*
D03*
Y262000D02*
D03*
Y292000D02*
D03*
Y282000D02*
D03*
X356000Y34000D02*
D03*
X366000D02*
D03*
X336000D02*
D03*
X346000D02*
D03*
X366000Y321000D02*
D03*
X376000D02*
D03*
X346000D02*
D03*
X356000D02*
D03*
X318000Y320000D02*
D03*
X328000D02*
D03*
X298000D02*
D03*
X308000D02*
D03*
X180000Y335000D02*
D03*
X190000D02*
D03*
X170000D02*
D03*
X160000D02*
D03*
X176000Y371000D02*
D03*
Y381000D02*
D03*
Y361000D02*
D03*
Y351000D02*
D03*
X257000Y360000D02*
D03*
Y350000D02*
D03*
Y380000D02*
D03*
Y370000D02*
D03*
X8000Y151000D02*
D03*
Y161000D02*
D03*
Y131000D02*
D03*
Y141000D02*
D03*
X51000Y103000D02*
D03*
Y93000D02*
D03*
Y123000D02*
D03*
Y113000D02*
D03*
X311000Y239000D02*
D03*
X119000Y12000D02*
D03*
X109000D02*
D03*
X139000D02*
D03*
X129000D02*
D03*
X34000Y11000D02*
D03*
X44000D02*
D03*
X14000D02*
D03*
X24000D02*
D03*
X254000Y8000D02*
D03*
X264000D02*
D03*
X234000D02*
D03*
X244000D02*
D03*
X345000Y16000D02*
D03*
X335000D02*
D03*
X365000D02*
D03*
X355000D02*
D03*
X31000Y338000D02*
D03*
X41000D02*
D03*
X11000D02*
D03*
X21000D02*
D03*
X121000Y335000D02*
D03*
X111000D02*
D03*
X141000D02*
D03*
X131000D02*
D03*
X356000Y382000D02*
D03*
X346000D02*
D03*
X376000D02*
D03*
X366000D02*
D03*
X311000Y219000D02*
D03*
X301000D02*
D03*
X311000Y229000D02*
D03*
X301000D02*
D03*
Y239000D02*
D03*
X82000Y308000D02*
D03*
Y318000D02*
D03*
Y288000D02*
D03*
Y298000D02*
D03*
D71*
X47780Y285693D02*
D03*
X46780Y361693D02*
D03*
D72*
X34000Y304000D02*
D03*
X57622D02*
D03*
X56622Y380000D02*
D03*
X33000D02*
D03*
D73*
X16000Y244890D02*
D03*
Y231110D02*
D03*
D74*
X45000Y260000D02*
D03*
X35000D02*
D03*
X25000D02*
D03*
X62000Y187000D02*
D03*
X52000D02*
D03*
X42000D02*
D03*
X123000Y358000D02*
D03*
Y368000D02*
D03*
Y378000D02*
D03*
D75*
X132000Y230000D02*
D03*
X208000Y45000D02*
D03*
X132000Y220000D02*
D03*
X208000Y35000D02*
D03*
D76*
X95000Y145000D02*
D03*
Y115000D02*
D03*
Y85000D02*
D03*
Y95000D02*
D03*
Y105000D02*
D03*
Y125000D02*
D03*
Y135000D02*
D03*
Y155000D02*
D03*
X65000D02*
D03*
Y145000D02*
D03*
Y135000D02*
D03*
Y125000D02*
D03*
Y115000D02*
D03*
Y105000D02*
D03*
Y95000D02*
D03*
Y85000D02*
D03*
Y55000D02*
D03*
Y65000D02*
D03*
Y45000D02*
D03*
Y35000D02*
D03*
Y25000D02*
D03*
Y15000D02*
D03*
X315000Y191000D02*
D03*
Y181000D02*
D03*
Y171000D02*
D03*
Y161000D02*
D03*
Y151000D02*
D03*
Y141000D02*
D03*
Y131000D02*
D03*
Y121000D02*
D03*
Y111000D02*
D03*
Y101000D02*
D03*
Y15000D02*
D03*
Y25000D02*
D03*
Y35000D02*
D03*
Y45000D02*
D03*
Y55000D02*
D03*
Y65000D02*
D03*
Y75000D02*
D03*
Y85000D02*
D03*
X285000D02*
D03*
Y75000D02*
D03*
Y65000D02*
D03*
Y55000D02*
D03*
Y45000D02*
D03*
Y35000D02*
D03*
Y25000D02*
D03*
Y15000D02*
D03*
X95000Y25000D02*
D03*
Y15000D02*
D03*
Y35000D02*
D03*
Y45000D02*
D03*
Y55000D02*
D03*
Y65000D02*
D03*
X285000Y191000D02*
D03*
Y181000D02*
D03*
Y171000D02*
D03*
Y161000D02*
D03*
Y151000D02*
D03*
Y141000D02*
D03*
Y131000D02*
D03*
Y121000D02*
D03*
Y111000D02*
D03*
Y101000D02*
D03*
D77*
X300355Y380125D02*
D03*
Y361425D02*
D03*
X329645D02*
D03*
Y380125D02*
D03*
D78*
X321220Y357875D02*
D03*
X318072Y362614D02*
D03*
X311772D02*
D03*
X314921Y357875D02*
D03*
X308623D02*
D03*
D79*
X370795Y70000D02*
D03*
X345205D02*
D03*
D80*
X56000Y147000D02*
D03*
X50000Y156000D02*
D03*
X72000Y171000D02*
D03*
X163000Y221000D02*
D03*
X333000Y303600D02*
D03*
Y315000D02*
D03*
X187000Y62000D02*
D03*
X97000Y4000D02*
D03*
X124000Y235000D02*
D03*
X274000Y359000D02*
D03*
X170000Y101000D02*
D03*
X239000Y165000D02*
D03*
X288000Y320000D02*
D03*
X278000Y336000D02*
D03*
X246000Y168000D02*
D03*
X267000Y337000D02*
D03*
X289000Y303000D02*
D03*
X287000Y292000D02*
D03*
X262000D02*
D03*
X201000Y308000D02*
D03*
X52000Y138000D02*
D03*
X213000Y331000D02*
D03*
X47000Y174000D02*
D03*
X34000Y152000D02*
D03*
X59000Y210000D02*
D03*
X275000Y303000D02*
D03*
X81000Y11000D02*
D03*
X160000Y74000D02*
D03*
X153000Y92000D02*
D03*
X156700Y141600D02*
D03*
X167000Y132000D02*
D03*
X184000Y180000D02*
D03*
X144000Y101000D02*
D03*
X104000Y140000D02*
D03*
X262000Y40000D02*
D03*
X258000Y179000D02*
D03*
X188000Y195000D02*
D03*
X114000Y253000D02*
D03*
X297000Y211000D02*
D03*
X56000Y66000D02*
D03*
X144000Y239000D02*
D03*
X60000Y243000D02*
D03*
X52000Y239000D02*
D03*
X50000Y251000D02*
D03*
X177000Y101000D02*
D03*
X43000Y49000D02*
D03*
X53000Y50000D02*
D03*
X68000Y249000D02*
D03*
X10000Y260100D02*
D03*
X286000Y218000D02*
D03*
X289000Y265000D02*
D03*
X228000Y243000D02*
D03*
X202000Y210000D02*
D03*
X206000Y256000D02*
D03*
X181000Y115000D02*
D03*
X138000Y77000D02*
D03*
X124000D02*
D03*
X208000Y144000D02*
D03*
X326000Y204000D02*
D03*
X310000Y335400D02*
D03*
X382000Y353000D02*
D03*
X301000Y350000D02*
D03*
X236000Y348000D02*
D03*
X382000Y165000D02*
D03*
X364000Y224000D02*
D03*
X356000Y110000D02*
D03*
X355000Y166000D02*
D03*
X104000Y392000D02*
D03*
X169250Y76000D02*
D03*
X199000Y29000D02*
D03*
X164000Y49000D02*
D03*
X178000Y84000D02*
D03*
D81*
X45000Y252000D02*
D03*
X56000Y71000D02*
D03*
X338000Y314000D02*
D03*
Y307000D02*
D03*
X283000Y303750D02*
D03*
X153000Y98000D02*
D03*
X149000Y101000D02*
D03*
X141000Y105000D02*
D03*
X92000Y5000D02*
D03*
X52000Y151000D02*
D03*
X46000Y160000D02*
D03*
X57000Y215000D02*
D03*
X62000Y238000D02*
D03*
X57000Y239000D02*
D03*
X127000Y238000D02*
D03*
X279000Y341000D02*
D03*
X268000Y342000D02*
D03*
X48000Y169000D02*
D03*
X323000Y199000D02*
D03*
X286000Y204000D02*
D03*
X283000Y318000D02*
D03*
X262000Y183000D02*
D03*
Y45000D02*
D03*
X114000Y248000D02*
D03*
X269000Y302000D02*
D03*
X267000Y296000D02*
D03*
X207000Y307000D02*
D03*
X283000Y296000D02*
D03*
X288000Y325000D02*
D03*
X208000Y332000D02*
D03*
X140000Y237000D02*
D03*
X83000Y7000D02*
D03*
X164000Y76000D02*
D03*
X186000Y184000D02*
D03*
X39000Y152000D02*
D03*
X180000Y106000D02*
D03*
X177000Y112000D02*
D03*
X49000Y235000D02*
D03*
X301000Y208000D02*
D03*
X185000Y199000D02*
D03*
X104000Y135000D02*
D03*
X241000Y160000D02*
D03*
X248000Y163000D02*
D03*
X173000Y96000D02*
D03*
M02*
