G04*
G04 #@! TF.GenerationSoftware,Altium Limited,Altium Designer,23.8.1 (32)*
G04*
G04 Layer_Color=8421504*
%FSLAX25Y25*%
%MOIN*%
G70*
G04*
G04 #@! TF.SameCoordinates,CF8B6EB2-DAF4-4016-BDB3-9DCBFEF17629*
G04*
G04*
G04 #@! TF.FilePolarity,Positive*
G04*
G01*
G75*
%ADD23R,0.05709X0.01181*%
%ADD24R,0.05787X0.01181*%
%ADD25R,0.07100X0.04400*%
%ADD26R,0.04400X0.07100*%
%ADD27R,0.07087X0.05512*%
%ADD28R,0.03937X0.02756*%
%ADD29R,0.04750X0.07480*%
%ADD30R,0.06693X0.03300*%
%ADD31R,0.06102X0.02362*%
%ADD32R,0.07300X0.05400*%
G04:AMPARAMS|DCode=33|XSize=63.39mil|YSize=23.23mil|CornerRadius=2.9mil|HoleSize=0mil|Usage=FLASHONLY|Rotation=270.000|XOffset=0mil|YOffset=0mil|HoleType=Round|Shape=RoundedRectangle|*
%AMROUNDEDRECTD33*
21,1,0.06339,0.01742,0,0,270.0*
21,1,0.05758,0.02323,0,0,270.0*
1,1,0.00581,-0.00871,-0.02879*
1,1,0.00581,-0.00871,0.02879*
1,1,0.00581,0.00871,0.02879*
1,1,0.00581,0.00871,-0.02879*
%
%ADD33ROUNDEDRECTD33*%
%ADD34O,0.08661X0.02400*%
%ADD35R,0.02000X0.06496*%
%ADD36R,0.06496X0.02000*%
%ADD37R,0.06693X0.12200*%
%ADD38R,0.04724X0.05906*%
G04:AMPARAMS|DCode=39|XSize=53.15mil|YSize=23.23mil|CornerRadius=5.81mil|HoleSize=0mil|Usage=FLASHONLY|Rotation=0.000|XOffset=0mil|YOffset=0mil|HoleType=Round|Shape=RoundedRectangle|*
%AMROUNDEDRECTD39*
21,1,0.05315,0.01161,0,0,0.0*
21,1,0.04154,0.02323,0,0,0.0*
1,1,0.01161,0.02077,-0.00581*
1,1,0.01161,-0.02077,-0.00581*
1,1,0.01161,-0.02077,0.00581*
1,1,0.01161,0.02077,0.00581*
%
%ADD39ROUNDEDRECTD39*%
D23*
X45661Y138063D02*
D03*
D24*
Y140032D02*
D03*
Y142000D02*
D03*
Y143968D02*
D03*
Y145937D02*
D03*
X28339D02*
D03*
Y143968D02*
D03*
Y140032D02*
D03*
Y138063D02*
D03*
Y142000D02*
D03*
D25*
X36000Y129000D02*
D03*
Y117200D02*
D03*
X10000Y278900D02*
D03*
Y267100D02*
D03*
X83000Y183100D02*
D03*
Y194900D02*
D03*
X57000Y221100D02*
D03*
Y232900D02*
D03*
X40000Y165000D02*
D03*
Y176800D02*
D03*
X229000Y252100D02*
D03*
Y263900D02*
D03*
X138000Y97900D02*
D03*
Y86100D02*
D03*
X164000Y55100D02*
D03*
Y66900D02*
D03*
X206000Y77000D02*
D03*
Y65200D02*
D03*
X179000Y32100D02*
D03*
Y43900D02*
D03*
X165000Y30200D02*
D03*
Y42000D02*
D03*
X192000Y32100D02*
D03*
Y43900D02*
D03*
X196000Y65200D02*
D03*
Y77000D02*
D03*
X200000Y143900D02*
D03*
Y132100D02*
D03*
X342000Y340100D02*
D03*
Y351900D02*
D03*
X104000Y370200D02*
D03*
Y382000D02*
D03*
X236000Y359000D02*
D03*
Y370800D02*
D03*
X366000Y340100D02*
D03*
Y351900D02*
D03*
X89000Y219200D02*
D03*
Y231000D02*
D03*
X124000Y97800D02*
D03*
Y86000D02*
D03*
D26*
X68100Y240000D02*
D03*
X79900D02*
D03*
X78900Y206000D02*
D03*
X67100D02*
D03*
X38100Y59000D02*
D03*
X49900D02*
D03*
X75100Y386000D02*
D03*
X86900D02*
D03*
X311800Y270000D02*
D03*
X269100Y276000D02*
D03*
X365100Y173000D02*
D03*
Y157000D02*
D03*
X334100Y174000D02*
D03*
Y156000D02*
D03*
X154000Y369000D02*
D03*
X227900Y199000D02*
D03*
Y184000D02*
D03*
X54100Y168000D02*
D03*
X65900D02*
D03*
X280900Y276000D02*
D03*
X196100Y199000D02*
D03*
X207900D02*
D03*
X217900Y217000D02*
D03*
X206100D02*
D03*
X216100Y199000D02*
D03*
Y184000D02*
D03*
X146100Y218000D02*
D03*
X157900D02*
D03*
X196000Y184000D02*
D03*
X207800D02*
D03*
X217900Y228000D02*
D03*
X206100D02*
D03*
X157900Y229000D02*
D03*
X146100D02*
D03*
X217800Y263000D02*
D03*
X206000D02*
D03*
X167100Y138000D02*
D03*
X178900D02*
D03*
X269100Y217000D02*
D03*
X280900D02*
D03*
X285900Y367000D02*
D03*
X274100D02*
D03*
X22000Y276000D02*
D03*
X33800D02*
D03*
X186900Y55000D02*
D03*
X175100D02*
D03*
X269200Y231000D02*
D03*
X281000D02*
D03*
X310100Y341000D02*
D03*
X321900D02*
D03*
X283900Y380000D02*
D03*
X272100D02*
D03*
X86900Y369000D02*
D03*
X75100D02*
D03*
X142200D02*
D03*
X375900Y248000D02*
D03*
X364100D02*
D03*
X345900Y156000D02*
D03*
X376900Y157000D02*
D03*
Y173000D02*
D03*
X345900Y174000D02*
D03*
X300000Y270000D02*
D03*
D27*
X176000Y68362D02*
D03*
X186394Y76000D02*
D03*
X176000D02*
D03*
X186394Y68362D02*
D03*
X217197Y242984D02*
D03*
X206803Y250622D02*
D03*
X217197D02*
D03*
X206803Y242984D02*
D03*
D28*
X287276Y341000D02*
D03*
X296577Y337260D02*
D03*
Y341000D02*
D03*
Y344740D02*
D03*
X287276D02*
D03*
Y337260D02*
D03*
D29*
X365650Y189370D02*
D03*
X375350Y141630D02*
D03*
X346350Y140630D02*
D03*
X335300Y189000D02*
D03*
X362650Y141630D02*
D03*
Y120370D02*
D03*
X375350D02*
D03*
X333650Y140630D02*
D03*
Y119370D02*
D03*
X346350D02*
D03*
X378350Y189370D02*
D03*
Y210630D02*
D03*
X365650D02*
D03*
X348000Y189000D02*
D03*
Y210260D02*
D03*
X335300D02*
D03*
D30*
X222779Y377100D02*
D03*
X221795Y368000D02*
D03*
Y358900D02*
D03*
D31*
X86630Y270500D02*
D03*
Y255500D02*
D03*
Y260500D02*
D03*
Y265500D02*
D03*
X65370Y255500D02*
D03*
Y260500D02*
D03*
Y265500D02*
D03*
Y270500D02*
D03*
D32*
X188000Y144150D02*
D03*
Y131850D02*
D03*
D33*
X39260Y42016D02*
D03*
X46740D02*
D03*
X43000D02*
D03*
X39260Y33000D02*
D03*
X43000D02*
D03*
X46740D02*
D03*
D34*
X193700Y213500D02*
D03*
Y218500D02*
D03*
Y223500D02*
D03*
Y228500D02*
D03*
Y233500D02*
D03*
Y238500D02*
D03*
Y243500D02*
D03*
Y248500D02*
D03*
X170300D02*
D03*
Y243500D02*
D03*
Y238500D02*
D03*
Y233500D02*
D03*
Y228500D02*
D03*
Y223500D02*
D03*
Y218500D02*
D03*
Y213500D02*
D03*
D35*
X165000Y122850D02*
D03*
X168100D02*
D03*
X171300D02*
D03*
X174400D02*
D03*
X177600D02*
D03*
X180700D02*
D03*
X183900D02*
D03*
X187000D02*
D03*
Y89150D02*
D03*
X183900D02*
D03*
X180700D02*
D03*
X177600D02*
D03*
X174400D02*
D03*
X171300D02*
D03*
X168100D02*
D03*
X165000D02*
D03*
D36*
X159150Y94807D02*
D03*
Y97907D02*
D03*
Y101107D02*
D03*
Y104207D02*
D03*
Y107407D02*
D03*
Y110507D02*
D03*
Y113707D02*
D03*
Y116807D02*
D03*
X192850D02*
D03*
Y113707D02*
D03*
Y110507D02*
D03*
Y107407D02*
D03*
Y104207D02*
D03*
Y101107D02*
D03*
Y97907D02*
D03*
Y94807D02*
D03*
D37*
X196205Y368000D02*
D03*
D38*
X375905Y263008D02*
D03*
X364094Y288992D02*
D03*
X375905D02*
D03*
X364094Y263008D02*
D03*
D39*
X37764Y229740D02*
D03*
X48236Y226000D02*
D03*
X37764Y222260D02*
D03*
M02*
