G04*
G04 #@! TF.GenerationSoftware,Altium Limited,Altium Designer,23.8.1 (32)*
G04*
G04 Layer_Color=8388736*
%FSLAX25Y25*%
%MOIN*%
G70*
G04*
G04 #@! TF.SameCoordinates,CF8B6EB2-DAF4-4016-BDB3-9DCBFEF17629*
G04*
G04*
G04 #@! TF.FilePolarity,Negative*
G04*
G01*
G75*
%ADD32R,0.07300X0.05400*%
%ADD40C,0.00000*%
%ADD41R,0.05909X0.01381*%
%ADD42R,0.05987X0.01381*%
%ADD43R,0.07900X0.05200*%
%ADD44R,0.05200X0.07900*%
%ADD45R,0.07887X0.06312*%
%ADD46R,0.04137X0.02956*%
%ADD47R,0.05550X0.08280*%
%ADD48R,0.07493X0.04100*%
%ADD49R,0.06902X0.03162*%
G04:AMPARAMS|DCode=50|XSize=71.39mil|YSize=31.23mil|CornerRadius=6.9mil|HoleSize=0mil|Usage=FLASHONLY|Rotation=270.000|XOffset=0mil|YOffset=0mil|HoleType=Round|Shape=RoundedRectangle|*
%AMROUNDEDRECTD50*
21,1,0.07139,0.01742,0,0,270.0*
21,1,0.05758,0.03123,0,0,270.0*
1,1,0.01381,-0.00871,-0.02879*
1,1,0.01381,-0.00871,0.02879*
1,1,0.01381,0.00871,0.02879*
1,1,0.01381,0.00871,-0.02879*
%
%ADD50ROUNDEDRECTD50*%
%ADD51O,0.09461X0.03200*%
%ADD52R,0.02200X0.06696*%
%ADD53R,0.06696X0.02200*%
%ADD54R,0.07493X0.13000*%
%ADD55R,0.05524X0.06706*%
G04:AMPARAMS|DCode=56|XSize=61.15mil|YSize=31.23mil|CornerRadius=9.81mil|HoleSize=0mil|Usage=FLASHONLY|Rotation=0.000|XOffset=0mil|YOffset=0mil|HoleType=Round|Shape=RoundedRectangle|*
%AMROUNDEDRECTD56*
21,1,0.06115,0.01161,0,0,0.0*
21,1,0.04154,0.03123,0,0,0.0*
1,1,0.01961,0.02077,-0.00581*
1,1,0.01961,-0.02077,-0.00581*
1,1,0.01961,-0.02077,0.00581*
1,1,0.01961,0.02077,0.00581*
%
%ADD56ROUNDEDRECTD56*%
%ADD57C,0.07800*%
%ADD58O,0.13792X0.07887*%
%ADD59O,0.08674X0.15761*%
%ADD60C,0.08674*%
%ADD61C,0.07296*%
%ADD62C,0.07178*%
%ADD63C,0.06800*%
%ADD64O,0.05524X0.10249*%
%ADD65C,0.05524*%
%ADD66C,0.07099*%
%ADD67C,0.03600*%
%ADD68C,0.03300*%
D32*
X188000Y144150D02*
D03*
Y131850D02*
D03*
D40*
X135390Y230000D02*
G03*
X135390Y230000I-3390J0D01*
G01*
Y220000D02*
G03*
X135390Y220000I-3390J0D01*
G01*
X211390Y45000D02*
G03*
X211390Y45000I-3390J0D01*
G01*
Y35000D02*
G03*
X211390Y35000I-3390J0D01*
G01*
D41*
X45661Y138063D02*
D03*
D42*
Y140032D02*
D03*
Y142000D02*
D03*
Y143968D02*
D03*
Y145937D02*
D03*
X28339D02*
D03*
Y143968D02*
D03*
Y140032D02*
D03*
Y138063D02*
D03*
Y142000D02*
D03*
D43*
X36000Y129000D02*
D03*
Y117200D02*
D03*
X10000Y278900D02*
D03*
Y267100D02*
D03*
X83000Y183100D02*
D03*
Y194900D02*
D03*
X57000Y221100D02*
D03*
Y232900D02*
D03*
X40000Y165000D02*
D03*
Y176800D02*
D03*
X229000Y252100D02*
D03*
Y263900D02*
D03*
X138000Y97900D02*
D03*
Y86100D02*
D03*
X164000Y55100D02*
D03*
Y66900D02*
D03*
X206000Y77000D02*
D03*
Y65200D02*
D03*
X179000Y32100D02*
D03*
Y43900D02*
D03*
X165000Y30200D02*
D03*
Y42000D02*
D03*
X192000Y32100D02*
D03*
Y43900D02*
D03*
X196000Y65200D02*
D03*
Y77000D02*
D03*
X200000Y143900D02*
D03*
Y132100D02*
D03*
X342000Y340100D02*
D03*
Y351900D02*
D03*
X104000Y370200D02*
D03*
Y382000D02*
D03*
X236000Y359000D02*
D03*
Y370800D02*
D03*
X366000Y340100D02*
D03*
Y351900D02*
D03*
X89000Y219200D02*
D03*
Y231000D02*
D03*
X124000Y97800D02*
D03*
Y86000D02*
D03*
D44*
X68100Y240000D02*
D03*
X79900D02*
D03*
X78900Y206000D02*
D03*
X67100D02*
D03*
X38100Y59000D02*
D03*
X49900D02*
D03*
X75100Y386000D02*
D03*
X86900D02*
D03*
X311800Y270000D02*
D03*
X269100Y276000D02*
D03*
X365100Y173000D02*
D03*
Y157000D02*
D03*
X334100Y174000D02*
D03*
Y156000D02*
D03*
X154000Y369000D02*
D03*
X227900Y199000D02*
D03*
Y184000D02*
D03*
X54100Y168000D02*
D03*
X65900D02*
D03*
X280900Y276000D02*
D03*
X196100Y199000D02*
D03*
X207900D02*
D03*
X217900Y217000D02*
D03*
X206100D02*
D03*
X216100Y199000D02*
D03*
Y184000D02*
D03*
X146100Y218000D02*
D03*
X157900D02*
D03*
X196000Y184000D02*
D03*
X207800D02*
D03*
X217900Y228000D02*
D03*
X206100D02*
D03*
X157900Y229000D02*
D03*
X146100D02*
D03*
X217800Y263000D02*
D03*
X206000D02*
D03*
X167100Y138000D02*
D03*
X178900D02*
D03*
X269100Y217000D02*
D03*
X280900D02*
D03*
X285900Y367000D02*
D03*
X274100D02*
D03*
X22000Y276000D02*
D03*
X33800D02*
D03*
X186900Y55000D02*
D03*
X175100D02*
D03*
X269200Y231000D02*
D03*
X281000D02*
D03*
X310100Y341000D02*
D03*
X321900D02*
D03*
X283900Y380000D02*
D03*
X272100D02*
D03*
X86900Y369000D02*
D03*
X75100D02*
D03*
X142200D02*
D03*
X375900Y248000D02*
D03*
X364100D02*
D03*
X345900Y156000D02*
D03*
X376900Y157000D02*
D03*
Y173000D02*
D03*
X345900Y174000D02*
D03*
X300000Y270000D02*
D03*
D45*
X176000Y68362D02*
D03*
X186394Y76000D02*
D03*
X176000D02*
D03*
X186394Y68362D02*
D03*
X217197Y242984D02*
D03*
X206803Y250622D02*
D03*
X217197D02*
D03*
X206803Y242984D02*
D03*
D46*
X287276Y341000D02*
D03*
X296577Y337260D02*
D03*
Y341000D02*
D03*
Y344740D02*
D03*
X287276D02*
D03*
Y337260D02*
D03*
D47*
X365650Y189370D02*
D03*
X375350Y141630D02*
D03*
X346350Y140630D02*
D03*
X335300Y189000D02*
D03*
X362650Y141630D02*
D03*
Y120370D02*
D03*
X375350D02*
D03*
X333650Y140630D02*
D03*
Y119370D02*
D03*
X346350D02*
D03*
X378350Y189370D02*
D03*
Y210630D02*
D03*
X365650D02*
D03*
X348000Y189000D02*
D03*
Y210260D02*
D03*
X335300D02*
D03*
D48*
X222779Y377100D02*
D03*
X221795Y368000D02*
D03*
Y358900D02*
D03*
D49*
X86630Y270500D02*
D03*
Y255500D02*
D03*
Y260500D02*
D03*
Y265500D02*
D03*
X65370Y255500D02*
D03*
Y260500D02*
D03*
Y265500D02*
D03*
Y270500D02*
D03*
D50*
X39260Y42016D02*
D03*
X46740D02*
D03*
X43000D02*
D03*
X39260Y33000D02*
D03*
X43000D02*
D03*
X46740D02*
D03*
D51*
X193700Y213500D02*
D03*
Y218500D02*
D03*
Y223500D02*
D03*
Y228500D02*
D03*
Y233500D02*
D03*
Y238500D02*
D03*
Y243500D02*
D03*
Y248500D02*
D03*
X170300D02*
D03*
Y243500D02*
D03*
Y238500D02*
D03*
Y233500D02*
D03*
Y228500D02*
D03*
Y223500D02*
D03*
Y218500D02*
D03*
Y213500D02*
D03*
D52*
X165000Y122850D02*
D03*
X168100D02*
D03*
X171300D02*
D03*
X174400D02*
D03*
X177600D02*
D03*
X180700D02*
D03*
X183900D02*
D03*
X187000D02*
D03*
Y89150D02*
D03*
X183900D02*
D03*
X180700D02*
D03*
X177600D02*
D03*
X174400D02*
D03*
X171300D02*
D03*
X168100D02*
D03*
X165000D02*
D03*
D53*
X159150Y94807D02*
D03*
Y97907D02*
D03*
Y101107D02*
D03*
Y104207D02*
D03*
Y107407D02*
D03*
Y110507D02*
D03*
Y113707D02*
D03*
Y116807D02*
D03*
X192850D02*
D03*
Y113707D02*
D03*
Y110507D02*
D03*
Y107407D02*
D03*
Y104207D02*
D03*
Y101107D02*
D03*
Y97907D02*
D03*
Y94807D02*
D03*
D54*
X196205Y368000D02*
D03*
D55*
X375905Y263008D02*
D03*
X364094Y288992D02*
D03*
X375905D02*
D03*
X364094Y263008D02*
D03*
D56*
X37764Y229740D02*
D03*
X48236Y226000D02*
D03*
X37764Y222260D02*
D03*
D57*
X24000Y197000D02*
D03*
Y207000D02*
D03*
Y177000D02*
D03*
Y187000D02*
D03*
X130000Y313000D02*
D03*
X140000D02*
D03*
X110000D02*
D03*
X120000D02*
D03*
X110000Y272000D02*
D03*
Y262000D02*
D03*
Y292000D02*
D03*
Y282000D02*
D03*
X356000Y34000D02*
D03*
X366000D02*
D03*
X336000D02*
D03*
X346000D02*
D03*
X366000Y321000D02*
D03*
X376000D02*
D03*
X346000D02*
D03*
X356000D02*
D03*
X318000Y320000D02*
D03*
X328000D02*
D03*
X298000D02*
D03*
X308000D02*
D03*
X180000Y335000D02*
D03*
X190000D02*
D03*
X170000D02*
D03*
X160000D02*
D03*
X176000Y371000D02*
D03*
Y381000D02*
D03*
Y361000D02*
D03*
Y351000D02*
D03*
X257000Y360000D02*
D03*
Y350000D02*
D03*
Y380000D02*
D03*
Y370000D02*
D03*
X8000Y151000D02*
D03*
Y161000D02*
D03*
Y131000D02*
D03*
Y141000D02*
D03*
X51000Y103000D02*
D03*
Y93000D02*
D03*
Y123000D02*
D03*
Y113000D02*
D03*
X311000Y239000D02*
D03*
X119000Y12000D02*
D03*
X109000D02*
D03*
X139000D02*
D03*
X129000D02*
D03*
X34000Y11000D02*
D03*
X44000D02*
D03*
X14000D02*
D03*
X24000D02*
D03*
X254000Y8000D02*
D03*
X264000D02*
D03*
X234000D02*
D03*
X244000D02*
D03*
X345000Y16000D02*
D03*
X335000D02*
D03*
X365000D02*
D03*
X355000D02*
D03*
X31000Y338000D02*
D03*
X41000D02*
D03*
X11000D02*
D03*
X21000D02*
D03*
X121000Y335000D02*
D03*
X111000D02*
D03*
X141000D02*
D03*
X131000D02*
D03*
X356000Y382000D02*
D03*
X346000D02*
D03*
X376000D02*
D03*
X366000D02*
D03*
X311000Y219000D02*
D03*
X301000D02*
D03*
X311000Y229000D02*
D03*
X301000D02*
D03*
Y239000D02*
D03*
X82000Y308000D02*
D03*
Y318000D02*
D03*
Y288000D02*
D03*
Y298000D02*
D03*
D58*
X47780Y285693D02*
D03*
X46780Y361693D02*
D03*
D59*
X34000Y304000D02*
D03*
X57622D02*
D03*
X56622Y380000D02*
D03*
X33000D02*
D03*
D60*
X16000Y244890D02*
D03*
Y231110D02*
D03*
D61*
X45000Y260000D02*
D03*
X35000D02*
D03*
X25000D02*
D03*
X62000Y187000D02*
D03*
X52000D02*
D03*
X42000D02*
D03*
X123000Y358000D02*
D03*
Y368000D02*
D03*
Y378000D02*
D03*
D62*
X132000Y230000D02*
D03*
X208000Y45000D02*
D03*
X132000Y220000D02*
D03*
X208000Y35000D02*
D03*
D63*
X95000Y145000D02*
D03*
Y115000D02*
D03*
Y85000D02*
D03*
Y95000D02*
D03*
Y105000D02*
D03*
Y125000D02*
D03*
Y135000D02*
D03*
Y155000D02*
D03*
X65000D02*
D03*
Y145000D02*
D03*
Y135000D02*
D03*
Y125000D02*
D03*
Y115000D02*
D03*
Y105000D02*
D03*
Y95000D02*
D03*
Y85000D02*
D03*
Y55000D02*
D03*
Y65000D02*
D03*
Y45000D02*
D03*
Y35000D02*
D03*
Y25000D02*
D03*
Y15000D02*
D03*
X315000Y191000D02*
D03*
Y181000D02*
D03*
Y171000D02*
D03*
Y161000D02*
D03*
Y151000D02*
D03*
Y141000D02*
D03*
Y131000D02*
D03*
Y121000D02*
D03*
Y111000D02*
D03*
Y101000D02*
D03*
Y15000D02*
D03*
Y25000D02*
D03*
Y35000D02*
D03*
Y45000D02*
D03*
Y55000D02*
D03*
Y65000D02*
D03*
Y75000D02*
D03*
Y85000D02*
D03*
X285000D02*
D03*
Y75000D02*
D03*
Y65000D02*
D03*
Y55000D02*
D03*
Y45000D02*
D03*
Y35000D02*
D03*
Y25000D02*
D03*
Y15000D02*
D03*
X95000Y25000D02*
D03*
Y15000D02*
D03*
Y35000D02*
D03*
Y45000D02*
D03*
Y55000D02*
D03*
Y65000D02*
D03*
X285000Y191000D02*
D03*
Y181000D02*
D03*
Y171000D02*
D03*
Y161000D02*
D03*
Y151000D02*
D03*
Y141000D02*
D03*
Y131000D02*
D03*
Y121000D02*
D03*
Y111000D02*
D03*
Y101000D02*
D03*
D64*
X300355Y380125D02*
D03*
Y361425D02*
D03*
X329645D02*
D03*
Y380125D02*
D03*
D65*
X321220Y357875D02*
D03*
X318072Y362614D02*
D03*
X311772D02*
D03*
X314921Y357875D02*
D03*
X308623D02*
D03*
D66*
X370795Y70000D02*
D03*
X345205D02*
D03*
D67*
X56000Y147000D02*
D03*
X50000Y156000D02*
D03*
X72000Y171000D02*
D03*
X163000Y221000D02*
D03*
X333000Y303600D02*
D03*
Y315000D02*
D03*
X187000Y62000D02*
D03*
X97000Y4000D02*
D03*
X124000Y235000D02*
D03*
X274000Y359000D02*
D03*
X170000Y101000D02*
D03*
X239000Y165000D02*
D03*
X288000Y320000D02*
D03*
X278000Y336000D02*
D03*
X246000Y168000D02*
D03*
X267000Y337000D02*
D03*
X289000Y303000D02*
D03*
X287000Y292000D02*
D03*
X262000D02*
D03*
X201000Y308000D02*
D03*
X52000Y138000D02*
D03*
X213000Y331000D02*
D03*
X47000Y174000D02*
D03*
X34000Y152000D02*
D03*
X59000Y210000D02*
D03*
X275000Y303000D02*
D03*
X81000Y11000D02*
D03*
X160000Y74000D02*
D03*
X153000Y92000D02*
D03*
X156700Y141600D02*
D03*
X167000Y132000D02*
D03*
X184000Y180000D02*
D03*
X144000Y101000D02*
D03*
X104000Y140000D02*
D03*
X262000Y40000D02*
D03*
X258000Y179000D02*
D03*
X188000Y195000D02*
D03*
X114000Y253000D02*
D03*
X297000Y211000D02*
D03*
X56000Y66000D02*
D03*
X144000Y239000D02*
D03*
X60000Y243000D02*
D03*
X52000Y239000D02*
D03*
X50000Y251000D02*
D03*
X177000Y101000D02*
D03*
X43000Y49000D02*
D03*
X53000Y50000D02*
D03*
X68000Y249000D02*
D03*
X10000Y260100D02*
D03*
X286000Y218000D02*
D03*
X289000Y265000D02*
D03*
X228000Y243000D02*
D03*
X202000Y210000D02*
D03*
X206000Y256000D02*
D03*
X181000Y115000D02*
D03*
X138000Y77000D02*
D03*
X124000D02*
D03*
X208000Y144000D02*
D03*
X326000Y204000D02*
D03*
X310000Y335400D02*
D03*
X382000Y353000D02*
D03*
X301000Y350000D02*
D03*
X236000Y348000D02*
D03*
X382000Y165000D02*
D03*
X364000Y224000D02*
D03*
X356000Y110000D02*
D03*
X355000Y166000D02*
D03*
X104000Y392000D02*
D03*
X169250Y76000D02*
D03*
X199000Y29000D02*
D03*
X164000Y49000D02*
D03*
X178000Y84000D02*
D03*
D68*
X45000Y252000D02*
D03*
X56000Y71000D02*
D03*
X338000Y314000D02*
D03*
Y307000D02*
D03*
X283000Y303750D02*
D03*
X153000Y98000D02*
D03*
X149000Y101000D02*
D03*
X141000Y105000D02*
D03*
X92000Y5000D02*
D03*
X52000Y151000D02*
D03*
X46000Y160000D02*
D03*
X57000Y215000D02*
D03*
X62000Y238000D02*
D03*
X57000Y239000D02*
D03*
X127000Y238000D02*
D03*
X279000Y341000D02*
D03*
X268000Y342000D02*
D03*
X48000Y169000D02*
D03*
X323000Y199000D02*
D03*
X286000Y204000D02*
D03*
X283000Y318000D02*
D03*
X262000Y183000D02*
D03*
Y45000D02*
D03*
X114000Y248000D02*
D03*
X269000Y302000D02*
D03*
X267000Y296000D02*
D03*
X207000Y307000D02*
D03*
X283000Y296000D02*
D03*
X288000Y325000D02*
D03*
X208000Y332000D02*
D03*
X140000Y237000D02*
D03*
X83000Y7000D02*
D03*
X164000Y76000D02*
D03*
X186000Y184000D02*
D03*
X39000Y152000D02*
D03*
X180000Y106000D02*
D03*
X177000Y112000D02*
D03*
X49000Y235000D02*
D03*
X301000Y208000D02*
D03*
X185000Y199000D02*
D03*
X104000Y135000D02*
D03*
X241000Y160000D02*
D03*
X248000Y163000D02*
D03*
X173000Y96000D02*
D03*
M02*
